<?xml version="1.0" encoding="UTF-8"?>
<svg xmlns="http://www.w3.org/2000/svg" width="20" height="21" viewBox="0 0 20 21" fill="none">
  <path d="M2.64172 6.47119L10 10.6996L17.3084 6.49599" stroke="#595959" stroke-width="1.5" stroke-linecap="round" stroke-linejoin="round"></path>
  <path d="M10 18.1966V10.6914" stroke="#595959" stroke-width="1.5" stroke-linecap="round" stroke-linejoin="round"></path>
  <path d="M8.27501 2.36691L3.82502 4.82454C2.81668 5.37895 1.9917 6.76909 1.9917 7.91101V12.5863C1.9917 13.7282 2.81668 15.1183 3.82502 15.6727L8.27501 18.1304C9.22501 18.6517 10.7833 18.6517 11.7333 18.1304L16.1834 15.6727C17.1917 15.1183 18.0167 13.7282 18.0167 12.5863V7.91101C18.0167 6.76909 17.1917 5.37895 16.1834 4.82454L11.7333 2.36691C10.775 1.83733 9.22501 1.83733 8.27501 2.36691Z" stroke="#595959" stroke-width="1.5" stroke-linecap="round" stroke-linejoin="round"></path>
  <path d="M14.1666 11.2704V8.24187L6.2583 3.70728" stroke="#595959" stroke-width="1.5" stroke-linecap="round" stroke-linejoin="round"></path>
</svg>
