<?xml version="1.0" encoding="UTF-8"?>
<svg xmlns="http://www.w3.org/2000/svg" width="20" height="21" viewBox="0 0 20 21" fill="none">
  <path d="M7.97502 11.1995L5.43335 13.7233" stroke="#595959" stroke-width="1.5" stroke-miterlimit="10" stroke-linecap="round" stroke-linejoin="round"></path>
  <path d="M5.45837 11.2244L8.00004 13.7482" stroke="#595959" stroke-width="1.5" stroke-miterlimit="10" stroke-linecap="round" stroke-linejoin="round"></path>
  <path d="M11.275 12.4739H11.2834" stroke="#595959" stroke-width="2" stroke-miterlimit="10" stroke-linecap="round" stroke-linejoin="round"></path>
  <path d="M14.5583 12.4739H14.5667" stroke="#595959" stroke-width="2" stroke-miterlimit="10" stroke-linecap="round" stroke-linejoin="round"></path>
  <path d="M12.9166 14.1124V14.0957" stroke="#595959" stroke-width="2" stroke-miterlimit="10" stroke-linecap="round" stroke-linejoin="round"></path>
  <path d="M12.9166 10.8521V10.8354" stroke="#595959" stroke-width="2" stroke-miterlimit="10" stroke-linecap="round" stroke-linejoin="round"></path>
  <path d="M7.49996 19.0936H12.5C16.6666 19.0936 18.3333 17.4387 18.3333 13.3013V11.6463C18.3333 7.50895 16.6666 5.854 12.5 5.854H7.49996C3.33329 5.854 1.66663 7.50895 1.66663 11.6463V13.3013C1.66663 17.4387 3.33329 19.0936 7.49996 19.0936Z" stroke="#595959" stroke-width="1.5" stroke-linecap="round" stroke-linejoin="round"></path>
  <path d="M10.8417 2.54419L10.8334 3.37994C10.825 3.83505 10.4584 4.19914 10 4.19914H9.97503C9.51669 4.19914 9.15002 4.5715 9.15002 5.02661C9.15002 5.48173 9.52502 5.85409 9.98336 5.85409H10.8167" stroke="#595959" stroke-width="1.5" stroke-linecap="round" stroke-linejoin="round"></path>
</svg>
