<?xml version="1.0" encoding="UTF-8"?>
<svg xmlns="http://www.w3.org/2000/svg" width="20" height="21" viewBox="0 0 20 21" fill="none">
  <path d="M18.3333 14.3405V4.35288C18.3333 3.35991 17.5166 2.62346 16.525 2.70621H16.475C14.725 2.85515 12.0666 3.74055 10.5833 4.66732L10.4416 4.75834C10.2 4.90729 9.79996 4.90729 9.55829 4.75834L9.34996 4.63422C7.86663 3.71573 5.21663 2.8386 3.46663 2.69793C2.47496 2.61518 1.66663 3.35991 1.66663 4.34461V14.3405C1.66663 15.1349 2.31663 15.8796 3.11663 15.9789L3.35829 16.012C5.16663 16.252 7.95829 17.1622 9.55829 18.031L9.59163 18.0476C9.81663 18.1717 10.175 18.1717 10.3916 18.0476C11.9916 17.1705 14.7916 16.252 16.6083 16.012L16.8833 15.9789C17.6833 15.8796 18.3333 15.1349 18.3333 14.3405Z" stroke="#595959" stroke-width="1.5" stroke-linecap="round" stroke-linejoin="round"></path>
  <path d="M10 5.03125V17.4434" stroke="#595959" stroke-width="1.5" stroke-linecap="round" stroke-linejoin="round"></path>
  <path d="M6.45837 7.51367H4.58337" stroke="#595959" stroke-width="1.5" stroke-linecap="round" stroke-linejoin="round"></path>
  <path d="M7.08337 9.99609H4.58337" stroke="#595959" stroke-width="1.5" stroke-linecap="round" stroke-linejoin="round"></path>
</svg>
