<?xml version="1.0" encoding="UTF-8"?>
<svg xmlns="http://www.w3.org/2000/svg" width="20" height="21" viewBox="0 0 20 21" fill="none">
  <path d="M7.22496 12.1118H3.33329C2.41663 12.1118 1.66663 12.8565 1.66663 13.7668V18.7316H7.22496V12.1118Z" stroke="#595959" stroke-width="1.5" stroke-miterlimit="10" stroke-linecap="round" stroke-linejoin="round"></path>
  <path d="M11.1083 8.80176H8.88334C7.96667 8.80176 7.21667 9.54649 7.21667 10.4567V18.7315H12.775V10.4567C12.775 9.54649 12.0333 8.80176 11.1083 8.80176Z" stroke="#595959" stroke-width="1.5" stroke-miterlimit="10" stroke-linecap="round" stroke-linejoin="round"></path>
  <path d="M16.6667 14.5942H12.775V18.7316H18.3334V16.2492C18.3334 15.339 17.5834 14.5942 16.6667 14.5942Z" stroke="#595959" stroke-width="1.5" stroke-miterlimit="10" stroke-linecap="round" stroke-linejoin="round"></path>
  <path d="M10.4333 2.23993L10.8749 3.11706C10.9333 3.24118 11.0916 3.35702 11.2249 3.37357L12.0249 3.50597C12.5333 3.58872 12.6583 3.96106 12.2916 4.31688L11.6666 4.93748C11.5583 5.04506 11.4999 5.24366 11.5333 5.38433L11.7083 6.14562C11.8499 6.74967 11.5249 6.98137 10.9916 6.66693L10.2416 6.22837C10.1083 6.14562 9.88328 6.14562 9.74995 6.22837L8.99995 6.66693C8.46661 6.98137 8.14161 6.74967 8.28328 6.14562L8.45828 5.38433C8.49162 5.24366 8.43328 5.03678 8.32495 4.93748L7.70828 4.32516C7.34161 3.96107 7.45828 3.59697 7.97495 3.51423L8.77495 3.38185C8.90828 3.35703 9.06661 3.24118 9.12495 3.12534L9.56661 2.24819C9.80828 1.76826 10.1916 1.76827 10.4333 2.23993Z" stroke="#595959" stroke-width="1.5" stroke-linecap="round" stroke-linejoin="round"></path>
</svg>
