<svg xmlns="http://www.w3.org/2000/svg" width="48" height="48" viewBox="0 0 48 48" fill="none"><g clip-path="url(#clip0_249_1662)"><path d="M45.5861 7.54724C45.4767 6.11247 44.8518 4.76575 43.8268 3.75581C42.8019 2.74587 41.4461 2.14094 40.0098 2.05274C29.1451 1.31527 18.2429 1.31527 7.3781 2.05274C5.94201 2.14111 4.58639 2.74613 3.56158 3.75605C2.53677 4.76597 1.91198 6.11259 1.8026 7.54724C1.05408 18.2527 1.05408 28.9973 1.8026 39.7027C1.91216 41.1373 2.53702 42.4837 3.56181 43.4935C4.5866 44.5032 5.94213 45.1081 7.3781 45.1965C18.2431 45.934 29.1456 45.934 40.0106 45.1965C41.4466 45.1081 42.8021 44.5032 43.8269 43.4935C44.8517 42.4837 45.4765 41.1373 45.5861 39.7027C46.3345 28.9973 46.3345 18.2527 45.5861 7.54724Z" fill="#F5E8DD"></path><path d="M23.9962 47.2462C18.5152 47.2462 13.038 47.0587 7.59823 46.6852C5.97059 46.5678 4.4397 45.8681 3.28579 44.7142C2.13189 43.5603 1.43217 42.0294 1.31473 40.4017C0.566966 29.4798 0.566966 18.5195 1.31473 7.5975C1.43232 5.97011 2.13201 4.4395 3.28574 3.28576C4.43948 2.13203 5.97009 1.43234 7.59748 1.31475C18.5195 0.567285 29.4797 0.567285 40.4017 1.31475C42.0294 1.43219 43.5603 2.13191 44.7142 3.28581C45.8681 4.43972 46.5678 5.97061 46.6852 7.59825C47.433 18.52 47.433 29.48 46.6852 40.4017C46.5678 42.0294 45.8681 43.5603 44.7142 44.7142C43.5603 45.8681 42.0294 46.5678 40.4017 46.6852C34.9582 47.0595 29.4757 47.2462 23.9962 47.2462ZM23.9962 2.25375C18.5505 2.25375 13.1062 2.43975 7.70023 2.811C6.43372 2.90267 5.24258 3.44732 4.34475 4.34529C3.44693 5.24325 2.90246 6.43448 2.81098 7.701C2.068 18.5543 2.068 29.4457 2.81098 40.299C2.90248 41.5656 3.44705 42.757 4.34504 43.6549C5.24302 44.5529 6.43434 45.0975 7.70098 45.189C18.5545 45.9317 29.4462 45.9317 40.2997 45.189C41.5664 45.0975 42.7577 44.5529 43.6557 43.6549C44.5536 42.757 45.0982 41.5656 45.1897 40.299C45.9327 29.4457 45.9327 18.5543 45.1897 7.701C45.0982 6.43436 44.5536 5.24304 43.6557 4.34505C42.7577 3.44707 41.5664 2.9025 40.2997 2.811C34.8732 2.43939 29.4355 2.25353 23.9962 2.25375Z" fill="#331603"></path><path d="M35.9248 30.0825C36.1781 30.2857 36.3834 30.5424 36.5259 30.8343C36.6683 31.1261 36.7444 31.4459 36.7487 31.7706C36.753 32.0954 36.6854 32.417 36.5507 32.7126C36.4161 33.0081 36.2177 33.2702 35.9698 33.48L33.9373 35.1975C32.8115 36.1426 31.4037 36.6871 29.9349 36.7455C28.4661 36.8039 27.0195 36.3728 25.8223 35.52C25.0049 34.9435 24.2045 34.3433 23.4223 33.72C20.0183 31.0511 16.9487 27.9814 14.2798 24.5775C13.6565 23.7952 13.0562 22.9949 12.4798 22.1775C11.627 20.9802 11.1959 19.5337 11.2543 18.0649C11.3126 16.5961 11.8571 15.1883 12.8023 14.0625L14.5198 12.03C14.7296 11.7821 14.9917 11.5837 15.2872 11.449C15.5827 11.3144 15.9044 11.2467 16.2291 11.251C16.5539 11.2553 16.8736 11.3315 17.1655 11.4739C17.4574 11.6164 17.7141 11.8216 17.9173 12.075L21.1198 16.08C21.4778 16.53 21.6453 17.1023 21.5864 17.6742C21.5275 18.2462 21.2469 18.7724 20.8048 19.14L20.1748 19.6725C19.9482 19.8617 19.7618 20.0944 19.6266 20.3569C19.4915 20.6193 19.4104 20.9062 19.388 21.2006C19.3656 21.4949 19.4025 21.7908 19.4964 22.0706C19.5903 22.3505 19.7394 22.6087 19.9348 22.83C21.5616 24.6893 23.3105 26.4382 25.1698 28.065C25.391 28.2604 25.6493 28.4095 25.9291 28.5034C26.209 28.5973 26.5048 28.6342 26.7992 28.6118C27.0936 28.5894 27.3804 28.5083 27.6429 28.3731C27.9054 28.238 28.1381 28.0516 28.3273 27.825L28.8598 27.195C29.2274 26.7528 29.7535 26.4723 30.3255 26.4134C30.8975 26.3545 31.4698 26.522 31.9198 26.88L35.9248 30.0825Z" fill="#FFEC9C"></path><path d="M20.1744 17.4217C19.7712 17.7578 19.5015 18.2271 19.4141 18.7446C19.3266 19.2622 19.4271 19.794 19.6974 20.2439C19.8221 20.0273 19.9835 19.8339 20.1744 19.6724L20.8044 19.1399C21.2065 18.8047 21.4753 18.3366 21.5622 17.8203C21.6492 17.304 21.5485 16.7737 21.2784 16.3252C21.1539 16.5388 20.9938 16.7295 20.8051 16.8892L20.1744 17.4217ZM35.9694 31.2292L33.9369 32.9467C32.8111 33.8918 31.4033 34.4363 29.9345 34.4947C28.4657 34.5531 27.0191 34.122 25.8219 33.2692C25.0045 32.6927 24.2041 32.0925 23.4219 31.4692C20.0179 28.8003 16.9483 25.7306 14.2794 22.3267C13.6561 21.5444 13.0558 20.7441 12.4794 19.9267C11.9035 19.1063 11.5179 18.1677 11.3506 17.1794C11.0502 18.9292 11.4561 20.7266 12.4794 22.1774C13.0558 22.9948 13.6561 23.7952 14.2794 24.5774C16.9483 27.9813 20.018 31.051 23.4219 33.7199C24.2019 34.3424 25.0044 34.9424 25.8219 35.5199C27.0191 36.3728 28.4657 36.8038 29.9345 36.7455C31.4033 36.6871 32.8111 36.1426 33.9369 35.1974L35.9694 33.4799C36.3662 33.1431 36.6301 32.676 36.7137 32.1622C36.7973 31.6484 36.6951 31.1217 36.4254 30.6764C36.3054 30.8847 36.1507 31.0715 35.9694 31.2292Z" fill="#F9DF8A"></path><path d="M25.8223 10.5C25.6234 10.5 25.4326 10.579 25.2919 10.7197C25.1513 10.8603 25.0723 11.0511 25.0723 11.25C25.0723 11.4489 25.1513 11.6397 25.2919 11.7803C25.4326 11.921 25.6234 12 25.8223 12C28.5208 12.003 31.1079 13.0763 33.0161 14.9844C34.9242 16.8926 35.9975 19.4797 36.0005 22.1782C36.0005 22.3772 36.0795 22.5679 36.2202 22.7086C36.3608 22.8492 36.5516 22.9282 36.7505 22.9282C36.9494 22.9282 37.1402 22.8492 37.2808 22.7086C37.4215 22.5679 37.5005 22.3772 37.5005 22.1782C37.4967 19.0821 36.2652 16.1139 34.0759 13.9246C31.8866 11.7354 28.9184 10.5038 25.8223 10.5Z" fill="#331603"></path><path d="M31.4469 22.1783C31.4469 22.3772 31.5259 22.568 31.6666 22.7086C31.8072 22.8493 31.998 22.9283 32.1969 22.9283C32.3958 22.9283 32.5866 22.8493 32.7272 22.7086C32.8679 22.568 32.9469 22.3772 32.9469 22.1783C32.9449 20.2892 32.1936 18.4781 30.8578 17.1423C29.5221 15.8066 27.711 15.0553 25.8219 15.0533C25.623 15.0533 25.4322 15.1323 25.2916 15.273C25.1509 15.4136 25.0719 15.6044 25.0719 15.8033C25.0719 16.0022 25.1509 16.193 25.2916 16.3336C25.4322 16.4743 25.623 16.5533 25.8219 16.5533C27.3132 16.5549 28.7431 17.148 29.7976 18.2026C30.8522 19.2571 31.4453 20.6869 31.4469 22.1783ZM13.5496 24.8625C13.6744 25.0145 13.8538 25.1113 14.0493 25.1323C14.2447 25.1533 14.4406 25.0967 14.5947 24.9747C14.7489 24.8527 14.8489 24.675 14.8734 24.48C14.8979 24.285 14.8448 24.0881 14.7256 23.9318C14.1611 23.2186 13.6169 22.4895 13.0936 21.7455C12.3378 20.6833 11.9554 19.4005 12.0064 18.0978C12.0575 16.7951 12.539 15.5461 13.3756 14.5463L15.0931 12.5138C15.233 12.3529 15.4062 12.2245 15.6007 12.1374C15.7952 12.0503 16.0064 12.0066 16.2195 12.0095C16.4326 12.0124 16.6425 12.0616 16.8346 12.1539C17.0268 12.2462 17.1964 12.3792 17.3319 12.5438L20.5336 16.548C20.7685 16.846 20.8776 17.2239 20.8378 17.6012C20.798 17.9785 20.6125 18.3253 20.3206 18.5678L19.6966 19.095C19.3968 19.3509 19.1504 19.6635 18.9717 20.0148C18.7929 20.3661 18.6853 20.7493 18.655 21.1423C18.6247 21.5353 18.6723 21.9304 18.795 22.305C18.9178 22.6796 19.1133 23.0262 19.3704 23.325C21.0199 25.2089 22.7925 26.9813 24.6766 28.6305C24.9748 28.8872 25.3207 29.0826 25.6944 29.2054C26.0682 29.3283 26.4626 29.3761 26.8549 29.3463C27.2472 29.3165 27.6298 29.2096 27.9807 29.0317C28.3316 28.8538 28.644 28.6084 28.8999 28.3095L29.4369 27.6735C29.6798 27.3839 30.026 27.2001 30.402 27.1614C30.7781 27.1226 31.1545 27.2318 31.4514 27.4658L35.4541 30.6668C35.6191 30.8022 35.7525 30.9719 35.845 31.1642C35.9376 31.3565 35.9871 31.5666 35.9901 31.78C35.9931 31.9933 35.9495 32.2048 35.8624 32.3996C35.7753 32.5944 35.6467 32.7678 35.4856 32.9078L33.4524 34.6253C32.4528 35.4618 31.2042 35.9433 29.9018 35.9945C28.5993 36.0457 27.3167 35.6636 26.2546 34.908C22.7029 32.411 19.4668 29.4927 16.6171 26.217C16.487 26.0666 16.3023 25.974 16.1039 25.9596C15.9054 25.9453 15.7094 26.0103 15.5589 26.1405C15.4084 26.2707 15.3158 26.4554 15.3015 26.6538C15.2871 26.8523 15.3522 27.0483 15.4824 27.1988C18.4137 30.5648 21.7405 33.5648 25.3906 36.1335C26.7284 37.0691 28.3361 37.5402 29.9672 37.4747C31.5984 37.4091 33.163 36.8105 34.4214 35.7705L36.4539 34.053C36.7815 33.7687 37.0432 33.4163 37.2207 33.0204C37.3982 32.6246 37.4872 32.1948 37.4814 31.761C37.4757 31.3272 37.3755 30.8999 37.1876 30.5088C36.9998 30.1178 36.7289 29.7724 36.3939 29.4968L32.3881 26.2935C31.7845 25.8162 31.0187 25.5928 30.2531 25.6706C29.4875 25.7485 28.7823 26.1215 28.2871 26.7105L27.7501 27.3465C27.4934 27.6426 27.1298 27.825 26.739 27.8538C26.3482 27.8826 25.9618 27.7555 25.6644 27.5003C23.8309 25.8953 22.1059 24.1706 20.5006 22.3373C20.3725 22.19 20.2748 22.0188 20.2133 21.8335C20.1519 21.6483 20.1278 21.4526 20.1425 21.258C20.1572 21.0633 20.2104 20.8735 20.2991 20.6996C20.3877 20.5257 20.51 20.3711 20.6589 20.2448L21.2836 19.7175C21.8748 19.2228 22.2497 18.517 22.3286 17.7501C22.4074 16.9833 22.184 16.216 21.7059 15.6113L18.5019 11.6048C18.2251 11.2719 17.8793 11.0029 17.4885 10.8165C17.0977 10.6301 16.6711 10.5307 16.2382 10.525C15.8052 10.5194 15.3762 10.6077 14.9807 10.7839C14.5852 10.9601 14.2325 11.2199 13.9471 11.5455L12.2304 13.578C11.1795 14.8311 10.5738 16.3973 10.5079 18.0314C10.4421 19.6654 10.92 21.2752 11.8666 22.6088C12.4062 23.3758 12.9674 24.1274 13.5496 24.8625Z" fill="#331603"></path></g><defs><clipPath id="clip0_249_1662"><rect width="48" height="48" fill="white"></rect></clipPath></defs></svg>