<svg xmlns="http://www.w3.org/2000/svg" width="48" height="48" viewBox="0 0 48 48" fill="none"><g clip-path="url(#clip0_249_1644)"><path d="M45.9414 6.9C45.8416 5.45101 45.2209 4.08706 44.1939 3.06004C43.1668 2.03302 41.8029 1.41229 40.3539 1.3125C29.4668 0.5625 18.541 0.5625 7.65391 1.3125C6.20491 1.41229 4.84096 2.03302 3.81394 3.06004C2.78692 4.08706 2.1662 5.45101 2.06641 6.9C1.31641 17.7871 1.31641 28.7129 2.06641 39.6C2.1662 41.049 2.78692 42.4129 3.81394 43.44C4.84096 44.467 6.20491 45.0877 7.65391 45.1875C18.541 45.9375 29.4668 45.9375 40.3539 45.1875C41.8029 45.0877 43.1668 44.467 44.1939 43.44C45.2209 42.4129 45.8416 41.049 45.9414 39.6C46.6914 28.7129 46.6914 17.7871 45.9414 6.9Z" fill="#F5E8DD"></path><path d="M23.9962 47.2462C18.5152 47.2462 13.038 47.0587 7.59823 46.6852C5.97059 46.5678 4.4397 45.8681 3.28579 44.7142C2.13189 43.5603 1.43217 42.0294 1.31473 40.4017C0.566966 29.4798 0.566966 18.5195 1.31473 7.5975C1.43232 5.97011 2.13201 4.4395 3.28574 3.28576C4.43948 2.13203 5.97009 1.43234 7.59748 1.31475C18.5195 0.567285 29.4797 0.567285 40.4017 1.31475C42.0294 1.43219 43.5603 2.13191 44.7142 3.28581C45.8681 4.43972 46.5678 5.97061 46.6852 7.59825C47.433 18.52 47.433 29.48 46.6852 40.4017C46.5678 42.0294 45.8681 43.5603 44.7142 44.7142C43.5603 45.8681 42.0294 46.5678 40.4017 46.6852C34.9582 47.0595 29.4757 47.2462 23.9962 47.2462ZM23.9962 2.25375C18.5505 2.25375 13.1062 2.43975 7.70023 2.811C6.43372 2.90267 5.24258 3.44732 4.34475 4.34529C3.44693 5.24325 2.90246 6.43448 2.81098 7.701C2.068 18.5543 2.068 29.4457 2.81098 40.299C2.90248 41.5656 3.44705 42.757 4.34504 43.6549C5.24302 44.5529 6.43434 45.0975 7.70098 45.189C18.5545 45.9317 29.4462 45.9317 40.2997 45.189C41.5664 45.0975 42.7577 44.5529 43.6557 43.6549C44.5536 42.757 45.0982 41.5656 45.1897 40.299C45.9327 29.4457 45.9327 18.5543 45.1897 7.701C45.0982 6.43436 44.5536 5.24304 43.6557 4.34505C42.7577 3.44707 41.5664 2.9025 40.2997 2.811C34.8732 2.43939 29.4355 2.25353 23.9962 2.25375Z" fill="#331603"></path><path d="M36.75 15.75V32.25C36.7438 32.6459 36.5838 33.0238 36.3038 33.3038C36.0238 33.5838 35.6459 33.7438 35.25 33.75H12.75C12.3538 33.7448 11.9753 33.585 11.6951 33.3049C11.415 33.0247 11.2552 32.6462 11.25 32.25V15.75C11.2512 15.3525 11.4096 14.9717 11.6907 14.6907C11.9717 14.4096 12.3525 14.2512 12.75 14.25H35.25C35.6475 14.2512 36.0283 14.4096 36.3093 14.6907C36.5904 14.9717 36.7488 15.3525 36.75 15.75Z" fill="#FFEC9C"></path><path d="M14.6925 31.8075C14.5515 31.67 14.4396 31.5055 14.3636 31.3238C14.2876 31.1421 14.249 30.947 14.25 30.75V14.25H12.75C12.3525 14.2512 11.9717 14.4096 11.6907 14.6907C11.4096 14.9717 11.2512 15.3525 11.25 15.75V32.25C11.2581 32.6453 11.4187 33.0222 11.6982 33.3018C11.9778 33.5813 12.3547 33.7419 12.75 33.75H35.25C35.6469 33.7471 36.0267 33.5881 36.3074 33.3074C36.5881 33.0267 36.7471 32.6469 36.75 32.25H15.75C15.553 32.251 15.3579 32.2124 15.1762 32.1364C14.9945 32.0604 14.83 31.9485 14.6925 31.8075Z" fill="#F9DF8A"></path><path d="M36.75 15.75V18.585L25.8 26.775C25.2753 27.1557 24.6433 27.36 23.995 27.3587C23.3468 27.3573 22.7156 27.1503 22.1925 26.7675L11.25 18.585V15.75C11.2512 15.3525 11.4096 14.9717 11.6907 14.6907C11.9717 14.4096 12.3525 14.2512 12.75 14.25H35.25C35.6475 14.2512 36.0283 14.4096 36.3093 14.6907C36.5904 14.9717 36.7488 15.3525 36.75 15.75Z" fill="#F9DF8A"></path><path d="M36.75 15.75V16.7175L27 24L24.9 25.575C24.6414 25.7721 24.3252 25.8788 24 25.8788C23.6748 25.8788 23.3586 25.7721 23.1 25.575L21 24L11.25 16.7175V15.75C11.2512 15.3525 11.4096 14.9717 11.6907 14.6907C11.9717 14.4096 12.3525 14.2512 12.75 14.25H35.25C35.6475 14.2512 36.0283 14.4096 36.3093 14.6907C36.5904 14.9717 36.7488 15.3525 36.75 15.75Z" fill="#FFEC9C"></path><path d="M35.25 13.5H12.75C12.1534 13.5006 11.5815 13.7378 11.1597 14.1597C10.7378 14.5815 10.5006 15.1534 10.5 15.75V23.25C10.5 23.4489 10.579 23.6397 10.7197 23.7803C10.8603 23.921 11.0511 24 11.25 24C11.4489 24 11.6397 23.921 11.7803 23.7803C11.921 23.6397 12 23.4489 12 23.25V18.2115L22.6522 26.1787C23.0461 26.4582 23.5171 26.6084 24 26.6084C24.4829 26.6084 24.9539 26.4582 25.3478 26.1787L36 18.2115V31.9395L29.7803 25.7197C29.6388 25.5831 29.4493 25.5075 29.2527 25.5092C29.0561 25.511 28.8679 25.5898 28.7289 25.7289C28.5898 25.8679 28.511 26.0561 28.5092 26.2527C28.5075 26.4493 28.5831 26.6388 28.7197 26.7803L34.9395 33H13.0605L19.2803 26.7803C19.4169 26.6388 19.4925 26.4493 19.4908 26.2527C19.489 26.0561 19.4102 25.8679 19.2711 25.7289C19.1321 25.5898 18.9439 25.511 18.7473 25.5092C18.5507 25.5075 18.3612 25.5831 18.2197 25.7197L12 31.9395V26.25C12 26.0511 11.921 25.8603 11.7803 25.7197C11.6397 25.579 11.4489 25.5 11.25 25.5C11.0511 25.5 10.8603 25.579 10.7197 25.7197C10.579 25.8603 10.5 26.0511 10.5 26.25V32.25C10.5089 32.844 10.7488 33.4111 11.1689 33.8311C11.5889 34.2512 12.156 34.4911 12.75 34.5H35.25C35.8443 34.4922 36.4121 34.2527 36.8324 33.8324C37.2527 33.4121 37.4922 32.8443 37.5 32.25V15.75C37.4994 15.1534 37.2622 14.5815 36.8403 14.1597C36.4185 13.7378 35.8466 13.5006 35.25 13.5ZM24.4492 24.9773C24.3193 25.0737 24.1618 25.1258 24 25.1258C23.8382 25.1258 23.6807 25.0737 23.5507 24.9773L12 16.3387V15.75C12.0002 15.5511 12.0793 15.3605 12.2199 15.2199C12.3605 15.0793 12.5511 15.0002 12.75 15H35.25C35.4489 15.0002 35.6395 15.0793 35.7801 15.2199C35.9207 15.3605 35.9998 15.5511 36 15.75V16.3387L24.4492 24.9773Z" fill="#331603"></path></g><defs><clipPath id="clip0_249_1644"><rect width="48" height="48" fill="white"></rect></clipPath></defs></svg>