<svg xmlns="http://www.w3.org/2000/svg" width="48" height="48" viewBox="0 0 48 48" fill="none"><path d="M45.9414 6.9C45.8416 5.45101 45.2209 4.08706 44.1939 3.06004C43.1668 2.03302 41.8029 1.41229 40.3539 1.3125C29.4668 0.5625 18.541 0.5625 7.65391 1.3125C6.20491 1.41229 4.84096 2.03302 3.81394 3.06004C2.78692 4.08706 2.1662 5.45101 2.06641 6.9C1.31641 17.7871 1.31641 28.7129 2.06641 39.6C2.1662 41.049 2.78692 42.4129 3.81394 43.44C4.84096 44.467 6.20491 45.0877 7.65391 45.1875C18.541 45.9375 29.4668 45.9375 40.3539 45.1875C41.8029 45.0877 43.1668 44.467 44.1939 43.44C45.2209 42.4129 45.8416 41.049 45.9414 39.6C46.6914 28.7129 46.6914 17.7871 45.9414 6.9Z" fill="#F5E8DD"></path><path d="M23.9941 47.2463C18.5146 47.2463 13.0381 47.0596 7.59834 46.6861C5.97063 46.5684 4.43973 45.8686 3.28584 44.7145C2.13195 43.5605 1.43226 42.0295 1.31484 40.4018C0.56718 29.4801 0.56693 18.52 1.31409 7.5983C1.43168 5.97052 2.13153 4.43952 3.28554 3.28551C4.43956 2.13149 5.97055 1.43164 7.59834 1.31405C18.52 0.56589 29.4801 0.56589 40.4018 1.31405C42.0297 1.43149 43.5608 2.13129 44.7148 3.28533C45.8688 4.43938 46.5686 5.97046 46.6861 7.5983C47.4335 18.52 47.4335 29.4801 46.6861 40.4018C46.5688 42.0296 45.869 43.5607 44.7149 44.7146C43.5608 45.8686 42.0297 46.5682 40.4018 46.6853C34.9583 47.0588 29.4758 47.2463 23.9941 47.2463ZM23.9941 2.2538C18.5498 2.2538 13.1071 2.4398 7.70109 2.81105C6.4344 2.9024 5.24298 3.44692 4.34497 4.34494C3.44696 5.24295 2.90244 6.43436 2.81109 7.70105C2.06768 18.5546 2.06768 29.4463 2.81109 40.2998C2.90213 41.5666 3.44656 42.7582 4.34463 43.6563C5.2427 44.5543 6.43429 45.0988 7.70109 45.1898C18.5544 45.9333 29.4458 45.933 40.2991 45.1891C41.5657 45.0982 42.7572 44.5539 43.6552 43.6559C44.5531 42.7579 45.0974 41.5665 45.1883 40.2998C45.9317 29.4465 45.9317 18.5551 45.1883 7.7018C45.0971 6.43513 44.5526 5.24373 43.6546 4.34581C42.7565 3.44789 41.565 2.90357 40.2983 2.81255C34.8716 2.4395 29.4336 2.25314 23.9941 2.2538Z" fill="#331603"></path><path d="M24 11.25C25.182 11.2497 26.3524 11.4823 27.4445 11.9345C28.5366 12.3867 29.5288 13.0496 30.3646 13.8854C31.2004 14.7212 31.8633 15.7134 32.3155 16.8055C32.7677 17.8976 33.0003 19.068 33 20.25C33 27.75 27.75 32.25 24 36.75C20.25 32.25 15 27.75 15 20.25C14.9997 19.068 15.2323 17.8976 15.6845 16.8055C16.1367 15.7134 16.7996 14.7212 17.6354 13.8854C18.4712 13.0496 19.4634 12.3867 20.5555 11.9345C21.6476 11.4823 22.818 11.2497 24 11.25ZM28.5 20.25C28.5 19.36 28.2361 18.49 27.7416 17.7499C27.2471 17.0099 26.5443 16.4331 25.7221 16.0925C24.8998 15.7519 23.995 15.6628 23.1221 15.8365C22.2492 16.0101 21.4474 16.4387 20.818 17.068C20.1887 17.6974 19.7601 18.4992 19.5865 19.3721C19.4128 20.245 19.5019 21.1498 19.8425 21.9721C20.1831 22.7943 20.7599 23.4971 21.4999 23.9916C22.24 24.4861 23.11 24.75 24 24.75C25.1932 24.749 26.3372 24.2746 27.1809 23.4309C28.0246 22.5872 28.499 21.4432 28.5 20.25Z" fill="#FFEC9C"></path><path d="M17.2502 20.25C17.2503 18.0587 18.0507 15.9429 19.5007 14.3C20.9508 12.6571 22.9509 11.6003 25.1252 11.328C23.8574 11.1596 22.5683 11.265 21.3447 11.6371C20.1212 12.0091 18.9916 12.6391 18.032 13.4846C17.0725 14.3301 16.3054 15.3714 15.7824 16.5385C15.2594 17.7055 14.9927 18.9711 15.0002 20.25C15.0002 27.75 20.2502 32.25 24.0002 36.75C24.3624 36.315 24.7412 35.88 25.1252 35.4427C21.5327 31.3522 17.2502 27.0255 17.2502 20.25Z" fill="#F9DF8A"></path><path d="M15.7545 16.5885C15.6619 16.555 15.5634 16.5402 15.465 16.5449C15.3665 16.5497 15.27 16.5739 15.1809 16.6161C15.0919 16.6584 15.0121 16.7179 14.9462 16.7912C14.8802 16.8644 14.8295 16.95 14.7968 17.043C14.4315 18.0726 14.2465 19.1575 14.25 20.25C14.25 26.8388 18.1328 31.2188 21.558 35.0828C22.2 35.8065 22.8308 36.5183 23.4233 37.2308C23.4944 37.3143 23.5828 37.3814 23.6824 37.4274C23.782 37.4734 23.8904 37.4972 24 37.4972C24.1097 37.4972 24.2181 37.4734 24.3177 37.4274C24.4173 37.3814 24.5057 37.3143 24.5768 37.2308C25.1693 36.5183 25.8 35.8065 26.442 35.0828C29.8673 31.2188 33.75 26.8388 33.75 20.25C33.7496 18.2255 33.119 16.2514 31.9458 14.6015C30.7727 12.9516 29.1151 11.7077 27.203 11.0424C25.291 10.3771 23.2192 10.3235 21.2753 10.8888C19.3314 11.4542 17.6116 12.6106 16.3545 14.1975C16.2899 14.2743 16.2413 14.3634 16.2116 14.4593C16.182 14.5553 16.172 14.6562 16.1821 14.7562C16.1922 14.8561 16.2223 14.9529 16.2705 15.041C16.3188 15.1291 16.3843 15.2066 16.463 15.2689C16.5418 15.3312 16.6323 15.377 16.7291 15.4037C16.8259 15.4303 16.9271 15.4373 17.0267 15.4241C17.1263 15.4109 17.2222 15.3779 17.3087 15.3269C17.3953 15.276 17.4707 15.2082 17.5305 15.1275C18.5943 13.7847 20.0496 12.8062 21.6946 12.3279C23.3396 11.8496 25.0927 11.8951 26.7106 12.4581C28.3285 13.0212 29.7311 14.0739 30.7237 15.4701C31.7164 16.8663 32.2498 18.5369 32.25 20.25C32.25 26.2695 28.7265 30.2445 25.3193 34.0883C24.8715 34.5938 24.4283 35.0933 24 35.5905C23.5718 35.0933 23.1285 34.5938 22.6808 34.0883C19.2735 30.2445 15.75 26.2695 15.75 20.25C15.7466 19.3292 15.9016 18.4146 16.2083 17.5463C16.2415 17.4536 16.2561 17.3553 16.2513 17.257C16.2464 17.1586 16.2223 17.0622 16.1801 16.9733C16.138 16.8843 16.0787 16.8045 16.0057 16.7385C15.9326 16.6725 15.8473 16.6215 15.7545 16.5885Z" fill="#331603"></path><path d="M29.25 20.25C29.25 19.2117 28.9421 18.1966 28.3652 17.3333C27.7883 16.4699 26.9684 15.797 26.0091 15.3996C25.0498 15.0023 23.9942 14.8983 22.9758 15.1009C21.9574 15.3035 21.0219 15.8035 20.2877 16.5377C19.5535 17.2719 19.0535 18.2074 18.8509 19.2258C18.6483 20.2442 18.7523 21.2998 19.1496 22.2591C19.547 23.2184 20.2199 24.0383 21.0833 24.6152C21.9466 25.1921 22.9617 25.5 24 25.5C25.3919 25.4984 26.7263 24.9448 27.7106 23.9606C28.6948 22.9763 29.2484 21.6419 29.25 20.25ZM20.25 20.25C20.25 19.5083 20.4699 18.7833 20.882 18.1666C21.294 17.5499 21.8797 17.0693 22.5649 16.7855C23.2502 16.5016 24.0042 16.4274 24.7316 16.5721C25.459 16.7168 26.1272 17.0739 26.6517 17.5984C27.1761 18.1228 27.5333 18.791 27.6779 19.5184C27.8226 20.2458 27.7484 20.9998 27.4646 21.6851C27.1807 22.3703 26.7001 22.956 26.0834 23.368C25.4667 23.7801 24.7417 24 24 24C23.0058 23.9988 22.0527 23.6033 21.3497 22.9003C20.6467 22.1973 20.2512 21.2442 20.25 20.25Z" fill="#331603"></path></svg>