<svg xmlns="http://www.w3.org/2000/svg" width="48" height="48" viewBox="0 0 48 48" fill="none"><g clip-path="url(#clip0_249_1691)"><path d="M45.9414 6.9C45.8416 5.45101 45.2209 4.08706 44.1939 3.06004C43.1668 2.03302 41.8029 1.41229 40.3539 1.3125C29.4668 0.5625 18.541 0.5625 7.65391 1.3125C6.20491 1.41229 4.84096 2.03302 3.81394 3.06004C2.78692 4.08706 2.1662 5.45101 2.06641 6.9C1.31641 17.7871 1.31641 28.7129 2.06641 39.6C2.1662 41.049 2.78692 42.4129 3.81394 43.44C4.84096 44.467 6.20491 45.0877 7.65391 45.1875C18.541 45.9375 29.4668 45.9375 40.3539 45.1875C41.8029 45.0877 43.1668 44.467 44.1939 43.44C45.2209 42.4129 45.8416 41.049 45.9414 39.6C46.6914 28.7129 46.6914 17.7871 45.9414 6.9Z" fill="#F5E8DD"></path><path d="M23.994 47.2462C18.5152 47.2462 13.038 47.0595 7.59823 46.686C5.97052 46.5684 4.43962 45.8685 3.28573 44.7145C2.13184 43.5604 1.43215 42.0295 1.31473 40.4017C0.566966 29.4798 0.566966 18.5195 1.31473 7.5975C1.43232 5.97011 2.13201 4.4395 3.28574 3.28576C4.43948 2.13203 5.97009 1.43234 7.59748 1.31475C18.5195 0.567285 29.4797 0.567285 40.4017 1.31475C42.0294 1.43219 43.5603 2.13191 44.7142 3.28581C45.8681 4.43972 46.5678 5.97061 46.6852 7.59825C47.433 18.52 47.433 29.48 46.6852 40.4017C46.5678 42.0294 45.8681 43.5603 44.7142 44.7142C43.5603 45.8681 42.0294 46.5678 40.4017 46.6852C34.959 47.0587 29.4757 47.2462 23.994 47.2462ZM23.9962 2.25375C18.5505 2.25375 13.1062 2.43975 7.70023 2.811C6.43372 2.90267 5.24258 3.44732 4.34475 4.34529C3.44693 5.24325 2.90246 6.43448 2.81098 7.701C2.068 18.5543 2.068 29.4457 2.81098 40.299C2.90233 41.5657 3.44685 42.7571 4.34486 43.6551C5.24288 44.5531 6.43429 45.0976 7.70098 45.189C18.5545 45.9324 29.4462 45.9324 40.2997 45.189C41.5665 45.0978 42.758 44.5533 43.656 43.6553C44.5541 42.7572 45.0985 41.5657 45.1897 40.299C45.9327 29.4457 45.9327 18.5543 45.1897 7.701C45.0982 6.43436 44.5536 5.24304 43.6557 4.34505C42.7577 3.44707 41.5664 2.9025 40.2997 2.811C34.8732 2.43924 29.4355 2.25338 23.9962 2.25375Z" fill="#331603"></path><path d="M24 11.25C21.7186 11.2471 19.4783 11.8572 17.5134 13.0164C15.5484 14.1757 13.9311 15.8416 12.8303 17.8399C11.7296 19.8382 11.186 22.0956 11.2563 24.3759C11.3266 26.6562 12.0083 28.8758 13.23 30.8025L11.25 36.75L18.225 35.355C19.9422 36.2288 21.8352 36.7019 23.7616 36.7387C25.688 36.7755 27.5977 36.3751 29.347 35.5675C31.0964 34.76 32.6399 33.5663 33.8615 32.0763C35.0831 30.5863 35.9509 28.8387 36.3998 26.965C36.8488 25.0913 36.867 23.1402 36.4532 21.2584C36.0394 19.3766 35.2044 17.6131 34.0109 16.1005C32.8174 14.5879 31.2965 13.3656 29.5625 12.5254C27.8286 11.6853 25.9268 11.2492 24 11.25Z" fill="#FFEC9C"></path><path d="M14.4639 36.1072L16.2301 30.8025C15.0765 28.9841 14.4032 26.9026 14.2733 24.7531C14.1434 22.6035 14.5611 20.4561 15.4874 18.512C16.4136 16.5679 17.8181 14.8907 19.5693 13.6374C21.3205 12.384 23.3612 11.5956 25.5001 11.346C23.7106 11.1248 21.8945 11.2874 20.1728 11.823C18.4511 12.3586 16.8632 13.2548 15.5149 14.4521C14.1667 15.6493 13.089 17.1201 12.3536 18.7664C11.6182 20.4128 11.242 22.1969 11.2501 24C11.2512 26.4094 11.938 28.7688 13.2301 30.8025L11.2501 36.75L14.4639 36.1072Z" fill="#F9DF8A"></path><path d="M30.4428 27.2025C30.5293 27.264 30.6012 27.3437 30.6536 27.4359C30.7061 27.5282 30.7377 27.6308 30.7463 27.7365C30.7548 27.8423 30.7402 27.9486 30.7033 28.0481C30.6664 28.1476 30.6082 28.2379 30.5328 28.3125L28.5528 30.2925C28.3946 30.4534 28.201 30.5751 27.9875 30.648C27.774 30.721 27.5464 30.743 27.3228 30.7125C25.4697 30.4989 23.6973 29.834 22.1609 28.7762C20.6245 27.7184 19.371 26.2999 18.5103 24.645C17.8908 23.3929 17.4707 22.0517 17.2653 20.67C17.2348 20.4464 17.2568 20.2188 17.3297 20.0053C17.4026 19.7917 17.5244 19.5982 17.6853 19.44L19.6653 17.4675C19.7406 17.3919 19.8315 17.3337 19.9315 17.2968C20.0316 17.2598 20.1386 17.2452 20.2449 17.2537C20.3512 17.2623 20.4544 17.2939 20.5473 17.3463C20.6402 17.3988 20.7205 17.4708 20.7828 17.5575L22.5078 19.965C22.607 20.1072 22.6531 20.2797 22.638 20.4525C22.6229 20.6252 22.5477 20.7871 22.4253 20.91L20.7753 22.56C20.8803 22.815 20.9928 23.0775 21.1128 23.3175C22.017 25.1072 23.554 26.4971 25.4253 27.2175L27.0828 25.56C27.2056 25.437 27.3682 25.3619 27.5415 25.3481C27.7147 25.3344 27.8871 25.3829 28.0278 25.485L30.4428 27.2025Z" fill="white"></path><path d="M23.9998 10.5C20.9656 10.4867 18.0178 11.5096 15.6441 13.3995C15.4881 13.523 15.3876 13.7034 15.3647 13.9011C15.3418 14.0987 15.3983 14.2973 15.5218 14.4533C15.6453 14.6092 15.8258 14.7097 16.0234 14.7326C16.221 14.7555 16.4196 14.699 16.5756 14.5755C18.6848 12.8966 21.304 11.988 23.9998 12C27.1824 12 30.2347 13.2643 32.4851 15.5147C34.7355 17.7652 35.9998 20.8174 35.9998 24C35.9998 27.1826 34.7355 30.2348 32.4851 32.4853C30.2347 34.7357 27.1824 36 23.9998 36C22.1097 36.0027 20.2464 35.5524 18.5661 34.6868C18.4152 34.6111 18.2436 34.5874 18.0778 34.6193L12.3703 35.7608L13.9416 31.0388C13.9766 30.9333 13.9878 30.8215 13.9743 30.7112C13.9608 30.601 13.923 30.4951 13.8636 30.4013C12.534 28.3074 11.8883 25.8521 12.0158 23.3751C12.1433 20.8981 13.0378 18.522 14.5753 16.5758C14.6391 16.4989 14.6868 16.41 14.7158 16.3144C14.7447 16.2188 14.7543 16.1184 14.7439 16.0191C14.7335 15.9197 14.7034 15.8235 14.6553 15.7359C14.6072 15.6484 14.5421 15.5713 14.4638 15.5093C14.3856 15.4472 14.2957 15.4014 14.1995 15.3746C14.1033 15.3478 14.0027 15.3404 13.9036 15.353C13.8045 15.3656 13.7089 15.3978 13.6224 15.4478C13.536 15.4978 13.4604 15.5646 13.4001 15.6443C11.7071 17.7862 10.7056 20.3924 10.5284 23.1169C10.3512 25.8413 11.0066 28.5553 12.4078 30.8985L10.5388 36.5138C10.4974 36.6383 10.4894 36.7715 10.5156 36.9001C10.5418 37.0286 10.6013 37.1481 10.6881 37.2465C10.7756 37.3443 10.8869 37.4178 11.0113 37.4597C11.1356 37.5016 11.2687 37.5106 11.3976 37.4858L18.1198 36.141C19.9498 37.0384 21.9616 37.5034 23.9998 37.5C27.5802 37.5 31.014 36.0777 33.5458 33.5459C36.0775 31.0142 37.4998 27.5804 37.4998 24C37.4998 20.4196 36.0775 16.9858 33.5458 14.4541C31.014 11.9223 27.5802 10.5 23.9998 10.5Z" fill="#331603"></path><path d="M23.1148 19.5307L21.3898 17.1202C21.2629 16.9477 21.1004 16.8043 20.9135 16.6997C20.7265 16.5952 20.5192 16.532 20.3058 16.5143C20.0923 16.4966 19.8775 16.5248 19.6758 16.5972C19.4742 16.6695 19.2904 16.7842 19.1368 16.9335L17.1545 18.912C16.91 19.1534 16.7256 19.4488 16.6162 19.7745C16.5068 20.1001 16.4754 20.447 16.5245 20.787C16.7426 22.2466 17.1861 23.6636 17.8393 24.987C18.7582 26.7453 20.0917 28.2531 21.7244 29.3801C23.3572 30.5071 25.2399 31.2193 27.2098 31.455C27.5492 31.5019 27.8949 31.4697 28.2198 31.3608C28.5447 31.2519 28.8399 31.0693 29.0825 30.8272L31.0655 28.8465C31.2178 28.6944 31.3351 28.511 31.4092 28.3089C31.4833 28.1069 31.5125 27.8911 31.4947 27.6767C31.477 27.4622 31.4126 27.2542 31.3063 27.0671C31.1999 26.8801 31.054 26.7184 30.8788 26.5935L28.4638 24.8722C28.1787 24.6675 27.8301 24.571 27.4804 24.5998C27.1307 24.6287 26.8026 24.7811 26.555 25.0297L25.2575 26.3257C23.6702 25.5934 22.3957 24.3195 21.6628 22.7325L22.9565 21.4402C23.2057 21.1929 23.3585 20.8649 23.3875 20.515C23.4165 20.1652 23.3198 19.8157 23.1148 19.5307ZM20.2445 22.0282C20.1406 22.132 20.0694 22.264 20.0398 22.4079C20.0102 22.5517 20.0235 22.7011 20.078 22.8375C20.53 23.9859 21.2135 25.029 22.086 25.9019C22.9585 26.7748 24.0013 27.4587 25.1495 27.9112C25.2856 27.9656 25.4345 27.979 25.5781 27.9497C25.7216 27.9204 25.8535 27.8496 25.9573 27.7462L27.5923 26.0925L29.9938 27.7965L28.022 29.7645C27.947 29.8419 27.8551 29.9008 27.7534 29.9367C27.6518 29.9726 27.5433 29.9845 27.4363 29.9715C23.6263 29.388 20.7688 27.429 19.1788 24.312C18.5964 23.1292 18.2012 21.8631 18.0073 20.559C17.9936 20.4521 18.0052 20.3435 18.0411 20.2419C18.0771 20.1402 18.1364 20.0485 18.2143 19.974L20.1695 17.9925L21.8968 20.3775L20.2445 22.0282Z" fill="#331603"></path></g><defs><clipPath id="clip0_249_1691"><rect width="48" height="48" fill="white"></rect></clipPath></defs></svg>