<?xml version="1.0" encoding="UTF-8" standalone="no" ?>
<!DOCTYPE svg PUBLIC "-//W3C//DTD SVG 1.1//EN" "http://www.w3.org/Graphics/SVG/1.1/DTD/svg11.dtd">
<svg xmlns="http://www.w3.org/2000/svg" xmlns:xlink="http://www.w3.org/1999/xlink" version="1.1" width="1080" height="1080" viewBox="0 0 1080 1080" xml:space="preserve">
<desc>Created with Fabric.js 5.2.4</desc>
<defs>
</defs>
<g transform="matrix(1 0 0 1 540 540)" id="70f1ac48-e14b-4010-83ed-e6928d25aa5b"  >
<rect style="stroke: none; stroke-width: 1; stroke-dasharray: none; stroke-linecap: butt; stroke-dashoffset: 0; stroke-linejoin: miter; stroke-miterlimit: 4; fill: rgb(255,255,255); fill-rule: nonzero; opacity: 1; visibility: hidden;" vector-effect="non-scaling-stroke"  x="-540" y="-540" rx="0" ry="0" width="1080" height="1080" />
</g>
<g transform="matrix(1 0 0 1 540 540)" id="8951578c-b665-4cf1-bc76-9eb445eb0ea3"  >
</g>
<g transform="matrix(10.29 0 0 10.29 540 540)"  >
<g style=""   >
		<g transform="matrix(1 0 0 1 0.44 -1.81)"  >
<path style="stroke: rgb(0,126,87); stroke-width: 2; stroke-dasharray: none; stroke-linecap: round; stroke-dashoffset: 0; stroke-linejoin: miter; stroke-miterlimit: 4; fill: none; fill-rule: nonzero; opacity: 1;" vector-effect="non-scaling-stroke"  transform=" translate(-52.94, -17.69)" d="M 95.1933 33.6178 C 78.4485 35.4304 63.9298 28.7802 54.8275 14.4575 C 50.1671 7.12422 60.4832 -4.05281 65.0611 4.62904 C 69.3301 12.725 55.0674 22.5138 49.1029 23.9446 C 36.1617 27.0492 23.7465 25.9621 10.6832 25.6763" stroke-linecap="round" />
</g>
		<g transform="matrix(1 0 0 1 -47.1 5.47)"  >
<path style="stroke: rgb(0,126,87); stroke-width: 2; stroke-dasharray: none; stroke-linecap: round; stroke-dashoffset: 0; stroke-linejoin: miter; stroke-miterlimit: 4; fill: none; fill-rule: nonzero; opacity: 1;" vector-effect="non-scaling-stroke"  transform=" translate(-5.4, -24.97)" d="M 8.05666 29.2259 C 6.68215 28.2923 -0.797219 24.8648 3.03587 23.5652 C 4.98949 22.9028 6.89411 21.5029 8.85213 20.714" stroke-linecap="round" />
</g>
		<g transform="matrix(1 0 0 1 46.91 14.21)"  >
<path style="stroke: rgb(0,126,87); stroke-width: 2; stroke-dasharray: none; stroke-linecap: round; stroke-dashoffset: 0; stroke-linejoin: miter; stroke-miterlimit: 4; fill: none; fill-rule: nonzero; opacity: 1;" vector-effect="non-scaling-stroke"  transform=" translate(-99.41, -33.71)" d="M 95.4087 37.9489 C 96.1831 37.5528 103.065 35.1419 103.379 34.1294 C 103.665 33.2043 102.137 33.0581 101.618 32.6016 C 100.217 31.3683 99.0733 31.117 98.031 29.4769" stroke-linecap="round" />
</g>
</g>
</g>
</svg>