<?xml version="1.0" encoding="UTF-8" standalone="no" ?>
<!DOCTYPE svg PUBLIC "-//W3C//DTD SVG 1.1//EN" "http://www.w3.org/Graphics/SVG/1.1/DTD/svg11.dtd">
<svg xmlns="http://www.w3.org/2000/svg" xmlns:xlink="http://www.w3.org/1999/xlink" version="1.1" width="1080" height="1080" viewBox="0 0 1080 1080" xml:space="preserve">
<desc>Created with Fabric.js 5.2.4</desc>
<defs>
</defs>
<rect x="0" y="0" width="100%" height="100%" fill="transparent"></rect>
<g transform="matrix(1 0 0 1 540 540)" id="8d2b6fbe-8d69-4666-a186-e2c1dba72a6d"  >
<rect style="stroke: none; stroke-width: 1; stroke-dasharray: none; stroke-linecap: butt; stroke-dashoffset: 0; stroke-linejoin: miter; stroke-miterlimit: 4; fill: rgb(255,255,255); fill-rule: nonzero; opacity: 1; visibility: hidden;" vector-effect="non-scaling-stroke"  x="-540" y="-540" rx="0" ry="0" width="1080" height="1080" />
</g>
<g transform="matrix(1 0 0 1 540 540)" id="03753120-4a5e-498a-b3ac-270f64a52c20"  >
</g>
<g transform="matrix(54 0 0 54 540 540)"  >
<g style=""   >
		<g transform="matrix(1 0 0 1 0 0)"  >
<path style="stroke: rgb(0,126,87); stroke-width: 1.5; stroke-dasharray: none; stroke-linecap: round; stroke-dashoffset: 0; stroke-linejoin: round; stroke-miterlimit: 10; fill: none; fill-rule: nonzero; opacity: 1;" vector-effect="non-scaling-stroke"  transform=" translate(-10, -10)" d="M 2.5 5.83329 C 2.5 3.33329 3.75 1.66663 6.66667 1.66663 L 13.3333 1.66663 C 16.25 1.66663 17.5 3.33329 17.5 5.83329 L 17.5 14.1666 C 17.5 16.6666 16.25 18.3333 13.3333 18.3333 L 6.66667 18.3333 C 3.75 18.3333 2.5 16.6666 2.5 14.1666 L 2.5 9.18331" stroke-linecap="round" />
</g>
		<g transform="matrix(1 0 0 1 3.75 -4.58)"  >
<path style="stroke: rgb(0,126,87); stroke-width: 1.5; stroke-dasharray: none; stroke-linecap: round; stroke-dashoffset: 0; stroke-linejoin: round; stroke-miterlimit: 10; fill: none; fill-rule: nonzero; opacity: 1;" vector-effect="non-scaling-stroke"  transform=" translate(-13.75, -5.42)" d="M 12.0833 3.75 L 12.0833 5.41667 C 12.0833 6.33333 12.8333 7.08333 13.7499 7.08333 L 15.4166 7.08333" stroke-linecap="round" />
</g>
		<g transform="matrix(1 0 0 1 -1.67 0.83)"  >
<path style="stroke: rgb(0,126,87); stroke-width: 1.5; stroke-dasharray: none; stroke-linecap: round; stroke-dashoffset: 0; stroke-linejoin: round; stroke-miterlimit: 10; fill: none; fill-rule: nonzero; opacity: 1;" vector-effect="non-scaling-stroke"  transform=" translate(-8.33, -10.83)" d="M 6.66675 10.8334 L 10.0001 10.8334" stroke-linecap="round" />
</g>
		<g transform="matrix(1 0 0 1 0 4.17)"  >
<path style="stroke: rgb(0,126,87); stroke-width: 1.5; stroke-dasharray: none; stroke-linecap: round; stroke-dashoffset: 0; stroke-linejoin: round; stroke-miterlimit: 10; fill: none; fill-rule: nonzero; opacity: 1;" vector-effect="non-scaling-stroke"  transform=" translate(-10, -14.17)" d="M 6.66675 14.1666 L 13.3334 14.1666" stroke-linecap="round" />
</g>
</g>
</g>
</svg>