<?xml version="1.0" encoding="UTF-8" standalone="no" ?>
<!DOCTYPE svg PUBLIC "-//W3C//DTD SVG 1.1//EN" "http://www.w3.org/Graphics/SVG/1.1/DTD/svg11.dtd">
<svg xmlns="http://www.w3.org/2000/svg" xmlns:xlink="http://www.w3.org/1999/xlink" version="1.1" width="1080" height="1080" viewBox="0 0 1080 1080" xml:space="preserve">
<desc>Created with Fabric.js 5.2.4</desc>
<defs>
</defs>
<g transform="matrix(1 0 0 1 540 540)" id="8d2b6fbe-8d69-4666-a186-e2c1dba72a6d"  >
<rect style="stroke: none; stroke-width: 1; stroke-dasharray: none; stroke-linecap: butt; stroke-dashoffset: 0; stroke-linejoin: miter; stroke-miterlimit: 4; fill: rgb(255,255,255); fill-rule: nonzero; opacity: 1; visibility: hidden;" vector-effect="non-scaling-stroke"  x="-540" y="-540" rx="0" ry="0" width="1080" height="1080" />
</g>
<g transform="matrix(1 0 0 1 540 540)" id="03753120-4a5e-498a-b3ac-270f64a52c20"  >
</g>
<g transform="matrix(45 0 0 45 540 540)"  >
<path style="stroke: none; stroke-width: 1; stroke-dasharray: none; stroke-linecap: butt; stroke-dashoffset: 0; stroke-linejoin: miter; stroke-miterlimit: 4; fill: rgb(0,126,87); fill-rule: nonzero; opacity: 1;"  transform=" translate(-12, -12)" d="M 22.669 10.257 L 12.669 1.2569999999999997 C 12.288684298569322 0.9146832042571229 11.711315701430678 0.914683204257123 11.331 1.2570000000000001 L 1.3309999999999995 10.257 C 0.9335676737398353 10.629321499402227 0.907130778954145 11.251208644851399 1.2715310090140215 11.65591622472358 C 1.6359312390738983 12.060623804595759 2.2571750178639616 12.099336830768783 2.6689999999999996 11.743 L 12 3.345 L 21.331 11.745000000000001 C 21.742824982136035 12.101336830768794 22.36406876092611 12.062623804595775 22.728468990985988 11.657916224723591 C 23.09286922104587 11.253208644851405 23.066432326260173 10.631321499402226 22.669 10.259 Z M 20 13 C 19.447715250169207 13 19 13.447715250169207 19 14 L 19 19.774 C 18.999448576047847 20.45087256443789 18.45087256443789 20.999448576047847 17.774 21 L 6.226 21 C 5.549127435562109 20.99944857604785 5.000551423952151 20.45087256443789 5 19.774 L 5 14 C 5 13.447715250169207 4.552284749830793 13 4 13 C 3.4477152501692068 13 3 13.447715250169207 3 14 L 3 19.774 C 3.0016539107559854 21.554985080832505 4.445014919167496 22.998346089244016 6.226 23 L 17.774 23 C 19.554985080832505 22.998346089244013 20.998346089244016 21.554985080832502 21 19.774 L 21 14 C 21 13.447715250169207 20.552284749830793 13 20 13 Z" stroke-linecap="round" />
</g>
</svg>