<svg xmlns="http://www.w3.org/2000/svg" width="195" height="53" viewBox="0 0 195 53" fill="none"><path d="M193 21.6999C191.898 16.147 188.903 11.1483 184.526 7.5559C180.15 3.96355 174.663 2 169 2C163.337 2 157.85 3.96355 153.474 7.5559C149.097 11.1483 146.102 16.147 145 21.6999" stroke="#331603" stroke-width="3" stroke-miterlimit="10" stroke-linecap="round"></path><path d="M145.711 34.0405C147.299 38.9671 150.409 43.2632 154.594 46.3106C158.779 49.3581 163.823 51 169 51C174.177 51 179.221 49.3581 183.406 46.3106C187.591 43.2632 190.701 38.9671 192.289 34.0405" stroke="#331603" stroke-width="3" stroke-miterlimit="10" stroke-linecap="round"></path><path d="M183.687 24.8268C182.553 22.8564 180.503 21.6003 177.912 21.2848C175.418 20.9871 172.699 21.5973 170.261 23.0141L170.03 23.151C169.909 22.6405 169.757 22.1377 169.578 21.6449C168.613 18.981 166.915 16.7516 164.82 15.3706C162.634 13.9359 160.258 13.5847 158.134 14.3497C156.01 15.1146 154.424 16.9421 153.667 19.4572C152.936 21.8741 153.075 24.675 154.028 27.3359C154.98 29.9969 156.69 32.2292 158.785 33.6103C160.089 34.5065 161.626 35 163.205 35.03C163.719 35.0303 164.231 34.9704 164.732 34.8514C164.84 35.1147 164.967 35.3703 165.11 35.6164C166.24 37.5868 168.291 38.8458 170.882 39.1584C171.301 39.2086 171.723 39.2335 172.145 39.2328C174.395 39.2027 176.597 38.5808 178.533 37.4291C180.974 36.0123 182.861 33.9526 183.858 31.628C184.885 29.2111 184.828 26.7972 183.698 24.8268H183.687ZM159.368 15.9153C160.785 15.6027 162.344 15.948 163.823 16.9213C165.598 18.0851 167.027 19.9871 167.856 22.2789C168.096 22.9402 168.278 23.6215 168.4 24.3148C167.248 25.2536 166.274 26.394 165.524 27.6812C164.889 26.059 163.766 24.677 162.312 23.7284C161.391 23.1258 160.637 22.2986 160.12 21.3238C159.602 20.3491 159.339 19.2585 159.353 18.1536L159.368 15.9153ZM159.797 32.0595C158.022 30.8957 156.59 28.9938 155.761 26.7019C154.933 24.4101 154.818 22.0289 155.43 19.99C155.772 18.723 156.504 17.5977 157.522 16.7755L157.507 18.1208C157.49 19.5372 157.829 20.935 158.493 22.184C159.157 23.433 160.125 24.4926 161.306 25.2643C162.226 25.8669 162.98 26.6941 163.498 27.6689C164.015 28.6437 164.279 29.7343 164.264 30.8392V31.4077C164.203 31.9566 164.203 32.5107 164.264 33.0596C162.85 33.3811 161.285 33.0388 159.797 32.0595ZM166.643 29.5415C167.474 27.583 169.089 25.8328 171.187 24.6154C172.842 23.6268 174.724 23.0902 176.648 23.0587C176.999 23.0585 177.35 23.0794 177.699 23.1213C178.997 23.2406 180.225 23.7698 181.207 24.6333L179.888 24.8535C178.499 25.0833 177.19 25.6627 176.083 26.538C174.976 27.4133 174.107 28.5561 173.557 29.8599C173.128 30.8775 172.45 31.7692 171.586 32.452C170.722 33.1348 169.7 33.5865 168.616 33.765L166.433 34.1282C165.879 32.7798 165.95 31.1755 166.643 29.5415ZM182.163 30.9017C181.332 32.8602 179.719 34.6104 177.622 35.8277C175.524 37.0451 173.211 37.5779 171.113 37.316C169.814 37.1966 168.586 36.6674 167.604 35.8039L168.924 35.5837C170.313 35.354 171.621 34.7748 172.728 33.9001C173.835 33.0254 174.704 31.8834 175.255 30.5802C175.684 29.5627 176.362 28.671 177.226 27.9882C178.09 27.3054 179.111 26.8536 180.196 26.6751L182.379 26.309C182.932 27.6574 182.861 29.2617 182.169 30.8957L182.163 30.9017Z" fill="#331603"></path><path d="M3.72688 31.032C3.20421 31.032 2.72421 30.8987 2.28688 30.632C1.84954 30.3653 1.49754 30.008 1.23088 29.56C0.974875 29.1013 0.846875 28.6053 0.846875 28.072C0.846875 27.6133 0.958875 27.1493 1.18288 26.68C1.40688 26.2107 1.72154 25.7787 2.12688 25.384L2.65488 24.856L2.14288 24.376L3.18288 23.176L5.10288 25.032C5.63621 25.544 6.02021 26.0347 6.25488 26.504C6.48954 26.9733 6.60688 27.496 6.60688 28.072C6.60688 28.6053 6.47354 29.1013 6.20688 29.56C5.95088 30.008 5.60421 30.3653 5.16688 30.632C4.72954 30.8987 4.24954 31.032 3.72688 31.032ZM2.28688 28.072C2.28688 28.4453 2.42554 28.7653 2.70288 29.032C2.98021 29.288 3.32154 29.416 3.72688 29.416C4.13221 29.416 4.46821 29.288 4.73488 29.032C5.01221 28.7653 5.15088 28.4453 5.15088 28.072C5.15088 27.784 5.08154 27.512 4.94288 27.256C4.80421 26.9893 4.52688 26.6533 4.11088 26.248L3.74288 25.896L3.21488 26.408C2.88421 26.7387 2.64421 27.0373 2.49488 27.304C2.35621 27.56 2.28688 27.816 2.28688 28.072ZM8.99025 33.496C10.3556 33.208 11.2996 32.9787 11.8223 32.808C12.3556 32.648 12.7236 32.4347 12.9263 32.168C13.1396 31.912 13.2249 31.5227 13.1823 31H11.2143C10.3503 31 9.66225 30.7333 9.15025 30.2C8.63825 29.656 8.38225 28.9307 8.38225 28.024C8.38225 27.4587 8.50492 26.9253 8.75025 26.424C8.99558 25.912 9.34225 25.5067 9.79025 25.208C10.2383 24.8987 10.7449 24.744 11.3103 24.744C12.1316 24.744 12.8196 25.064 13.3743 25.704C13.9289 26.3333 14.2649 27.1547 14.3823 28.168L14.5103 29.336H15.4703L15.5663 30.168L15.4703 31H15.4223H14.6863L14.7023 31.352C14.7023 32.1307 14.5156 32.744 14.1423 33.192C13.7796 33.64 13.2303 33.9973 12.4943 34.264C11.7583 34.5413 10.6916 34.824 9.29425 35.112L8.99025 33.496ZM9.87025 28.024C9.87025 28.4613 9.97692 28.792 10.1903 29.016C10.4036 29.2293 10.7449 29.336 11.2143 29.336H13.0063L12.8943 28.36C12.8303 27.7307 12.6596 27.2507 12.3823 26.92C12.1049 26.5787 11.7476 26.408 11.3103 26.408C10.8623 26.408 10.5103 26.568 10.2543 26.888C9.99825 27.208 9.87025 27.5867 9.87025 28.024ZM20.4146 34.968C19.316 34.872 18.4253 34.4933 17.7426 33.832C17.0706 33.1813 16.6706 32.2373 16.5426 31H16.4466H15.3106V29.336H16.6546C16.9106 28.2587 17.4333 26.616 18.2226 24.408L19.1186 23.976L20.2866 24.296C20.7986 24.4347 21.2093 24.7653 21.5186 25.288C21.828 25.8107 21.9826 26.3813 21.9826 27C21.9826 27.4587 21.8973 27.88 21.7266 28.264C21.428 28.9147 20.948 29.4693 20.2866 29.928C19.6253 30.376 18.852 30.6853 17.9666 30.856C18.0413 31.4853 18.2653 32.0187 18.6386 32.456C19.012 32.8933 19.46 33.1493 19.9826 33.224L20.0146 32.088C20.0786 31.256 20.3506 30.5893 20.8306 30.088C21.3213 29.5867 21.9133 29.336 22.6066 29.336H23.1826L23.2786 30.168L23.1826 31H22.6706C22.3506 31 22.0733 31.1227 21.8386 31.368C21.6146 31.6133 21.492 31.9173 21.4706 32.28L21.3746 33.976L20.4146 34.968ZM18.1586 29.288C18.7346 29.2027 19.2253 29.0213 19.6306 28.744C20.0466 28.4667 20.3346 28.136 20.4946 27.752C20.58 27.528 20.6226 27.3147 20.6226 27.112C20.6226 26.824 20.5533 26.568 20.4146 26.344C20.2866 26.12 20.1106 25.9707 19.8866 25.896L19.3266 25.736C18.7933 27.2507 18.404 28.4347 18.1586 29.288ZM23.0294 29.336H26.2294C26.848 29.336 27.3067 29.3147 27.6054 29.272C27.9147 29.2293 28.128 29.1493 28.2454 29.032C28.3627 28.904 28.4214 28.7173 28.4214 28.472C28.4214 28.344 28.416 28.2427 28.4054 28.168C27.7547 28.2427 27.1254 28.28 26.5174 28.28C25.7067 28.28 25.0614 28.04 24.5814 27.56C24.1014 27.08 23.8614 26.4293 23.8614 25.608C23.8614 25.0213 23.968 24.4827 24.1814 23.992C24.3947 23.4907 24.7147 23.0907 25.1414 22.792C25.568 22.4933 26.08 22.344 26.6774 22.344C27.488 22.344 28.16 22.6427 28.6934 23.24C29.2374 23.8373 29.552 24.6267 29.6374 25.608L29.8134 27.992C29.8347 28.2693 29.8454 28.4613 29.8454 28.568C29.8454 29.1547 29.7334 29.624 29.5094 29.976C29.296 30.3173 28.9227 30.5733 28.3894 30.744C27.8667 30.9147 27.136 31 26.1974 31H23.0294V29.336ZM24.3254 19.464H25.8934V21.048H24.3254V19.464ZM25.2054 25.464C25.2054 25.8587 25.3174 26.1733 25.5414 26.408C25.776 26.632 26.1014 26.744 26.5174 26.744C27.2 26.744 27.7867 26.7013 28.2774 26.616L28.1974 25.736C28.1227 25.1387 27.9467 24.6747 27.6694 24.344C27.392 24.0027 27.04 23.832 26.6134 23.832C26.176 23.832 25.8294 23.992 25.5734 24.312C25.328 24.632 25.2054 25.016 25.2054 25.464ZM27.3014 19.464H28.8694V21.048H27.3014V19.464ZM45.6181 31C45.2981 31 45.0261 30.9467 44.8021 30.84C44.8128 30.9253 44.8181 31.0533 44.8181 31.224C44.8181 31.9387 44.6528 32.5253 44.3221 32.984C44.0021 33.4533 43.5541 33.8213 42.9781 34.088C42.4128 34.3547 41.6981 34.584 40.8341 34.776C40.3115 34.8933 39.8368 34.952 39.4101 34.952C38.5781 34.952 37.8581 34.7653 37.2501 34.392C36.6421 34.0187 36.1781 33.4907 35.8581 32.808C35.5381 32.1253 35.3781 31.3307 35.3781 30.424C35.3781 29.4 35.5808 28.312 35.9861 27.16L37.3941 27.72C37.0315 28.744 36.8501 29.6613 36.8501 30.472C36.8501 31.368 37.0688 32.0613 37.5061 32.552C37.9541 33.0427 38.5888 33.288 39.4101 33.288C39.7835 33.288 40.1461 33.2453 40.4981 33.16C41.2448 32.9893 41.7941 32.84 42.1461 32.712C42.5088 32.584 42.7915 32.4027 42.9941 32.168C43.2075 31.9333 43.3141 31.5973 43.3141 31.16C43.3141 31.0747 43.3035 30.9253 43.2821 30.712L42.6421 26.328L44.0981 26.088C44.2581 27.1013 44.3648 27.752 44.4181 28.04C44.5035 28.5093 44.6315 28.8453 44.8021 29.048C44.9835 29.24 45.2448 29.336 45.5861 29.336H46.0341L46.1301 30.168L46.0341 31H45.6181ZM39.0421 25.336H40.8181V27.096H39.0421V25.336ZM45.8731 29.336H48.6891C49.1905 29.336 49.5798 29.2507 49.8571 29.08C50.1451 28.8987 50.2891 28.6 50.2891 28.184C50.2891 27.96 50.2518 27.7307 50.1771 27.496L49.5531 25.112L50.9771 24.696L51.6331 27.16C51.7291 27.544 51.7771 27.9013 51.7771 28.232C51.7771 29.096 51.4838 29.7733 50.8971 30.264C50.3105 30.7547 49.5745 31 48.6891 31H45.8731V29.336ZM46.2411 32.536H47.8091V34.12H46.2411V32.536ZM49.2171 32.536H50.7851V34.12H49.2171V32.536ZM62.1141 31C61.2075 31 60.5461 30.728 60.1301 30.184C59.6181 30.728 58.9195 31 58.0341 31H54.1301V29.336H58.0341C58.5568 29.336 58.9088 29.2293 59.0901 29.016C59.2715 28.792 59.3515 28.5253 59.3301 28.216L59.0261 20.312L60.5141 20.232L60.8021 27.8L60.8181 27.928C60.8501 28.4933 60.9781 28.872 61.2021 29.064C61.4261 29.2453 61.7301 29.336 62.1141 29.336H62.4341L62.5301 30.168L62.4341 31H62.1141ZM54.8341 20.84L56.1141 28.2L54.6581 28.504L53.3781 21.144L54.8341 20.84ZM62.2794 29.336H63.5434C64.0554 29.336 64.45 29.2507 64.7274 29.08C65.0154 28.9093 65.1594 28.616 65.1594 28.2C65.1594 27.9867 65.122 27.752 65.0474 27.496L64.4074 25.112L65.8474 24.696L66.4874 27.08C66.594 27.464 66.6474 27.8373 66.6474 28.2C66.6474 29.0747 66.354 29.7627 65.7674 30.264C65.1807 30.7547 64.4394 31 63.5434 31H62.2794V29.336ZM63.5594 21.544H65.3354V23.32H63.5594V21.544ZM69.0851 21.944L70.5731 21.864L70.9251 30.984L69.4371 31.048L69.0851 21.944ZM67.4531 21.16C67.4531 20.744 67.5758 20.4133 67.8211 20.168C68.0665 19.912 68.3918 19.784 68.7971 19.784C68.8825 19.784 68.9998 19.7947 69.1491 19.816L70.7651 20.12C70.8185 20.1307 70.8878 20.136 70.9731 20.136C71.1545 20.136 71.2931 20.088 71.3891 19.992C71.4851 19.896 71.5331 19.768 71.5331 19.608V19.528L72.3171 19.464V19.768C72.3171 20.184 72.1891 20.52 71.9331 20.776C71.6878 21.032 71.3625 21.16 70.9571 21.16C70.8825 21.16 70.7705 21.1493 70.6211 21.128L69.0051 20.824C68.9518 20.8133 68.8771 20.808 68.7811 20.808C68.5998 20.808 68.4611 20.856 68.3651 20.952C68.2798 21.0373 68.2371 21.16 68.2371 21.32V21.416L67.4531 21.464V21.16ZM79.8831 31.032C79.3605 31.032 78.8805 30.8987 78.4431 30.632C78.0058 30.3653 77.6538 30.008 77.3871 29.56C77.1311 29.1013 77.0031 28.6053 77.0031 28.072C77.0031 27.6133 77.1151 27.1493 77.3391 26.68C77.5631 26.2107 77.8778 25.7787 78.2831 25.384L78.8111 24.856L78.2991 24.376L79.3391 23.176L81.2591 25.032C81.7925 25.544 82.1765 26.0347 82.4111 26.504C82.6458 26.9733 82.7631 27.496 82.7631 28.072C82.7631 28.6053 82.6298 29.1013 82.3631 29.56C82.1071 30.008 81.7605 30.3653 81.3231 30.632C80.8858 30.8987 80.4058 31.032 79.8831 31.032ZM78.4431 28.072C78.4431 28.4453 78.5818 28.7653 78.8591 29.032C79.1365 29.288 79.4778 29.416 79.8831 29.416C80.2885 29.416 80.6245 29.288 80.8911 29.032C81.1685 28.7653 81.3071 28.4453 81.3071 28.072C81.3071 27.784 81.2378 27.512 81.0991 27.256C80.9605 26.9893 80.6831 26.6533 80.2671 26.248L79.8991 25.896L79.3711 26.408C79.0405 26.7387 78.8005 27.0373 78.6511 27.304C78.5125 27.56 78.4431 27.816 78.4431 28.072ZM87.8825 31C87.1678 31 86.6025 30.8933 86.1865 30.68C85.7705 30.4667 85.4665 30.1253 85.2745 29.656C85.0825 29.176 84.9705 28.5147 84.9385 27.672L84.6505 20.312L86.1385 20.248L86.4265 27.672C86.4478 28.184 86.4905 28.552 86.5545 28.776C86.6292 28.9893 86.7572 29.1387 86.9385 29.224C87.1305 29.2987 87.4452 29.336 87.8825 29.336H88.0425L88.1385 30.168L88.0425 31H87.8825ZM95.9208 31C95.4514 31 95.0141 30.8987 94.6088 30.696C94.2034 30.4827 93.8141 30.1733 93.4408 29.768C93.3554 29.9387 93.2434 30.0933 93.1048 30.232C92.6781 30.744 92.0594 31 91.2488 31H87.8887V29.336H91.2648C91.5101 29.336 91.7021 29.2827 91.8408 29.176C92.0754 29.0053 92.1927 28.776 92.1927 28.488C92.1927 28.3067 92.1394 28.1307 92.0328 27.96L88.4808 22.936L88.8168 21.688L94.5928 19.56L95.1208 21.112L90.3368 22.856L93.1528 26.968L93.2648 27.144C93.7981 27.9973 94.2514 28.5787 94.6248 28.888C95.0088 29.1867 95.4408 29.336 95.9208 29.336H96.1448L96.2408 30.168L96.1448 31H95.9208ZM92.8648 17.816L93.2328 18.856L89.3448 20.264L88.9608 19.224L92.8648 17.816ZM104.591 31C103.791 31 103.145 30.7227 102.655 30.168C102.175 30.7227 101.508 31 100.655 31C100.26 31 99.8972 30.9253 99.5665 30.776C99.2465 30.6267 98.9692 30.4187 98.7345 30.152C98.2438 30.7173 97.5772 31 96.7345 31H95.9825V29.336H96.7345C97.2358 29.336 97.5772 29.24 97.7585 29.048C97.9398 28.856 98.0358 28.6053 98.0465 28.296V28.2V26.216H99.4385V28.2V28.296C99.4492 28.6267 99.5558 28.8827 99.7585 29.064C99.9612 29.2453 100.26 29.336 100.655 29.336C101.177 29.336 101.524 29.2293 101.695 29.016C101.876 28.8027 101.967 28.5307 101.967 28.2V26.216H103.359V28.2V28.296C103.359 28.6267 103.46 28.8827 103.663 29.064C103.876 29.2453 104.185 29.336 104.591 29.336C105.465 29.336 105.903 28.968 105.903 28.232C105.903 28.008 105.865 27.7627 105.791 27.496L105.151 25.112L106.591 24.696L107.231 27.08C107.337 27.4747 107.391 27.8587 107.391 28.232C107.391 28.7973 107.263 29.2933 107.007 29.72C106.761 30.136 106.425 30.456 105.999 30.68C105.583 30.8933 105.113 31 104.591 31ZM100.303 22.6H101.983V24.28H100.286L100.303 22.6ZM101.887 20.456H103.407V21.896H101.887V20.456ZM103.295 22.6H104.959L104.975 24.28H103.279L103.295 22.6ZM109.772 33.496C111.02 33.24 111.91 33.032 112.444 32.872C112.977 32.7227 113.361 32.5307 113.596 32.296C113.841 32.072 113.964 31.7467 113.964 31.32C113.964 31.1493 113.958 31.016 113.948 30.92L113.932 30.84C113.27 30.9467 112.62 31 111.98 31C111.446 31 110.961 30.872 110.524 30.616C110.097 30.36 109.761 30.008 109.516 29.56C109.281 29.112 109.164 28.6 109.164 28.024C109.164 27.4587 109.286 26.9253 109.532 26.424C109.777 25.9227 110.118 25.5173 110.556 25.208C111.004 24.8987 111.516 24.744 112.092 24.744C112.913 24.744 113.601 25.0587 114.156 25.688C114.71 26.3173 115.046 27.144 115.164 28.168L115.436 30.744C115.457 31.0427 115.468 31.256 115.468 31.384C115.468 32.152 115.281 32.76 114.908 33.208C114.545 33.656 113.996 34.0133 113.26 34.28C112.524 34.5467 111.462 34.824 110.076 35.112L109.772 33.496ZM110.652 28.008C110.652 28.424 110.769 28.7493 111.004 28.984C111.238 29.2187 111.564 29.336 111.98 29.336C112.598 29.336 113.196 29.2827 113.772 29.176L113.692 28.376C113.628 27.7467 113.452 27.2613 113.164 26.92C112.876 26.5787 112.513 26.408 112.076 26.408C111.638 26.408 111.292 26.568 111.036 26.888C110.78 27.1973 110.652 27.5707 110.652 28.008ZM121.375 31C121.109 31 120.89 30.9787 120.719 30.936C120.741 31.1707 120.751 31.336 120.751 31.432C120.751 32.392 120.453 33.128 119.855 33.64C119.258 34.152 118.373 34.568 117.199 34.888L116.415 35.096L116.031 33.496L116.815 33.288C117.402 33.128 117.855 32.9787 118.175 32.84C118.506 32.7013 118.767 32.5093 118.959 32.264C119.162 32.0293 119.263 31.7147 119.263 31.32C119.263 31.2453 119.253 31.112 119.231 30.92L118.591 26.312L120.063 26.088L120.191 27.064C120.298 27.64 120.357 27.9867 120.367 28.104C120.453 28.6053 120.559 28.936 120.687 29.096C120.826 29.256 121.055 29.336 121.375 29.336H121.487L121.583 30.168L121.487 31H121.375ZM121.373 29.336H124.573C125.192 29.336 125.65 29.3147 125.949 29.272C126.258 29.2293 126.472 29.1493 126.589 29.032C126.706 28.904 126.765 28.7173 126.765 28.472C126.765 28.344 126.76 28.2427 126.749 28.168C126.098 28.2427 125.469 28.28 124.861 28.28C124.05 28.28 123.405 28.04 122.925 27.56C122.445 27.08 122.205 26.4293 122.205 25.608C122.205 25.0213 122.312 24.4827 122.525 23.992C122.738 23.4907 123.058 23.0907 123.485 22.792C123.912 22.4933 124.424 22.344 125.021 22.344C125.832 22.344 126.504 22.6427 127.037 23.24C127.581 23.8373 127.896 24.6267 127.981 25.608L128.157 27.992C128.178 28.2693 128.189 28.4613 128.189 28.568C128.189 29.1547 128.077 29.624 127.853 29.976C127.64 30.3173 127.266 30.5733 126.733 30.744C126.21 30.9147 125.48 31 124.541 31H121.373V29.336ZM123.549 25.464C123.549 25.8587 123.661 26.1733 123.885 26.408C124.12 26.632 124.445 26.744 124.861 26.744C125.544 26.744 126.13 26.7013 126.621 26.616L126.541 25.736C126.466 25.1387 126.29 24.6747 126.013 24.344C125.736 24.0027 125.384 23.832 124.957 23.832C124.52 23.832 124.173 23.992 123.917 24.312C123.672 24.632 123.549 25.016 123.549 25.464ZM124.093 19.016H125.869V20.776H124.093V19.016Z" fill="#331603"></path></svg>