<?xml version="1.0" encoding="UTF-8" standalone="no" ?>
<!DOCTYPE svg PUBLIC "-//W3C//DTD SVG 1.1//EN" "http://www.w3.org/Graphics/SVG/1.1/DTD/svg11.dtd">
<svg xmlns="http://www.w3.org/2000/svg" xmlns:xlink="http://www.w3.org/1999/xlink" version="1.1" width="1080" height="1080" viewBox="0 0 1080 1080" xml:space="preserve">
<desc>Created with Fabric.js 5.2.4</desc>
<defs>
</defs>
<rect x="0" y="0" width="100%" height="100%" fill="transparent"></rect>
<g transform="matrix(1 0 0 1 540 540)" id="8d2b6fbe-8d69-4666-a186-e2c1dba72a6d"  >
<rect style="stroke: none; stroke-width: 1; stroke-dasharray: none; stroke-linecap: butt; stroke-dashoffset: 0; stroke-linejoin: miter; stroke-miterlimit: 4; fill: rgb(255,255,255); fill-rule: nonzero; opacity: 1; visibility: hidden;" vector-effect="non-scaling-stroke"  x="-540" y="-540" rx="0" ry="0" width="1080" height="1080" />
</g>
<g transform="matrix(1 0 0 1 540 540)" id="03753120-4a5e-498a-b3ac-270f64a52c20"  >
</g>
<g transform="matrix(54 0 0 54 540 540)"  >
<g style=""   >
		<g transform="matrix(1 0 0 1 -0.01 0)"  >
<path style="stroke: rgb(0,126,87); stroke-width: 1.5; stroke-dasharray: none; stroke-linecap: round; stroke-dashoffset: 0; stroke-linejoin: round; stroke-miterlimit: 10; fill: none; fill-rule: nonzero; opacity: 1;" vector-effect="non-scaling-stroke"  transform=" translate(-9.99, -10)" d="M 7.82508 5.00829 C 7.97508 5.21663 8.08341 5.40829 8.15841 5.59163 C 8.23341 5.76663 8.27508 5.94163 8.27508 6.09996 C 8.27508 6.29996 8.21675 6.49996 8.10008 6.69163 C 7.99175 6.88329 7.83341 7.08329 7.63341 7.28329 L 7.00008 7.94163 C 6.90841 8.03329 6.86675 8.14163 6.86675 8.27496 C 6.86675 8.34163 6.87508 8.39996 6.89175 8.46663 C 6.91675 8.53329 6.94175 8.58329 6.95842 8.63329 C 7.10842 8.90829 7.36675 9.26663 7.73341 9.69996 C 8.10841 10.1333 8.50841 10.575 8.94175 11.0166 C 9.39175 11.4583 9.82508 11.8666 10.2667 12.2416 C 10.7001 12.6083 11.0584 12.8583 11.3417 13.0083 C 11.3834 13.025 11.4334 13.05 11.4917 13.075 C 11.5584 13.1 11.6251 13.1083 11.7001 13.1083 C 11.8417 13.1083 11.9501 13.0583 12.0417 12.9666 L 12.6751 12.3416 C 12.8834 12.1333 13.0834 11.975 13.2751 11.875 C 13.4667 11.7583 13.6584 11.7 13.8667 11.7 C 14.0251 11.7 14.1917 11.7333 14.3751 11.8083 C 14.5584 11.8833 14.7501 11.9916 14.9584 12.1333 L 17.7167 14.0916 C 17.9334 14.2416 18.0834 14.4166 18.1751 14.625 C 18.2584 14.8333 18.3084 15.0416 18.3084 15.275 C 18.3084 15.575 18.2417 15.8833 18.1001 16.1833 C 17.9584 16.4833 17.7751 16.7666 17.5334 17.0333 C 17.1251 17.4833 16.6751 17.8083 16.1667 18.0166 C 15.6667 18.225 15.1251 18.3333 14.5417 18.3333 C 13.6917 18.3333 12.7834 18.1333 11.8251 17.725 C 10.8667 17.3166 9.90842 16.7666 8.95842 16.075 C 8.00008 15.375 7.09175 14.6 6.22508 13.7416 C 5.36675 12.875 4.59175 11.9666 3.90008 11.0166 C 3.21675 10.0666 2.66675 9.11663 2.26675 8.17496 C 1.86675 7.22496 1.66675 6.31663 1.66675 5.44996 C 1.66675 4.88329 1.76675 4.34163 1.96675 3.84163 C 2.16675 3.33329 2.48341 2.86663 2.92508 2.44996 C 3.45841 1.92496 4.04175 1.66663 4.65841 1.66663 C 4.89175 1.66663 5.12508 1.71663 5.33341 1.81663 C 5.55008 1.91663 5.74175 2.06663 5.89175 2.28329" stroke-linecap="round" />
</g>
		<g transform="matrix(1 0 0 1 3.96 -3.96)"  >
<path style="stroke: rgb(0,126,87); stroke-width: 1.5; stroke-dasharray: none; stroke-linecap: round; stroke-dashoffset: 0; stroke-linejoin: round; stroke-miterlimit: 4; fill: none; fill-rule: nonzero; opacity: 1;" vector-effect="non-scaling-stroke"  transform=" translate(-13.96, -6.04)" d="M 15.4167 7.50004 C 15.4167 7.00004 15.025 6.23337 14.4417 5.60837 C 13.9083 5.03337 13.2 4.58337 12.5 4.58337" stroke-linecap="round" />
</g>
		<g transform="matrix(1 0 0 1 3.34 -8.21)"  >
<path style="stroke: rgb(0,126,87); stroke-width: 1.5; stroke-dasharray: none; stroke-linecap: round; stroke-dashoffset: 0; stroke-linejoin: round; stroke-miterlimit: 4; fill: none; fill-rule: nonzero; opacity: 1;" vector-effect="non-scaling-stroke"  transform=" translate(-13.34, -1.79)" d="M 14.175 1.90829 C 13.6417 1.74996 13.0833 1.66663 12.5 1.66663" stroke-linecap="round" />
</g>
		<g transform="matrix(1 0 0 1 7.09 -4.89)"  >
<path style="stroke: rgb(0,126,87); stroke-width: 1.5; stroke-dasharray: none; stroke-linecap: round; stroke-dashoffset: 0; stroke-linejoin: round; stroke-miterlimit: 4; fill: none; fill-rule: nonzero; opacity: 1;" vector-effect="non-scaling-stroke"  transform=" translate(-17.09, -5.11)" d="M 18.3334 7.49998 C 18.3334 5.52498 17.3501 3.77498 15.8501 2.72498" stroke-linecap="round" />
</g>
</g>
</g>
</svg>