<?xml version="1.0" encoding="UTF-8" standalone="no" ?>
<!DOCTYPE svg PUBLIC "-//W3C//DTD SVG 1.1//EN" "http://www.w3.org/Graphics/SVG/1.1/DTD/svg11.dtd">
<svg xmlns="http://www.w3.org/2000/svg" xmlns:xlink="http://www.w3.org/1999/xlink" version="1.1" width="1080" height="1080" viewBox="0 0 1080 1080" xml:space="preserve">
<desc>Created with Fabric.js 5.2.4</desc>
<defs>
</defs>
<rect x="0" y="0" width="100%" height="100%" fill="transparent"></rect>
<g transform="matrix(1 0 0 1 540 540)" id="8bdba176-a5b7-41b5-a543-745220543331"  >
<rect style="stroke: none; stroke-width: 1; stroke-dasharray: none; stroke-linecap: butt; stroke-dashoffset: 0; stroke-linejoin: miter; stroke-miterlimit: 4; fill: rgb(255,255,255); fill-rule: nonzero; opacity: 1; visibility: hidden;" vector-effect="non-scaling-stroke"  x="-540" y="-540" rx="0" ry="0" width="1080" height="1080" />
</g>
<g transform="matrix(1 0 0 1 540 540)" id="36c49c95-4be3-4b1c-b891-54e98aabc533"  >
</g>
<g transform="matrix(6.32 0 0 6.32 540 540)"  >
<g style=""   >
		<g transform="matrix(1 0 0 1 36.24 -25.37)" clip-path="url(#CLIPPATH_82)"  >
<clipPath id="CLIPPATH_82" >
	<rect transform="matrix(1 0 0 1 -36.24 25.37)" id="clip0_110_1504" x="-85.5" y="-70" rx="0" ry="0" width="171" height="140" />
</clipPath>
<path style="stroke: rgb(27,27,29); stroke-width: 1; stroke-dasharray: none; stroke-linecap: butt; stroke-dashoffset: 0; stroke-linejoin: miter; stroke-miterlimit: 4; fill: rgb(27,27,29); fill-rule: nonzero; opacity: 1;" vector-effect="non-scaling-stroke"  transform=" translate(-121.74, -44.63)" d="M 117.843 22.5724 C 111.043 24.0461 103.907 29.0782 100.926 35.548 C 99.5623 38.7363 98.8951 42.1795 98.9695 45.6469 C 99.0438 49.1143 99.8579 52.5257 101.357 55.6525 C 101.501 55.952 101.657 56.2635 101.824 56.563 C 106.517 65.3452 116.37 68.7958 126.331 66.4475 C 134.185 64.5904 138.148 60.9361 141.369 55.8681 C 151.389 40.1967 135.921 18.5947 117.843 22.5724 Z M 132.832 61.9186 C 124.033 67.8014 111.426 66.5553 104.733 56.9824 C 102.941 54.3195 101.768 51.2879 101.302 48.1112 C 100.836 44.9344 101.088 41.6935 102.04 38.6272 C 103.094 35.3548 104.888 32.3696 107.282 29.9032 C 109.676 27.4369 112.606 25.5556 115.844 24.4056 C 120.28 23.3985 124.92 23.7963 129.121 25.5438 C 140.471 30.4081 146.445 45.2767 139.142 55.8322 C 137.427 58.2291 135.289 60.2919 132.832 61.9186 Z" stroke-linecap="round" />
</g>
		<g transform="matrix(1 0 0 1 9.48 5.71)" clip-path="url(#CLIPPATH_83)"  >
<clipPath id="CLIPPATH_83" >
	<rect transform="matrix(1 0 0 1 -9.48 -5.71)" id="clip0_110_1504" x="-85.5" y="-70" rx="0" ry="0" width="171" height="140" />
</clipPath>
<path style="stroke: rgb(27,27,29); stroke-width: 1; stroke-dasharray: none; stroke-linecap: butt; stroke-dashoffset: 0; stroke-linejoin: miter; stroke-miterlimit: 4; fill: rgb(27,27,29); fill-rule: nonzero; opacity: 1;" vector-effect="non-scaling-stroke"  transform=" translate(-94.98, -75.71)" d="M 86.9185 83.8681 C 86.7811 83.7271 86.7041 83.5379 86.7041 83.3409 C 86.7041 83.1439 86.7811 82.9548 86.9185 82.8138 C 91.7074 77.4821 96.9034 72.5459 102.135 67.6456 C 102.196 67.5703 102.273 67.5099 102.36 67.4688 C 102.447 67.4277 102.543 67.4071 102.639 67.4085 C 102.736 67.41 102.831 67.4334 102.917 67.477 C 103.003 67.5207 103.078 67.5834 103.136 67.6605 C 103.194 67.7375 103.234 67.8268 103.253 67.9216 C 103.271 68.0164 103.268 68.1141 103.243 68.2074 C 103.218 68.3007 103.172 68.3871 103.109 68.46 C 103.046 68.5329 102.966 68.5904 102.878 68.6281 C 98.7232 72.8694 94.3773 76.931 90.3426 81.3041 C 89.337 81.9511 88.1876 84.6828 86.9185 83.8681 Z" stroke-linecap="round" />
</g>
		<g transform="matrix(1 0 0 1 24.1 8.77)" clip-path="url(#CLIPPATH_84)"  >
<clipPath id="CLIPPATH_84" >
	<rect transform="matrix(1 0 0 1 -24.1 -8.77)" id="clip0_110_1504" x="-85.5" y="-70" rx="0" ry="0" width="171" height="140" />
</clipPath>
<path style="stroke: rgb(27,27,29); stroke-width: 1; stroke-dasharray: none; stroke-linecap: butt; stroke-dashoffset: 0; stroke-linejoin: miter; stroke-miterlimit: 4; fill: rgb(27,27,29); fill-rule: nonzero; opacity: 1;" vector-effect="non-scaling-stroke"  transform=" translate(-109.6, -78.77)" d="M 108.038 83.3051 C 107.679 82.754 108.457 81.8914 108.541 81.2683 C 109.403 79.0039 110.025 76.6556 110.852 74.3792 C 110.935 74.0796 111.414 74.2474 111.199 74.511 C 110.313 77.2307 109.523 79.9983 108.529 82.6821 C 108.421 82.8978 108.409 83.425 108.038 83.3051 Z" stroke-linecap="round" />
</g>
		<g transform="matrix(1 0 0 1 33.66 13.15)" clip-path="url(#CLIPPATH_85)"  >
<clipPath id="CLIPPATH_85" >
	<rect transform="matrix(1 0 0 1 -33.66 -13.15)" id="clip0_110_1504" x="-85.5" y="-70" rx="0" ry="0" width="171" height="140" />
</clipPath>
<path style="stroke: rgb(27,27,29); stroke-width: 1; stroke-dasharray: none; stroke-linecap: butt; stroke-dashoffset: 0; stroke-linejoin: miter; stroke-miterlimit: 4; fill: rgb(27,27,29); fill-rule: nonzero; opacity: 1;" vector-effect="non-scaling-stroke"  transform=" translate(-119.16, -83.15)" d="M 118.322 91.021 C 116.993 91.021 119.316 81.3642 119.22 79.7348 C 119.519 79.0758 119.22 74.2234 120.417 75.4814 C 120.31 79.7587 119.579 84.036 119.22 88.3013 C 118.945 89.116 119.484 90.9252 118.322 91.021 Z" stroke-linecap="round" />
</g>
		<g transform="matrix(1 0 0 1 7.46 -7.25)" clip-path="url(#CLIPPATH_86)"  >
<clipPath id="CLIPPATH_86" >
	<rect transform="matrix(1 0 0 1 -7.46 7.25)" id="clip0_110_1504" x="-85.5" y="-70" rx="0" ry="0" width="171" height="140" />
</clipPath>
<path style="stroke: rgb(27,27,29); stroke-width: 1; stroke-dasharray: none; stroke-linecap: butt; stroke-dashoffset: 0; stroke-linejoin: miter; stroke-miterlimit: 4; fill: rgb(27,27,29); fill-rule: nonzero; opacity: 1;" vector-effect="non-scaling-stroke"  transform=" translate(-92.96, -62.75)" d="M 90.1513 64.7821 C 90.0536 64.7652 89.9634 64.7191 89.8924 64.6499 C 89.8215 64.5807 89.7731 64.4916 89.7537 64.3944 C 89.7342 64.2972 89.7447 64.1963 89.7836 64.1051 C 89.8225 64.014 89.8881 63.9367 89.9717 63.8835 C 91.983 62.8891 93.8507 61.1997 96.0536 60.7085 C 96.5923 60.996 95.0838 61.7508 94.8564 61.8227 C 93.1922 62.7333 91.7555 64.0872 90.1513 64.7821 Z" stroke-linecap="round" />
</g>
		<g transform="matrix(1 0 0 1 1.11 -19.01)" clip-path="url(#CLIPPATH_87)"  >
<clipPath id="CLIPPATH_87" >
	<rect transform="matrix(1 0 0 1 -1.11 19.01)" id="clip0_110_1504" x="-85.5" y="-70" rx="0" ry="0" width="171" height="140" />
</clipPath>
<path style="stroke: rgb(27,27,29); stroke-width: 1; stroke-dasharray: none; stroke-linecap: butt; stroke-dashoffset: 0; stroke-linejoin: miter; stroke-miterlimit: 4; fill: rgb(27,27,29); fill-rule: nonzero; opacity: 1;" vector-effect="non-scaling-stroke"  transform=" translate(-86.61, -50.99)" d="M 79.8193 52.0941 C 79.6876 50.5845 82.0222 51.0637 82.98 50.6683 C 83.5667 50.6683 95.8143 48.2002 92.9888 49.9854 C 89.2535 50.7282 85.5181 51.495 81.8187 52.3816 C 81.1602 52.5134 80.1186 53.0286 79.8193 52.0941 Z" stroke-linecap="round" />
</g>
		<g transform="matrix(1 0 0 1 2.06 -35.29)" clip-path="url(#CLIPPATH_88)"  >
<clipPath id="CLIPPATH_88" >
	<rect transform="matrix(1 0 0 1 -2.06 35.29)" id="clip0_110_1504" x="-85.5" y="-70" rx="0" ry="0" width="171" height="140" />
</clipPath>
<path style="stroke: rgb(27,27,29); stroke-width: 1; stroke-dasharray: none; stroke-linecap: butt; stroke-dashoffset: 0; stroke-linejoin: miter; stroke-miterlimit: 4; fill: rgb(27,27,29); fill-rule: nonzero; opacity: 1;" vector-effect="non-scaling-stroke"  transform=" translate(-87.56, -34.71)" d="M 94.8203 36.0275 C 90.1992 35.1436 85.5056 34.6943 80.8008 34.6856 C 80.6726 34.6838 80.5477 34.6446 80.4414 34.5728 C 80.3352 34.5011 80.2522 34.3998 80.2026 34.2815 C 80.153 34.1632 80.139 34.033 80.1623 33.9068 C 80.1857 33.7806 80.2453 33.664 80.3338 33.5713 C 81.4233 33.104 82.8241 33.7151 84.0093 33.6672 C 85.015 33.6911 96.4246 35.1648 94.8203 36.0275 Z" stroke-linecap="round" />
</g>
		<g transform="matrix(1 0 0 1 75.55 -25.37)" clip-path="url(#CLIPPATH_89)"  >
<clipPath id="CLIPPATH_89" >
	<rect transform="matrix(1 0 0 1 -75.55 25.37)" id="clip0_110_1504" x="-85.5" y="-70" rx="0" ry="0" width="171" height="140" />
</clipPath>
<path style="stroke: rgb(27,27,29); stroke-width: 1; stroke-dasharray: none; stroke-linecap: butt; stroke-dashoffset: 0; stroke-linejoin: miter; stroke-miterlimit: 4; fill: rgb(27,27,29); fill-rule: nonzero; opacity: 1;" vector-effect="non-scaling-stroke"  transform=" translate(-161.05, -44.63)" d="M 171.012 44.9773 C 171.013 44.8042 170.947 44.6374 170.829 44.5106 C 170.712 44.3838 170.55 44.3065 170.378 44.2944 C 164.176 43.7312 157.938 43.6713 151.713 43.6474 C 151.629 43.6351 151.543 43.6424 151.463 43.6687 C 151.382 43.695 151.308 43.7396 151.248 43.799 C 151.187 43.8584 151.141 43.931 151.113 44.0112 C 151.085 44.0913 151.076 44.1769 151.087 44.2611 C 151.097 44.3453 151.127 44.426 151.174 44.4968 C 151.221 44.5676 151.283 44.6266 151.357 44.6693 C 151.43 44.7119 151.512 44.737 151.597 44.7427 C 151.681 44.7483 151.766 44.7343 151.844 44.7017 C 157.005 44.9533 162.165 44.9653 167.325 45.3487 C 168.33 45.181 170.701 46.2473 171.012 44.9773 Z" stroke-linecap="round" />
</g>
		<g transform="matrix(1 0 0 1 53.54 11.57)" clip-path="url(#CLIPPATH_90)"  >
<clipPath id="CLIPPATH_90" >
	<rect transform="matrix(1 0 0 1 -53.54 -11.57)" id="clip0_110_1504" x="-85.5" y="-70" rx="0" ry="0" width="171" height="140" />
</clipPath>
<path style="stroke: rgb(27,27,29); stroke-width: 1; stroke-dasharray: none; stroke-linecap: butt; stroke-dashoffset: 0; stroke-linejoin: miter; stroke-miterlimit: 4; fill: rgb(27,27,29); fill-rule: nonzero; opacity: 1;" vector-effect="non-scaling-stroke"  transform=" translate(-139.04, -81.57)" d="M 144.314 92.7941 C 144.685 92.6263 144.398 90.9849 144.242 90.6135 C 141.536 83.9759 138.256 77.578 135 71.216 C 134.604 70.2335 133.024 70.0179 133.802 70.7727 C 136.293 76.1642 139.357 81.8912 141.692 87.3546 C 142.363 88.2891 143.632 93.1415 144.314 92.7941 Z" stroke-linecap="round" />
</g>
		<g transform="matrix(1 0 0 1 6.34 -52.72)" clip-path="url(#CLIPPATH_91)"  >
<clipPath id="CLIPPATH_91" >
	<rect transform="matrix(1 0 0 1 -6.34 52.72)" id="clip0_110_1504" x="-85.5" y="-70" rx="0" ry="0" width="171" height="140" />
</clipPath>
<path style="stroke: rgb(27,27,29); stroke-width: 1; stroke-dasharray: none; stroke-linecap: butt; stroke-dashoffset: 0; stroke-linejoin: miter; stroke-miterlimit: 4; fill: rgb(27,27,29); fill-rule: nonzero; opacity: 1;" vector-effect="non-scaling-stroke"  transform=" translate(-91.84, -17.28)" d="M 82.6447 8.9141 C 82.3693 9.21363 83.2553 10.6154 83.5306 10.903 C 88.571 16.007 94.0064 20.6916 99.4537 25.2804 C 100.196 26.0352 101.764 25.6638 100.771 25.2085 C 96.4248 21.1709 91.4204 17.0493 87.1702 12.8799 C 86.1645 12.3287 83.1356 8.32703 82.6447 8.9141 Z" stroke-linecap="round" />
</g>
		<g transform="matrix(1 0 0 1 61.97 -1.12)" clip-path="url(#CLIPPATH_92)"  >
<clipPath id="CLIPPATH_92" >
	<rect transform="matrix(1 0 0 1 -61.97 1.12)" id="clip0_110_1504" x="-85.5" y="-70" rx="0" ry="0" width="171" height="140" />
</clipPath>
<path style="stroke: rgb(27,27,29); stroke-width: 1; stroke-dasharray: none; stroke-linecap: butt; stroke-dashoffset: 0; stroke-linejoin: miter; stroke-miterlimit: 4; fill: rgb(27,27,29); fill-rule: nonzero; opacity: 1;" vector-effect="non-scaling-stroke"  transform=" translate(-147.47, -68.88)" d="M 150.647 72.4742 C 150.779 71.8272 149.725 71.2761 149.45 70.7848 C 147.786 69.0236 146.313 67.0827 144.661 65.3094 C 144.469 65.0459 144.086 65.3933 144.397 65.561 C 146.253 67.7296 147.989 69.9821 149.977 72.0788 C 150.144 72.2465 150.348 72.7258 150.647 72.4742 Z" stroke-linecap="round" />
</g>
		<g transform="matrix(1 0 0 1 71.82 -10.4)" clip-path="url(#CLIPPATH_93)"  >
<clipPath id="CLIPPATH_93" >
	<rect transform="matrix(1 0 0 1 -71.82 10.4)" id="clip0_110_1504" x="-85.5" y="-70" rx="0" ry="0" width="171" height="140" />
</clipPath>
<path style="stroke: rgb(27,27,29); stroke-width: 1; stroke-dasharray: none; stroke-linecap: butt; stroke-dashoffset: 0; stroke-linejoin: miter; stroke-miterlimit: 4; fill: rgb(27,27,29); fill-rule: nonzero; opacity: 1;" vector-effect="non-scaling-stroke"  transform=" translate(-157.32, -59.6)" d="M 164.571 62.6976 C 165.217 61.4994 155.735 58.6958 154.382 57.7853 C 153.664 57.7134 149.594 55.0416 150.084 56.707 C 153.832 58.7557 157.89 60.3013 161.781 62.0985 C 162.619 62.2662 163.912 63.656 164.571 62.6976 Z" stroke-linecap="round" />
</g>
		<g transform="matrix(1 0 0 1 22.65 -57.09)" clip-path="url(#CLIPPATH_94)"  >
<clipPath id="CLIPPATH_94" >
	<rect transform="matrix(1 0 0 1 -22.65 57.09)" id="clip0_110_1504" x="-85.5" y="-70" rx="0" ry="0" width="171" height="140" />
</clipPath>
<path style="stroke: rgb(27,27,29); stroke-width: 1; stroke-dasharray: none; stroke-linecap: butt; stroke-dashoffset: 0; stroke-linejoin: miter; stroke-miterlimit: 4; fill: rgb(27,27,29); fill-rule: nonzero; opacity: 1;" vector-effect="non-scaling-stroke"  transform=" translate(-108.15, -12.91)" d="M 106.326 8.4707 C 106.96 8.65042 106.948 9.8126 107.295 10.3278 C 108.145 12.6042 109.223 14.7848 110.097 17.0372 C 110.241 17.3248 109.762 17.5165 109.75 17.169 C 108.624 14.5452 107.355 11.9452 106.373 9.27344 C 106.314 8.98589 105.978 8.59051 106.326 8.4707 Z" stroke-linecap="round" />
</g>
		<g transform="matrix(1 0 0 1 66.51 -40.28)" clip-path="url(#CLIPPATH_95)"  >
<clipPath id="CLIPPATH_95" >
	<rect transform="matrix(1 0 0 1 -66.51 40.28)" id="clip0_110_1504" x="-85.5" y="-70" rx="0" ry="0" width="171" height="140" />
</clipPath>
<path style="stroke: rgb(27,27,29); stroke-width: 1; stroke-dasharray: none; stroke-linecap: butt; stroke-dashoffset: 0; stroke-linejoin: miter; stroke-miterlimit: 4; fill: rgb(27,27,29); fill-rule: nonzero; opacity: 1;" vector-effect="non-scaling-stroke"  transform=" translate(-152.01, -29.72)" d="M 155.436 29.0185 C 155.485 28.9335 155.508 28.8356 155.502 28.7374 C 155.495 28.6392 155.459 28.5453 155.398 28.4678 C 155.338 28.3904 155.255 28.3329 155.162 28.3029 C 155.068 28.2729 154.968 28.2718 154.873 28.2996 C 152.814 29.1982 150.312 29.4977 148.528 30.9115 C 148.384 31.5105 149.941 30.8396 150.168 30.6838 C 151.892 30.0369 153.844 29.8092 155.436 29.0185 Z" stroke-linecap="round" />
</g>
		<g transform="matrix(1 0 0 1 60.4 -53.5)" clip-path="url(#CLIPPATH_96)"  >
<clipPath id="CLIPPATH_96" >
	<rect transform="matrix(1 0 0 1 -60.4 53.5)" id="clip0_110_1504" x="-85.5" y="-70" rx="0" ry="0" width="171" height="140" />
</clipPath>
<path style="stroke: rgb(27,27,29); stroke-width: 1; stroke-dasharray: none; stroke-linecap: butt; stroke-dashoffset: 0; stroke-linejoin: miter; stroke-miterlimit: 4; fill: rgb(27,27,29); fill-rule: nonzero; opacity: 1;" vector-effect="non-scaling-stroke"  transform=" translate(-145.9, -16.5)" d="M 151.868 11.442 C 150.815 10.3517 149.474 12.724 148.444 13.3111 C 148.013 13.8502 136.999 23.0638 140.471 21.6979 C 143.811 18.8704 147.175 16.0788 150.611 13.371 C 151.21 12.8918 152.407 12.3047 151.868 11.442 Z" stroke-linecap="round" />
</g>
		<g transform="matrix(1 0 0 1 40.22 -61.57)" clip-path="url(#CLIPPATH_97)"  >
<clipPath id="CLIPPATH_97" >
	<rect transform="matrix(1 0 0 1 -40.22 61.57)" id="clip0_110_1504" x="-85.5" y="-70" rx="0" ry="0" width="171" height="140" />
</clipPath>
<path style="stroke: rgb(27,27,29); stroke-width: 1; stroke-dasharray: none; stroke-linecap: butt; stroke-dashoffset: 0; stroke-linejoin: miter; stroke-miterlimit: 4; fill: rgb(27,27,29); fill-rule: nonzero; opacity: 1;" vector-effect="non-scaling-stroke"  transform=" translate(-125.72, -8.43)" d="M 123.985 16.7618 C 124.742 11.4077 126.096 6.15525 128.02 1.10236 C 128.259 0.503303 127.457 -0.191599 126.823 0.0600058 C 125.781 0.994537 125.984 2.79171 125.434 4.03775 C 124.883 5.2838 122.177 18.0557 123.985 16.7618 Z" stroke-linecap="round" />
</g>
		<g transform="matrix(1 0 0 1 -30.36 64.72)" clip-path="url(#CLIPPATH_98)"  >
<clipPath id="CLIPPATH_98" >
	<rect transform="matrix(1 0 0 1 30.36 -64.72)" id="clip0_110_1504" x="-85.5" y="-70" rx="0" ry="0" width="171" height="140" />
</clipPath>
<path style="stroke: rgb(27,27,29); stroke-width: 1; stroke-dasharray: none; stroke-linecap: butt; stroke-dashoffset: 0; stroke-linejoin: miter; stroke-miterlimit: 4; fill: rgb(27,27,29); fill-rule: nonzero; opacity: 1;" vector-effect="non-scaling-stroke"  transform=" translate(-55.14, -134.72)" d="M 1.71218 129.912 C 1.22132 129.912 -0.682277 130.798 0.287477 130.858 C 4.78905 129.504 9.73358 130.475 14.2591 131.314 C 30.4815 135.064 46.6561 141.677 63.5729 139.617 C 79.52 139.305 94.5931 131.625 110.265 130.463 C 98.52 129.876 86.1287 134.057 74.4078 136.382 C 58.9277 141.03 42.825 137.208 27.6202 133.195 C 19.1558 131.182 10.416 128.282 1.71218 129.912 Z" stroke-linecap="round" />
</g>
		<g transform="matrix(1 0 0 1 -27.89 48.89)" clip-path="url(#CLIPPATH_99)"  >
<clipPath id="CLIPPATH_99" >
	<rect transform="matrix(1 0 0 1 27.89 -48.89)" id="clip0_110_1504" x="-85.5" y="-70" rx="0" ry="0" width="171" height="140" />
</clipPath>
<path style="stroke: rgb(27,27,29); stroke-width: 1; stroke-dasharray: none; stroke-linecap: butt; stroke-dashoffset: 0; stroke-linejoin: miter; stroke-miterlimit: 4; fill: rgb(27,27,29); fill-rule: nonzero; opacity: 1;" vector-effect="non-scaling-stroke"  transform=" translate(-57.61, -118.89)" d="M 57.4553 118.098 C 57.4395 118.098 57.424 118.101 57.4094 118.107 C 57.3949 118.113 57.3817 118.122 57.3706 118.133 C 57.3594 118.145 57.3506 118.158 57.3446 118.172 C 57.3386 118.187 57.3354 118.202 57.3354 118.218 C 57.5405 118.635 57.6393 119.096 57.623 119.56 C 58.1262 120.183 57.8267 118.062 57.4553 118.098 Z" stroke-linecap="round" />
</g>
		<g transform="matrix(1 0 0 1 -41.43 47.39)" clip-path="url(#CLIPPATH_100)"  >
<clipPath id="CLIPPATH_100" >
	<rect transform="matrix(1 0 0 1 41.43 -47.39)" id="clip0_110_1504" x="-85.5" y="-70" rx="0" ry="0" width="171" height="140" />
</clipPath>
<path style="stroke: rgb(27,27,29); stroke-width: 1; stroke-dasharray: none; stroke-linecap: butt; stroke-dashoffset: 0; stroke-linejoin: miter; stroke-miterlimit: 4; fill: rgb(27,27,29); fill-rule: nonzero; opacity: 1;" vector-effect="non-scaling-stroke"  transform=" translate(-44.07, -117.39)" d="M 43.5793 117.248 C 43.8068 116.769 46.716 116.493 45.878 116.134 C 44.9681 116.134 41.5201 117.583 42.2025 118.65 C 42.2314 118.657 42.2621 118.655 42.2896 118.643 C 42.317 118.631 42.3396 118.61 42.3535 118.584 C 42.3674 118.557 42.372 118.527 42.3663 118.497 C 42.3606 118.468 42.345 118.441 42.3222 118.422 C 42.6272 117.924 43.0617 117.518 43.5793 117.248 Z" stroke-linecap="round" />
</g>
		<g transform="matrix(1 0 0 1 -41.07 46.47)" clip-path="url(#CLIPPATH_101)"  >
<clipPath id="CLIPPATH_101" >
	<rect transform="matrix(1 0 0 1 41.07 -46.47)" id="clip0_110_1504" x="-85.5" y="-70" rx="0" ry="0" width="171" height="140" />
</clipPath>
<path style="stroke: rgb(27,27,29); stroke-width: 1; stroke-dasharray: none; stroke-linecap: butt; stroke-dashoffset: 0; stroke-linejoin: miter; stroke-miterlimit: 4; fill: rgb(27,27,29); fill-rule: nonzero; opacity: 1;" vector-effect="non-scaling-stroke"  transform=" translate(-44.43, -116.47)" d="M 46.5245 115.415 C 46.6203 115.558 46.8358 115.415 46.728 115.283 C 45.5308 115.103 42.7412 116.697 42.0947 117.679 C 43.4642 116.737 44.9542 115.983 46.5245 115.439 L 46.5245 115.415 Z" stroke-linecap="round" />
</g>
		<g transform="matrix(1 0 0 1 -51.75 62.84)" clip-path="url(#CLIPPATH_102)"  >
<clipPath id="CLIPPATH_102" >
	<rect transform="matrix(1 0 0 1 51.75 -62.84)" id="clip0_110_1504" x="-85.5" y="-70" rx="0" ry="0" width="171" height="140" />
</clipPath>
<path style="stroke: rgb(27,27,29); stroke-width: 1; stroke-dasharray: none; stroke-linecap: butt; stroke-dashoffset: 0; stroke-linejoin: miter; stroke-miterlimit: 4; fill: rgb(27,27,29); fill-rule: nonzero; opacity: 1;" vector-effect="non-scaling-stroke"  transform=" translate(-33.75, -132.84)" d="M 35.2225 134.393 C 35.1108 133.256 34.6021 132.196 33.7859 131.398 C 33.5823 131.242 32.0499 130.379 32.0978 130.93 C 32.0978 131.038 32.3013 131.146 32.3851 131.002 C 34.3845 131.35 34.612 133.339 35.1986 134.896 C 35.5937 135.076 35.2944 134.561 35.2225 134.393 Z" stroke-linecap="round" />
</g>
		<g transform="matrix(1 0 0 1 -51.28 63.38)" clip-path="url(#CLIPPATH_103)"  >
<clipPath id="CLIPPATH_103" >
	<rect transform="matrix(1 0 0 1 51.28 -63.38)" id="clip0_110_1504" x="-85.5" y="-70" rx="0" ry="0" width="171" height="140" />
</clipPath>
<path style="stroke: rgb(27,27,29); stroke-width: 1; stroke-dasharray: none; stroke-linecap: butt; stroke-dashoffset: 0; stroke-linejoin: miter; stroke-miterlimit: 4; fill: rgb(27,27,29); fill-rule: nonzero; opacity: 1;" vector-effect="non-scaling-stroke"  transform=" translate(-34.22, -133.38)" d="M 33.8817 132.092 C 33.091 131.793 34.9241 133.962 34.4808 134.489 C 34.4687 134.511 34.4625 134.535 34.4628 134.56 C 34.4632 134.585 34.47 134.61 34.4827 134.631 C 34.4954 134.653 34.5135 134.671 34.5352 134.683 C 34.557 134.696 34.5816 134.702 34.6066 134.702 C 34.6316 134.702 34.6562 134.696 34.6779 134.683 C 34.6996 134.671 34.7177 134.653 34.7304 134.631 C 34.7431 134.61 34.75 134.585 34.7503 134.56 C 34.7507 134.535 34.7445 134.511 34.7324 134.489 C 34.7355 133.615 34.4348 132.768 33.8817 132.092 Z" stroke-linecap="round" />
</g>
		<g transform="matrix(1 0 0 1 -28.52 51.14)" clip-path="url(#CLIPPATH_104)"  >
<clipPath id="CLIPPATH_104" >
	<rect transform="matrix(1 0 0 1 28.52 -51.14)" id="clip0_110_1504" x="-85.5" y="-70" rx="0" ry="0" width="171" height="140" />
</clipPath>
<path style="stroke: rgb(27,27,29); stroke-width: 1; stroke-dasharray: none; stroke-linecap: butt; stroke-dashoffset: 0; stroke-linejoin: miter; stroke-miterlimit: 4; fill: rgb(27,27,29); fill-rule: nonzero; opacity: 1;" vector-effect="non-scaling-stroke"  transform=" translate(-56.98, -121.14)" d="M 104.781 128.031 C 104.114 127.041 103.178 126.262 102.084 125.787 C 100.989 125.311 99.7817 125.159 98.6035 125.347 C 98.2293 124.945 97.7719 124.629 97.2632 124.422 C 96.7545 124.215 96.2068 124.122 95.6583 124.149 C 95.8499 121.753 93.0244 119.213 90.8694 120.902 C 90.6419 121.154 91.1089 121.429 91.2166 121.094 C 93.1441 119.895 95.2273 122.16 95.1794 124.101 C 94.94 124.005 94.7484 124.352 95.0357 124.424 C 96.1845 124.345 97.3199 124.71 98.2084 125.443 C 97.508 125.586 96.839 125.854 96.233 126.234 C 95.9322 126.126 95.6178 126.062 95.2991 126.042 C 95.5146 122.807 91.0849 121.777 88.2116 122.783 C 88.1869 122.449 88.0855 122.124 87.9152 121.835 C 87.7449 121.547 87.5104 121.301 87.2298 121.118 C 87.6728 120.602 88.0679 119.979 88.7743 119.86 C 88.906 120.087 89.3729 120.159 89.1095 119.86 C 89.5315 120.109 89.8864 120.457 90.143 120.875 C 90.3997 121.292 90.5504 121.767 90.582 122.256 C 90.5787 122.314 90.5979 122.372 90.6358 122.416 C 90.6737 122.461 90.7274 122.489 90.7856 122.495 C 91.3243 122.495 90.5222 120.722 90.3067 120.519 C 90.0912 120.315 89.1095 119.428 88.7862 119.656 C 88.3904 119.719 88.0131 119.867 87.6803 120.091 C 87.3474 120.314 87.0671 120.607 86.8587 120.95 C 86.5726 120.766 86.2724 120.606 85.9608 120.471 C 86.8587 117.607 84.8713 114.336 81.8543 116.038 C 81.1 115.043 79.7352 113.857 78.4901 114.216 C 77.9571 114.377 77.4523 114.62 76.9935 114.935 C 76.6776 114.532 76.2973 114.184 75.8681 113.905 C 76.2393 111.281 73.6413 109.112 71.7257 111.509 C 70.8637 109.376 67.5234 109.112 66.0389 110.718 C 65.9803 110.005 65.8232 109.303 65.572 108.633 C 66.434 108.358 67.1045 108.969 67.6432 109.496 C 68.0982 109.4 67.6432 108.933 67.4516 108.753 C 67.174 108.515 66.8409 108.351 66.4831 108.275 C 66.1253 108.2 65.7544 108.216 65.4044 108.322 C 64.3628 106.117 62.4472 105.027 60.388 106.453 C 59.8795 106.136 59.2967 105.958 58.6979 105.937 C 58.0992 105.916 57.5054 106.052 56.9759 106.333 C 56.9759 105.003 56.2815 103.409 54.761 103.445 C 54.7498 103.433 54.736 103.422 54.7205 103.415 C 54.705 103.408 54.6882 103.405 54.6712 103.405 C 54.6542 103.405 54.6375 103.408 54.622 103.415 C 54.6065 103.422 54.5927 103.433 54.5815 103.445 C 52.3786 103.517 50.3912 105.494 49.3855 107.339 C 47.7692 106.908 46.0572 108.034 44.8959 109.076 C 42.3338 111.76 44.7402 114.947 48.0685 113.126 C 46.9671 115.163 45.9853 118.542 48.6192 119.428 C 48.6648 119.447 48.7137 119.457 48.7631 119.457 C 48.8124 119.457 48.8612 119.447 48.9068 119.428 C 48.9524 119.409 48.9938 119.381 49.0287 119.347 C 49.0636 119.312 49.0912 119.27 49.1101 119.225 C 49.129 119.179 49.1387 119.13 49.1386 119.081 C 49.1386 119.031 49.1289 118.982 49.11 118.937 C 49.0911 118.891 49.0634 118.85 49.0285 118.815 C 48.9936 118.78 48.9522 118.752 48.9066 118.733 C 46.4283 118.026 48.0685 112.359 50.1876 112.311 C 50.7624 112.584 51.4129 112.651 52.0313 112.503 C 51.1095 114.228 50.3911 117.056 52.0313 118.374 C 49.2897 118.877 46.4762 121.309 46.6678 124.281 C 45.8054 125.865 44.6846 127.295 43.3515 128.51 C 43.7381 127.218 44.5009 126.071 45.5424 125.215 C 45.5424 123.885 42.7768 127.983 43.0162 128.582 C 42.3937 127.635 43.0881 124.844 44.6325 124.472 C 44.6484 124.507 44.6775 124.534 44.7134 124.548 C 44.7493 124.561 44.7891 124.56 44.8241 124.544 C 44.859 124.528 44.8861 124.499 44.8996 124.463 C 44.9131 124.427 44.9118 124.387 44.8959 124.352 C 45.3269 124.209 46.4762 124.352 46.4762 123.765 C 45.9973 123.035 44.1656 124.029 43.2557 123.598 C 41.1246 123.178 41.4957 121.273 42.8606 120.147 C 43.8961 119.173 45.1735 118.494 46.56 118.182 C 46.8234 118.314 46.9791 118.182 46.9192 117.967 C 46.6079 117.08 43.6986 118.709 42.9563 119.284 C 39.7119 117.751 42.4057 116.888 44.0698 115.69 C 44.6205 115.882 44.8121 114.612 45.0276 114.252 C 45.6484 114.133 46.2864 114.133 46.9072 114.252 C 47.9249 113.629 45.5304 113.677 45.1712 113.773 C 45.2431 113.641 45.2311 113.45 45.0515 113.414 C 44.4888 113.593 44.5487 114.612 44.1296 115.091 C 42.3458 115.834 40.2506 117.152 38.1435 116.421 C 36.3237 115.834 36.9463 114.396 38.0717 113.438 C 39.5802 112.407 41.6633 111.101 43.555 111.593 C 43.9261 111.593 43.6388 111.197 43.4233 111.173 C 41.5796 110.598 38.0358 112.204 36.8745 113.701 C 36.4157 113.386 35.9109 113.143 35.3779 112.982 C 33.1271 112.383 30.2179 116.577 30.9482 118.458 C 30.9774 118.463 31.0074 118.462 31.0362 118.455 C 31.065 118.448 31.0921 118.435 31.1157 118.417 C 31.1393 118.399 31.1589 118.376 31.1734 118.35 C 31.1878 118.324 31.1967 118.296 31.1996 118.266 C 31.3672 116.193 32.5525 113.713 34.7913 113.234 C 35.42 113.479 36.0218 113.788 36.5871 114.157 C 36.4141 114.427 36.3134 114.738 36.2945 115.059 C 36.2757 115.38 36.3393 115.7 36.4794 115.99 C 35.8591 115.82 35.2063 115.806 34.5795 115.95 C 33.9527 116.095 33.3715 116.392 32.8877 116.816 C 32.8039 116.649 32.5285 116.708 32.4327 116.816 C 32.337 116.924 31.906 117.26 32.2532 117.248 C 32.1089 118.186 32.2623 119.146 32.6919 119.993 C 33.1214 120.84 33.8054 121.531 34.6476 121.968 C 34.5966 122.019 34.5667 122.088 34.5638 122.16 C 29.4397 127.444 20.8555 120.099 31.6186 118.925 C 31.6186 119.057 31.7862 119.057 31.882 119.021 C 32.4686 117.703 27.6558 119.021 27.0931 119.68 C 26.8817 119.34 26.6005 119.049 26.2682 118.826 C 25.9359 118.603 25.5601 118.453 25.1656 118.386 C 24.8064 118.17 23.8007 118.997 23.6451 119.249 C 23.4895 119.5 22.6274 121.237 23.1662 121.225 C 23.1956 121.224 23.2244 121.216 23.2508 121.203 C 23.2773 121.19 23.3007 121.172 23.3198 121.15 C 23.3389 121.127 23.3531 121.101 23.3617 121.073 C 23.3703 121.045 23.373 121.015 23.3697 120.986 C 23.4024 120.497 23.5535 120.023 23.8101 119.606 C 24.0667 119.188 24.421 118.839 24.8423 118.59 C 24.5789 118.925 25.0459 118.853 25.1776 118.59 C 25.8839 118.709 26.279 119.332 26.7219 119.848 C 26.444 120.035 26.2108 120.281 26.039 120.569 C 25.8672 120.857 25.7611 121.179 25.7283 121.513 C 22.8669 120.507 18.4371 121.513 18.6526 124.772 C 18.3341 124.793 18.0199 124.857 17.7188 124.964 C 17.1128 124.584 16.4438 124.316 15.7434 124.173 C 16.6319 123.44 17.7673 123.075 18.916 123.154 C 18.9376 123.153 18.9587 123.147 18.9779 123.137 C 18.9971 123.127 19.014 123.113 19.0275 123.096 C 19.041 123.079 19.0509 123.06 19.0564 123.039 C 19.062 123.018 19.0631 122.996 19.0597 122.975 C 18.3969 122.815 17.7035 122.835 17.0511 123.033 C 16.3987 123.231 15.8108 123.6 15.3483 124.101 C 9.57765 123.082 7.17126 130.247 8.94315 128.786 C 9.23784 128.053 9.6742 127.387 10.2272 126.824 C 10.7801 126.261 11.4387 125.813 12.1652 125.506 C 12.8917 125.199 13.6717 125.038 14.4604 125.033 C 15.2491 125.029 16.031 125.18 16.761 125.479 C 16.1755 125.91 15.7199 126.495 15.4441 127.168 C 13.7359 127.253 12.1142 127.946 10.8707 129.121 C 10.5115 129.397 10.0805 130.02 10.5833 130.127 C 10.751 130.199 10.9185 129.96 10.8228 129.816 C 11.8524 128.486 13.6003 128.354 15.1687 128.306 C 15.1687 129.025 15.2405 130.355 16.0546 130.703 C 16.4433 131.031 16.8932 131.278 17.3783 131.43 C 17.8634 131.582 18.3739 131.636 18.8801 131.589 C 18.2576 131.098 16.9765 131.338 16.33 130.595 C 16.7371 130.235 16.0666 129.492 16.0546 129.025 C 15.9665 128.405 16.0572 127.772 16.3159 127.201 C 16.5746 126.63 16.9907 126.145 17.5153 125.802 C 17.5692 125.825 17.6274 125.835 17.6857 125.832 C 17.7441 125.829 17.8011 125.813 17.8526 125.786 C 17.9041 125.758 17.9489 125.72 17.9837 125.673 C 18.0185 125.626 18.0426 125.572 18.054 125.515 C 18.2759 125.42 18.5094 125.356 18.7484 125.323 C 18.8301 125.644 18.9507 125.954 19.1076 126.246 C 18.9639 126.413 19.1076 126.749 19.2872 126.473 C 19.3498 126.491 19.4161 126.491 19.4787 126.473 C 20.1639 126.963 20.9446 127.302 21.7698 127.47 C 22.595 127.637 23.4461 127.628 24.2676 127.444 C 24.1438 127.574 24.0426 127.723 23.9683 127.887 C 23.9661 127.851 23.9551 127.815 23.9364 127.784 C 23.9176 127.753 23.8916 127.726 23.8606 127.707 C 23.7409 127.408 23.4056 127.611 23.4056 127.851 C 22.9387 129.708 21.071 130.762 19.347 131.266 C 19.3082 131.275 19.2718 131.293 19.2398 131.317 C 19.2078 131.341 19.181 131.371 19.1609 131.406 C 19.1408 131.44 19.1278 131.479 19.1228 131.518 C 19.1178 131.558 19.1207 131.598 19.1315 131.637 C 20.4485 132.344 23.262 130.163 23.693 128.786 C 23.5179 129.892 23.7455 131.024 24.3344 131.976 C 24.9233 132.928 25.8343 133.637 26.9016 133.973 C 26.9521 133.997 27.0083 134.006 27.0637 133.999 C 27.1191 133.993 27.1716 133.971 27.2152 133.936 C 27.2588 133.901 27.2917 133.855 27.3103 133.802 C 27.329 133.749 27.3325 133.692 27.3206 133.638 C 28.3036 133.442 29.1785 132.887 29.7749 132.08 C 30.3277 132.15 30.8523 132.365 31.2954 132.703 C 31.2954 132.883 31.4151 133.183 31.6546 133.039 C 32.313 133.662 32.1574 134.644 32.4447 135.435 C 34.1328 135.986 32.5046 132.236 31.5109 132.116 C 31.3713 131.806 31.3332 131.459 31.402 131.126 C 31.4708 130.792 31.6429 130.489 31.894 130.259 L 32.1694 130.259 C 32.6578 130.249 33.1437 130.185 33.618 130.068 C 33.6455 129.994 33.6455 129.913 33.618 129.84 C 33.9041 129.746 34.184 129.634 34.4561 129.504 C 37.8682 130.439 35.6533 134.237 36.8505 134.057 C 36.204 134.525 35.6533 135.387 36.3597 135.675 C 36.5991 135.675 37.1378 135.004 36.659 135.136 C 37.916 133.578 40.0471 133.662 41.7232 133.254 C 41.7232 134.716 43.8902 135.387 45.4227 134.968 C 46.2009 135.483 46.1529 136.537 46.2846 137.364 C 46.3023 137.469 46.3591 137.563 46.4436 137.628 C 46.5281 137.692 46.6339 137.722 46.7396 137.711 C 47.3621 137.568 46.9551 136.777 46.9551 136.334 C 47.1681 136.018 47.4532 135.758 47.7867 135.575 C 48.1202 135.391 48.4926 135.29 48.8729 135.28 C 49.2533 135.269 49.6307 135.35 49.9738 135.514 C 50.3169 135.679 50.616 135.923 50.8461 136.226 C 50.8453 136.271 50.8605 136.315 50.889 136.35 C 50.9174 136.385 50.9574 136.409 51.0017 136.418 C 51.3903 136.971 51.6706 137.593 51.8278 138.251 C 51.8417 138.303 51.8657 138.352 51.8986 138.394 C 51.9314 138.437 51.9724 138.473 52.0192 138.5 C 52.066 138.526 52.1176 138.543 52.1711 138.55 C 52.2245 138.557 52.2788 138.553 52.3307 138.538 C 53.1687 138.011 51.8039 136.022 51.2771 135.567 C 51.2182 135.213 51.2393 134.851 51.3387 134.507 C 51.4382 134.163 51.6135 133.845 51.8518 133.578 C 51.8687 133.535 51.8941 133.497 51.9265 133.464 C 51.959 133.432 51.9977 133.406 52.0403 133.39 C 52.083 133.373 52.1286 133.365 52.1744 133.366 C 52.2202 133.368 52.2653 133.379 52.3067 133.398 C 53.1654 133.045 53.9373 132.509 54.5695 131.829 C 54.6089 132.532 54.8111 133.216 55.1602 133.827 C 55.5093 134.439 55.9956 134.96 56.5808 135.351 C 56.5446 135.393 56.5246 135.446 56.5246 135.501 C 56.5246 135.556 56.5446 135.609 56.5808 135.651 C 56.8447 136.349 56.8447 137.121 56.5808 137.819 C 55.5033 139.88 58.3527 138.79 57.1435 135.663 C 58.0124 136.028 58.9637 136.152 59.8971 136.022 C 60.1083 136.087 60.3363 136.065 60.5317 135.962 C 60.1126 136.645 59.3943 137.999 60.1725 138.598 C 60.7112 138.598 59.8732 136.957 60.9028 135.854 C 60.9455 135.842 60.9843 135.819 61.0157 135.788 C 61.0471 135.756 61.07 135.717 61.0824 135.675 C 61.6332 135.303 62.0522 134.766 62.2796 134.141 C 63.4768 133.039 66.6974 132.883 66.6854 134.992 C 66.7572 136.286 64.5304 138.323 65.0093 138.85 C 66.0748 138.85 66.7573 136.873 67.2242 135.974 C 67.2242 136.717 71.2588 138.37 70.0975 137.076 C 69.5523 137.038 69.0229 136.876 68.5499 136.602 C 68.0769 136.328 67.6726 135.949 67.3678 135.495 C 67.492 135.127 67.4963 134.73 67.3801 134.359 C 67.2639 133.989 67.0332 133.665 66.7213 133.434 C 66.7812 133.326 66.7213 133.207 66.5777 133.147 C 66.9412 132.588 67.4697 132.156 68.0897 131.911 C 68.7098 131.666 69.3906 131.621 70.0377 131.781 C 70.0761 131.834 70.1322 131.871 70.1958 131.887 C 70.2595 131.902 70.3264 131.894 70.3848 131.865 C 71.1643 132.184 71.8228 132.742 72.2659 133.458 C 72.7089 134.175 72.9138 135.014 72.8511 135.854 C 72.8626 135.928 72.9005 135.996 72.9577 136.044 C 73.0148 136.093 73.0875 136.119 73.1624 136.118 C 73.6293 136.118 73.4138 135.459 73.4138 135.136 C 73.36 134.317 73.0702 133.531 72.5793 132.874 C 72.0884 132.217 71.4176 131.717 70.6482 131.433 C 71.1387 130.647 71.857 130.028 72.7075 129.66 C 74.1561 130.619 76.6942 130.714 77.652 129.085 C 77.9129 129.446 78.2141 129.775 78.5499 130.068 C 76.0118 130.259 73.6054 134.069 75.2935 136.058 C 75.3522 136.063 75.4112 136.053 75.4653 136.03 C 75.5194 136.006 75.5668 135.97 75.6035 135.923 C 75.6402 135.877 75.6649 135.823 75.6756 135.765 C 75.6863 135.707 75.6825 135.647 75.6646 135.591 C 75.5159 135.036 75.4826 134.456 75.5666 133.887 C 75.6507 133.318 75.8503 132.773 76.1532 132.285 C 76.4562 131.796 76.856 131.375 77.3279 131.047 C 77.7998 130.72 78.3339 130.492 78.8971 130.379 L 79.1485 130.535 L 79.388 130.631 L 79.4718 130.631 C 79.5779 130.691 79.6903 130.739 79.807 130.774 C 79.6394 132.943 76.3949 134.009 76.2153 135.938 C 77.4126 134.297 79.807 133.087 80.262 130.858 L 80.4655 130.858 L 80.6571 130.858 C 80.8247 130.858 80.9923 130.858 81.1719 130.858 C 82.6684 132.56 79.6394 134.333 80.4416 134.848 C 81.4951 134.848 82.5607 131.709 81.6388 130.87 L 82.836 130.87 L 83.0994 130.87 C 83.3392 130.717 83.5915 130.585 83.8536 130.475 C 84.0268 130.903 84.2563 131.306 84.5361 131.673 C 83.7818 131.409 81.555 133.638 82.3452 134.069 C 83.0874 133.362 83.5424 131.805 84.8952 132.104 C 85.5178 132.596 87.146 133.758 87.8165 133.123 C 87.5411 132.176 85.0628 132.799 84.2248 130.319 C 84.595 129.939 84.8341 129.45 84.9073 128.924 C 84.9805 128.398 84.884 127.863 84.6319 127.396 C 85.0988 127.396 84.979 126.329 85.5896 126.377 C 85.434 126.533 85.5896 126.892 85.7812 126.964 C 86.8108 128.905 85.5417 132.02 88.4869 131.984 C 88.7742 132.092 88.9299 131.649 88.6186 131.589 L 88.1637 131.493 C 87.0383 130.559 87.3615 128.965 87.146 127.659 C 87.6543 127.977 88.2196 128.193 88.8102 128.294 C 90.9173 129.181 89.8158 132.643 88.2475 133.686 L 89.4447 133.266 C 89.8134 132.782 90.0773 132.226 90.2195 131.634 C 90.3617 131.042 90.3792 130.427 90.2708 129.828 C 90.7892 130.978 91.7271 131.887 92.8927 132.368 C 93.2918 132.272 93.6909 132.188 94.09 132.116 C 93.2834 131.907 92.5407 131.502 91.9269 130.938 C 91.3132 130.374 90.8473 129.668 90.5701 128.881 C 90.5701 128.63 90.2349 128.438 90.1152 128.726 C 90.0832 128.747 90.0567 128.775 90.038 128.808 C 90.0192 128.842 90.0088 128.879 90.0074 128.917 C 89.9329 128.757 89.8362 128.608 89.7201 128.474 C 90.5416 128.658 91.3928 128.667 92.218 128.5 C 93.0432 128.333 93.8238 127.993 94.509 127.504 C 94.6221 127.354 94.755 127.221 94.9041 127.108 C 95.0296 126.861 95.126 126.599 95.1914 126.329 C 95.3575 126.353 95.5217 126.389 95.6823 126.437 C 95.7819 126.427 95.8824 126.448 95.9696 126.497 L 96.0295 126.497 C 96.3407 126.737 97.0112 126.869 97.0351 127.3 C 97.3781 127.651 97.6346 128.078 97.7842 128.546 C 97.9339 129.014 97.9725 129.51 97.8971 129.996 C 97.8971 130.439 97.2865 131.194 97.5619 131.505 L 98.2803 131.421 C 98.67 130.786 98.8462 130.043 98.7831 129.301 C 100.258 129.158 101.732 129.587 102.902 130.499 L 103.428 130.427 C 102.158 129.038 100.388 128.21 98.5077 128.127 C 98.2319 127.453 97.7763 126.869 97.1908 126.437 C 97.9208 126.139 98.7027 125.987 99.4914 125.992 C 100.28 125.996 101.06 126.157 101.787 126.464 C 102.513 126.772 103.172 127.22 103.725 127.782 C 104.278 128.345 104.714 129.012 105.009 129.744 C 104.925 129.924 105.176 130.044 105.332 130.008 C 106.026 129.972 105.069 128.462 104.781 128.031 Z M 12.9658 128.139 C 13.6904 127.833 14.4507 127.619 15.2286 127.504 C 15.1774 127.664 15.1374 127.828 15.1089 127.995 C 14.3915 127.971 13.6736 128.019 12.9658 128.139 Z M 87.5531 124.269 C 87.5959 124.232 87.6359 124.192 87.6728 124.149 C 89.5165 124.748 91.8152 124.484 93.3237 125.826 C 91.5279 124.772 89.4088 124.892 87.5531 124.364 L 87.5531 124.269 Z M 88.3073 123.166 C 90.6299 122.795 95.0118 123.418 94.2935 126.521 C 93.0962 123.933 90.1511 124.508 87.8644 123.849 C 87.9786 123.675 88.0673 123.486 88.1277 123.286 C 88.1475 123.291 88.1681 123.292 88.1883 123.289 C 88.2084 123.286 88.2276 123.278 88.2446 123.267 C 88.2616 123.256 88.276 123.241 88.2868 123.223 C 88.2976 123.206 88.3046 123.187 88.3073 123.166 Z M 85.5417 118.913 C 85.5333 119.316 85.4893 119.716 85.4101 120.111 C 84.9868 119.955 84.5499 119.839 84.1051 119.764 C 84.1114 119.751 84.1147 119.736 84.1147 119.722 C 84.1147 119.707 84.1114 119.693 84.1051 119.68 C 84.6319 119.428 84.4403 116.253 83.698 115.894 C 84.3233 116.081 84.8575 116.493 85.1978 117.05 C 85.5381 117.607 85.6606 118.271 85.5417 118.913 Z M 77.3407 115.259 C 77.8954 114.89 78.4898 114.584 79.1126 114.348 C 79.6201 114.471 80.0982 114.693 80.5195 115.001 C 80.9408 115.309 81.2968 115.698 81.5669 116.145 C 81.5625 116.185 81.5721 116.224 81.594 116.257 C 81.6159 116.29 81.6488 116.314 81.6867 116.325 C 82.2561 117.249 82.5929 118.297 82.6684 119.38 C 83.7698 120.351 82.4409 116.493 82.0339 116.193 C 82.4692 115.966 82.9557 115.855 83.4466 115.87 C 83.4151 115.89 83.3903 115.919 83.3752 115.954 C 83.3601 115.988 83.3555 116.026 83.3619 116.063 C 83.3683 116.1 83.3854 116.135 83.4111 116.162 C 83.4368 116.189 83.47 116.209 83.5065 116.217 C 83.7654 116.504 83.9286 116.864 83.9734 117.248 C 83.5064 117.535 83.9734 119.081 83.8536 119.728 C 83.4107 119.656 81.4592 119.428 82.0339 120.159 C 82.1296 120.159 82.2853 120.159 82.2973 120.075 C 93.0723 121.273 84.4642 128.582 79.3521 123.298 C 79.3474 123.23 79.3175 123.166 79.2683 123.118 C 80.0458 122.702 80.6912 122.077 81.1314 121.312 C 81.5715 120.548 81.7888 119.675 81.7585 118.793 C 81.6407 118.657 81.5439 118.503 81.4712 118.338 C 81.4537 118.292 81.4537 118.241 81.4712 118.194 C 81.3851 118.09 81.3164 117.973 81.2676 117.847 C 81.2338 117.847 81.2009 117.857 81.1731 117.877 C 81.1454 117.896 81.1241 117.923 81.112 117.955 C 80.6282 117.53 80.0469 117.233 79.4202 117.089 C 78.7934 116.944 78.1406 116.958 77.5203 117.128 C 77.6615 116.839 77.7258 116.518 77.7069 116.197 C 77.688 115.876 77.5866 115.565 77.4126 115.295 L 77.3407 115.259 Z M 76.4668 122.855 C 77.9753 122.268 78.2626 120.459 78.6337 119.093 C 79.3848 118.675 80.1908 118.364 81.0282 118.17 C 81.0282 118.202 81.0408 118.232 81.0633 118.255 C 81.0857 118.277 81.1162 118.29 81.1479 118.29 C 81.1797 118.29 81.2101 118.277 81.2326 118.255 C 81.255 118.232 81.2676 118.202 81.2676 118.17 C 81.8662 120.962 79.1007 123.274 76.4668 122.855 Z M 75.3414 122.447 C 74.9824 122.145 74.7053 121.758 74.5358 121.32 C 74.3663 120.882 74.3099 120.409 74.3716 119.943 C 74.6111 120.027 74.5751 119.74 74.5632 119.596 C 75.928 117.811 78.6697 116.72 80.693 117.979 C 79.9187 118.186 79.1772 118.5 78.4901 118.913 C 78.3225 118.841 78.1788 118.985 78.1309 119.153 C 76.6344 119.919 77.2569 122.172 75.7364 122.747 L 75.3414 122.447 Z M 70.3011 118.398 C 70.1147 117.88 70.0452 117.328 70.0975 116.78 C 70.5447 117.201 71.0638 117.538 71.63 117.775 L 71.7138 117.847 C 72.7015 118.231 73.7549 118.418 74.8146 118.398 C 74.3118 118.853 73.8927 119.356 74.1801 119.596 C 73.9872 120.045 73.9209 120.538 73.9885 121.022 C 73.5096 121.142 72.923 120.926 72.48 121.118 C 72.0871 119.988 71.3178 119.027 70.3011 118.398 Z M 66.5777 117.811 C 66.5633 117.387 66.4395 116.974 66.2185 116.613 C 66.625 116.547 67.0104 116.387 67.3439 116.145 C 67.739 116.145 67.8467 115.798 67.8826 115.427 C 68.3643 115.699 68.9095 115.84 69.463 115.834 C 69.541 116.021 69.6415 116.198 69.7623 116.361 C 69.5392 116.888 69.5053 117.477 69.6665 118.026 C 69.1929 117.784 68.675 117.639 68.1442 117.602 C 67.6133 117.565 67.0804 117.636 66.5777 117.811 Z M 64.3029 125.239 C 64.3748 124.532 65.6678 123.729 66.6974 123.658 C 66.1586 124.652 65.4044 125.527 64.8057 126.485 C 64.7886 126.104 64.6502 125.739 64.4107 125.443 C 64.4125 125.402 64.4034 125.362 64.3844 125.326 C 64.3655 125.29 64.3374 125.26 64.3029 125.239 Z M 67.0805 123.67 C 67.1763 125.311 65.584 126.066 64.6861 127.264 C 65.2727 125.97 66.3382 124.999 66.9728 123.67 L 67.0805 123.67 Z M 64.0395 127.084 C 64.0395 127.192 63.9318 127.312 63.8719 127.444 C 61.7408 128.869 58.4245 129.397 56.3773 127.551 C 56.078 126.857 55.8984 125.73 56.8921 125.622 C 57.0477 125.622 57.2752 125.622 57.2991 125.419 C 58.0361 125.512 58.7845 125.421 59.4781 125.155 L 59.8373 125.047 L 60.1725 124.94 L 60.2922 124.94 C 60.7232 124.82 61.1542 124.676 61.5972 124.592 L 61.8127 124.46 C 63.0219 124.496 64.5184 125.694 64.0395 127.084 Z M 53.4082 126.401 C 53.6596 128.57 52.2109 130.415 50.7982 131.925 C 50.894 130.427 53.923 128.21 53.025 126.988 C 52.5701 128.821 50.7383 130.307 50.4989 132.284 C 50.4031 132.428 50.1996 132.62 50.1637 132.811 C 47.4579 132.272 48.6073 128.654 50.2834 127.432 C 50.2709 127.388 50.2506 127.348 50.2235 127.312 C 51.1188 126.571 52.235 126.15 53.3962 126.114 C 53.3962 126.198 53.4082 126.281 53.4082 126.353 L 53.4082 126.401 Z M 53.049 125.754 C 53.3124 125.539 53.049 125.203 53.049 124.94 C 53.612 124.439 54.0928 123.853 54.4737 123.202 C 54.6017 123.683 54.852 124.122 55.2003 124.477 C 55.5487 124.832 55.9831 125.09 56.4611 125.227 C 56.175 125.314 55.9279 125.498 55.762 125.747 C 55.5961 125.996 55.5216 126.295 55.5512 126.593 C 55.221 126.272 54.8253 126.027 54.3913 125.874 C 53.9572 125.721 53.4952 125.664 53.037 125.706 L 53.049 125.754 Z M 61.2021 123.981 L 60.7591 124.281 C 60.7331 124.233 60.7009 124.188 60.6633 124.149 C 59.9978 124.469 59.2707 124.641 58.5323 124.652 C 58.4566 124.645 58.3805 124.645 58.3048 124.652 C 58.2627 124.681 58.2125 124.697 58.1611 124.697 C 58.1098 124.697 58.0596 124.681 58.0175 124.652 C 57.394 124.781 56.7449 124.683 56.1873 124.376 C 55.6297 124.068 55.2003 123.571 54.9765 122.975 C 55.0843 122.627 55.204 122.352 55.2758 122.016 C 57.7421 120.495 60.3162 121.609 62.9261 121.836 C 63.7881 121.321 59.957 121.142 59.526 120.902 C 60.5176 120.729 61.5363 120.799 62.4951 121.106 C 64.267 121.022 59.0471 120.087 59.3823 120.89 C 58.2164 120.772 57.0399 120.962 55.9702 121.441 C 59.1788 118.542 66.9488 120.063 61.2021 123.933 L 61.2021 123.981 Z M 56.1378 120.902 C 55.8864 121.07 55.635 121.237 55.3956 121.417 C 55.3237 120.471 55.7547 119.428 55.1441 118.566 C 56.0796 118.131 56.8999 117.483 57.5386 116.673 C 57.5296 117.288 57.7225 117.89 58.088 118.386 C 58.4535 118.881 58.9712 119.243 59.5619 119.416 C 58.3378 119.667 57.1745 120.156 56.1378 120.854 L 56.1378 120.902 Z M 61.3937 113.833 C 62.2916 114.6 61.262 112.347 61.5254 111.964 C 61.5532 111.961 61.5799 111.951 61.6026 111.935 C 61.6252 111.918 61.643 111.896 61.654 111.87 C 61.665 111.844 61.6689 111.816 61.6653 111.788 C 61.6616 111.761 61.6505 111.734 61.6331 111.712 L 61.7648 111.497 C 61.9057 111.488 62.038 111.426 62.1356 111.324 C 62.2332 111.222 62.2889 111.087 62.2916 110.946 C 64.6861 109.747 67.4516 113.342 66.9608 115.738 C 66.6495 116.038 66.1706 115.978 65.8833 116.193 C 64.1234 114.396 60.6394 113.138 58.5323 114.863 C 58.9018 113.947 58.9853 112.941 58.7717 111.976 C 59.137 112.194 59.558 112.302 59.9832 112.285 C 60.4084 112.268 60.8195 112.127 61.1662 111.88 C 61.0998 112.526 61.1859 113.179 61.4176 113.785 L 61.3937 113.833 Z M 60.6993 114.672 C 62.3275 114.672 65.9431 116.205 65.4882 118.17 C 63.4529 116.697 61.5613 114.085 58.6999 115.474 C 58.9602 115.207 59.271 114.994 59.6142 114.848 C 59.9575 114.702 60.3263 114.626 60.6993 114.624 L 60.6993 114.672 Z M 73.3181 117.667 C 71.8814 117.092 69.5947 116.469 69.9299 114.456 C 72.025 114.827 72.9828 117.032 74.9103 117.727 C 74.3772 117.769 73.8407 117.733 73.3181 117.619 L 73.3181 117.667 Z M 75.7125 117.571 L 75.6167 117.571 C 73.5455 116.852 72.3722 114.66 70.1813 114.145 C 72.8152 112.803 73.6174 117.104 75.7963 117.523 L 75.7125 117.571 Z M 77.9513 119.62 C 77.6041 120.698 77.4604 122.016 76.4907 122.579 C 77.209 121.777 77.0654 120.483 77.9753 119.572 L 77.9513 119.62 Z M 76.2991 117.296 C 73.9885 116.912 72.8032 112.503 70.0616 113.941 C 70.2355 113.628 70.4774 113.357 70.7696 113.15 C 71.0617 112.942 71.3967 112.803 71.7497 112.743 C 71.7561 112.776 71.7717 112.806 71.7946 112.831 C 71.8175 112.855 71.8468 112.873 71.8792 112.882 C 71.9116 112.89 71.9458 112.89 71.978 112.88 C 72.0101 112.87 72.0389 112.852 72.061 112.827 C 73.785 113.186 78.3464 115.199 76.3231 117.248 L 76.2991 117.296 Z M 66.2065 111.149 C 66.9249 109.628 69.4989 110.035 70.6004 110.993 C 71.0074 111.281 71.0314 111.88 71.4145 112.192 C 71.482 112.215 71.555 112.219 71.6246 112.203 C 71.6943 112.186 71.7576 112.149 71.8069 112.097 C 71.8563 112.045 71.8896 111.98 71.9028 111.91 C 71.916 111.839 71.9086 111.767 71.8814 111.7 C 73.5575 109.544 75.6167 111.233 75.473 113.545 C 74.372 112.876 73.1527 112.425 71.8814 112.216 L 71.7976 112.311 C 71.317 112.371 70.8597 112.553 70.4697 112.841 C 70.0798 113.128 69.7702 113.511 69.5707 113.953 C 69.5372 113.958 69.5056 113.972 69.4791 113.993 C 69.4526 114.014 69.4322 114.042 69.42 114.074 C 69.4079 114.105 69.4043 114.14 69.4098 114.173 C 69.4152 114.207 69.4294 114.238 69.451 114.264 C 69.3299 114.619 69.2971 114.997 69.3552 115.367 C 68.8803 115.358 68.4151 115.23 68.0024 114.995 C 68.0134 114.96 68.0134 114.922 68.0024 114.887 C 67.9762 114.187 67.804 113.501 67.4968 112.871 C 67.1895 112.242 66.7541 111.684 66.2185 111.233 C 66.2248 111.205 66.2206 111.175 66.2065 111.149 Z M 65.572 110.706 L 65.572 110.79 C 65.1297 110.43 64.6026 110.189 64.041 110.09 C 63.4793 109.992 62.9018 110.039 62.3634 110.227 C 62.4132 109.544 62.2951 108.859 62.0197 108.233 C 61.7442 107.606 61.3196 107.057 60.7831 106.632 C 63.5128 105.099 65.2008 108.274 65.5241 110.706 L 65.572 110.706 Z M 60.0288 106.716 C 60.0247 106.755 60.031 106.794 60.0471 106.829 C 60.0632 106.864 60.0886 106.895 60.1204 106.917 C 60.1523 106.939 60.1895 106.952 60.2282 106.954 C 60.2668 106.957 60.3055 106.949 60.3401 106.932 C 60.8477 107.402 61.2248 107.995 61.4346 108.655 C 61.6445 109.314 61.6799 110.017 61.5373 110.694 L 61.1901 110.814 C 59.8373 109.735 58.7957 107.627 56.8682 107.579 C 56.9656 107.236 57.01 106.881 56.9998 106.525 C 57.4785 106.293 58.0088 106.189 58.5395 106.222 C 59.0701 106.256 59.5831 106.426 60.0288 106.716 Z M 56.7963 107.914 C 58.4964 107.914 59.4661 109.831 60.5795 110.874 C 59.7415 110.574 59.2866 109.676 58.7358 109.053 C 57.5386 108.789 60.2683 111.64 60.9148 111.173 L 61.0345 111.257 C 60.6894 111.568 60.2416 111.74 59.7774 111.74 C 59.3132 111.74 58.8654 111.568 58.5203 111.257 C 58.4585 110.959 58.3342 110.678 58.1556 110.433 C 57.9771 110.187 57.7483 109.982 57.4845 109.831 C 57.2208 109.68 56.928 109.587 56.6256 109.559 C 56.3233 109.53 56.0183 109.566 55.7308 109.664 C 56.1918 109.152 56.5533 108.559 56.7963 107.914 Z M 54.6413 104.02 C 54.761 105.901 53.2046 107.076 52.0074 108.286 C 53.0272 106.957 53.9097 105.528 54.6413 104.02 Z M 49.8524 108.406 C 50.1876 106.968 51.8518 104.428 53.3363 104.044 C 53.3773 104.062 53.4229 104.066 53.4661 104.055 C 53.5094 104.044 53.5479 104.019 53.5758 103.985 C 53.8415 103.943 54.1122 103.943 54.3779 103.985 C 53.468 106.548 51.0137 108.394 50.1876 110.922 C 49.9575 110.543 49.8088 110.12 49.7511 109.681 C 49.6934 109.242 49.7279 108.795 49.8524 108.37 L 49.8524 108.406 Z M 49.2059 112.06 C 49.2007 111.987 49.1761 111.917 49.1348 111.857 C 49.0935 111.798 49.0369 111.75 48.9709 111.719 C 48.9049 111.689 48.8319 111.676 48.7595 111.684 C 48.6872 111.691 48.6181 111.717 48.5594 111.76 C 42.238 115.439 44.3571 107.447 49.2418 107.627 C 48.6551 109.005 48.5833 110.958 49.7327 111.928 C 49.5536 111.936 49.3764 111.968 49.2059 112.024 L 49.2059 112.06 Z M 51.0975 111.425 C 50.9203 111.404 50.7492 111.347 50.5947 111.257 C 50.9179 108.43 55.1202 107.279 54.8927 104.068 C 57.5027 105.997 54.9526 110.143 52.618 111.257 C 52.119 111.367 51.6079 111.411 51.0975 111.389 L 51.0975 111.425 Z M 52.8095 112.252 C 52.8801 112.214 52.9401 112.159 52.984 112.092 C 53.028 112.025 53.0544 111.948 53.0609 111.868 C 54.761 110.67 57.0717 108.418 57.9337 111.796 C 58.5682 114.3 56.6646 117.02 54.4138 117.99 C 51.3489 117.643 51.5046 114.66 52.8095 112.216 L 52.8095 112.252 Z M 48.0206 122.088 C 48.5856 121.17 49.3642 120.403 50.2899 119.853 C 51.2157 119.302 52.2609 118.983 53.3363 118.925 C 49.0862 121.836 49.577 121.992 53.5638 119.105 C 55.1441 119.32 50.5827 121.345 50.2714 121.86 C 49.4932 122.436 47.1706 124.556 48.4277 125.455 C 48.6671 125.551 48.7749 125.119 48.4876 125.107 C 47.6974 122.639 54.785 120.459 54.0786 119.009 C 54.1624 119.009 54.2223 119.009 54.3061 119.009 C 55.5632 120.339 54.1145 121.225 54.0547 122.424 C 52.8335 125.694 45.71 127.647 48.0565 122.052 L 48.0206 122.088 Z M 37.3414 116.888 C 38.08 117.276 38.7255 117.819 39.233 118.482 C 39.233 118.626 39.1731 118.913 39.4126 118.829 C 39.4771 119.374 39.3853 119.926 39.1478 120.42 C 38.9104 120.915 38.5371 121.331 38.0717 121.621 C 36.5392 121.046 37.1618 118.805 35.6772 118.026 C 35.6772 117.871 35.4857 117.727 35.3181 117.799 C 34.6324 117.38 33.8906 117.061 33.1151 116.852 C 33.7665 116.488 34.5002 116.297 35.2462 116.297 C 35.9923 116.297 36.726 116.488 37.3773 116.852 L 37.3414 116.888 Z M 37.2815 121.417 C 36.3117 120.794 36.1681 119.524 35.8209 118.446 C 36.7667 119.32 36.623 120.626 37.3174 121.381 L 37.2815 121.417 Z M 32.4926 117.092 C 32.4926 117.124 32.5052 117.154 32.5277 117.177 C 32.5501 117.199 32.5806 117.212 32.6123 117.212 C 32.6441 117.212 32.6745 117.199 32.697 117.177 C 32.7194 117.154 32.7321 117.124 32.7321 117.092 C 33.5699 117.29 34.3759 117.604 35.1265 118.026 C 35.4976 119.392 35.785 121.189 37.2815 121.777 C 34.7314 122.124 31.9658 119.8 32.5525 117.056 L 32.4926 117.092 Z M 26.2191 123.238 C 24.3634 123.765 22.2443 123.658 20.4485 124.7 C 21.969 123.358 24.2557 123.622 26.0994 123.023 L 26.2191 123.154 C 26.2191 123.154 26.279 123.166 26.279 123.202 L 26.2191 123.238 Z M 25.4649 122.04 C 25.4708 122.076 25.4902 122.109 25.5191 122.131 C 25.548 122.153 25.5842 122.163 25.6205 122.16 C 25.681 122.359 25.7697 122.549 25.8839 122.723 C 23.5852 123.382 20.688 122.819 19.4548 125.395 C 18.8203 122.292 23.2021 121.633 25.5008 122.004 L 25.4649 122.04 Z M 21.9091 127.084 C 21.1246 127.062 20.3634 126.812 19.7182 126.365 C 19.7505 126.29 19.7671 126.208 19.7671 126.126 C 19.7671 126.043 19.7505 125.962 19.7182 125.886 C 20.8196 124.317 23.1303 124.053 24.9381 123.825 C 25.4529 123.753 26.2431 123.885 26.5544 123.358 C 27.0067 123.751 27.5203 124.066 28.0748 124.293 C 28.1467 124.952 27.56 125.359 27.0811 125.694 C 26.8902 125.811 26.7062 125.939 26.5304 126.078 C 25.0918 126.776 23.5076 127.121 21.9091 127.084 Z M 28.2065 132.739 C 27.8474 133.015 27.0692 132.943 27.0093 133.458 C 24.6149 132.895 22.5676 128.666 25.1416 127.372 C 25.7762 127.084 27.4523 127.06 27.3325 126.174 C 27.8234 125.766 28.3981 125.335 28.434 124.652 C 29.1424 124.799 29.8687 124.84 30.589 124.772 C 29.2721 125.826 28.2664 128.27 29.8108 129.468 C 29.9448 129.834 29.9876 130.228 29.9354 130.614 C 29.8833 131 29.7378 131.368 29.5115 131.685 C 29.1404 131.601 28.4699 131.996 29.0805 132.176 C 28.8042 132.411 28.4879 132.593 28.1467 132.715 L 28.2065 132.739 Z M 31.0919 131.973 C 30.7506 131.836 30.392 131.747 30.0263 131.709 C 30.2836 131.077 30.3257 130.378 30.146 129.72 C 30.3754 129.86 30.6205 129.973 30.8763 130.056 C 30.8704 130.115 30.8704 130.175 30.8763 130.235 L 31.1038 130.235 L 31.1038 130.103 C 31.2358 130.152 31.3721 130.188 31.5109 130.211 C 31.2893 130.436 31.1289 130.713 31.0451 131.017 C 30.9612 131.322 30.9567 131.642 31.032 131.949 L 31.0919 131.973 Z M 37.078 133.985 C 37.3851 133.081 37.3528 132.096 36.987 131.214 C 36.6213 130.332 35.9471 129.614 35.0906 129.193 C 35.5576 128.868 35.963 128.462 36.2878 127.995 C 36.5218 128.391 36.8543 128.719 37.253 128.948 C 37.6517 129.177 38.1029 129.298 38.5625 129.301 C 38.3479 129.94 38.3488 130.632 38.5651 131.27 C 38.7814 131.909 39.2011 132.458 39.7598 132.835 C 38.7811 133.002 37.8523 133.387 37.0421 133.961 L 37.078 133.985 Z M 50.8581 135.363 C 50.2373 134.924 49.4735 134.737 48.7204 134.84 C 47.9673 134.942 47.281 135.326 46.7995 135.914 C 46.6753 135.508 46.4485 135.141 46.141 134.848 C 46.9072 134.489 48.5355 133.65 48.2242 132.667 C 47.6495 132.428 46.8115 134.429 45.1593 134.501 C 41.9387 135.387 41.0647 131.541 44.1656 130.75 C 45.3628 129.552 41.5915 130.858 41.6873 132.919 C 41.4239 132.679 40.969 132.799 40.6338 132.787 C 39.4365 132.044 38.2393 130.822 38.9098 129.349 C 39.6161 129.6 43.3515 127.779 41.3042 127.599 C 35.2223 130.691 35.7012 123.909 40.5739 122.495 C 40.6198 122.516 40.6701 122.526 40.7206 122.525 C 40.7711 122.523 40.8205 122.509 40.8647 122.484 C 40.909 122.46 40.9469 122.425 40.9754 122.384 C 41.0039 122.342 41.0222 122.294 41.0288 122.244 C 40.2985 120.602 34.5279 125.347 36.1561 127.707 C 34.9589 128.905 32.8877 130.008 31.1756 129.516 C 31.5228 127.456 34.2046 125.994 35.761 124.904 C 36.1681 123.706 30.8524 127.947 31.0799 128.762 C 31.3313 126.365 34.6716 125.706 35.6772 123.61 C 35.7371 123.406 35.4498 123.382 35.4258 123.61 C 34.2286 125.766 30.5291 126.473 30.8404 129.421 C 28.5777 128.534 29.6432 125.826 31.1996 124.748 C 32.7919 124.532 34.6356 123.849 35.0786 122.184 C 35.3563 122.268 35.6407 122.328 35.9286 122.364 C 34.9828 123.562 37.4611 125.095 36.9223 123.67 C 36.623 123.466 36.2279 123.202 36.3477 122.783 C 36.4055 122.748 36.45 122.695 36.4739 122.632 C 36.4978 122.569 36.4997 122.5 36.4794 122.435 C 36.8745 122.435 37.2815 122.507 37.6766 122.495 C 38.0717 122.483 38.3471 122.172 38.6464 122.004 C 38.814 122.004 39.1013 121.944 38.8978 121.765 C 39.3745 121.382 39.7165 120.858 39.8738 120.267 C 40.0311 119.676 39.9953 119.051 39.7718 118.482 C 40.0591 118.278 39.6401 117.775 39.1372 117.284 C 39.8635 117.311 40.5898 117.231 41.2922 117.044 C 41.1668 117.289 41.0987 117.559 41.0931 117.833 C 41.0875 118.108 41.1446 118.381 41.26 118.63 C 41.3754 118.88 41.5461 119.1 41.7592 119.273 C 41.9722 119.447 42.2219 119.569 42.4894 119.632 C 40.2506 121.237 40.957 124.329 43.8543 124.329 C 39.3288 128.438 45.0515 133.147 48.2361 127.815 C 48.4516 127.516 48.9066 126.869 48.2361 126.761 C 48.3439 126.857 48.2361 126.988 48.1763 127.06 C 47.2305 128.426 44.7283 130.235 43.4712 128.989 C 44.6086 127.504 46.0452 126.593 46.8114 124.688 C 47.3861 127.276 50.9538 126.785 52.5821 125.347 C 52.582 125.429 52.6016 125.51 52.6391 125.583 C 52.6765 125.656 52.7309 125.719 52.7976 125.766 C 48.3678 126.437 44.8599 133.854 51.4208 133.758 C 51.0576 134.207 50.8478 134.762 50.8221 135.339 L 50.8581 135.363 Z M 53.3962 131.553 C 52.6787 132.246 51.744 132.669 50.7503 132.751 C 50.7806 132.67 50.7806 132.581 50.7503 132.5 C 52.4863 130.798 54.0786 128.666 53.6596 126.102 C 54.1583 126.169 54.6276 126.376 55.0124 126.701 C 54.9645 128.654 55.1082 130.187 53.3603 131.529 L 53.3962 131.553 Z M 55.8505 134.213 C 55.2115 133.503 54.839 132.592 54.7969 131.637 C 55.3878 130.973 55.7999 130.169 55.9942 129.301 C 57.0004 129.82 57.8019 130.665 58.2689 131.697 C 58.0055 131.913 58.2689 132.284 58.2689 132.548 C 58.2689 132.056 55.623 128.809 55.8744 130.223 C 56.8671 130.902 57.6046 131.893 57.9696 133.039 C 58.2689 133.159 58.2091 133.662 58.3288 133.925 C 58.4485 134.189 58.7718 134.716 58.6281 135.124 C 58.7957 135.016 58.7119 134.8 58.7119 134.644 C 58.8202 134.963 59.0101 135.248 59.2626 135.471 C 58.6281 135.537 57.987 135.455 57.3891 135.233 C 56.7912 135.01 56.2524 134.653 55.8146 134.189 L 55.8505 134.213 Z M 74.1801 129.421 C 74.1082 129.121 73.749 129.061 73.5216 128.929 C 71.7377 128.127 69.6426 125.994 71.0673 124.137 C 73.2342 124.52 74.2639 126.916 75.8562 127.887 C 76.1696 128.244 76.5892 128.492 77.0534 128.594 C 76.7461 129.056 76.2881 129.397 75.7575 129.559 C 75.2269 129.72 74.6566 129.693 74.1441 129.48 L 74.1801 129.421 Z M 77.1492 127.192 C 77.2234 127.548 77.2234 127.915 77.1492 128.27 C 74.8505 127.36 75.0301 123.574 72.0011 123.67 C 72.5046 123.432 73.0693 123.357 73.6174 123.454 C 73.5946 123.528 73.5666 123.6 73.5335 123.67 C 74.3449 123.971 75.0833 124.44 75.7003 125.047 C 76.3173 125.654 76.7988 126.385 77.1132 127.192 L 77.1492 127.192 Z M 74.9702 126.473 C 74.1176 125.319 72.9491 124.437 71.606 123.933 C 73.6533 123.849 74.2878 125.203 74.9343 126.473 L 74.9702 126.473 Z M 84.0093 129.9 C 83.974 129.891 83.9371 129.891 83.902 129.901 C 83.8669 129.91 83.8347 129.928 83.8084 129.953 C 83.7821 129.978 83.7626 130.009 83.7517 130.044 C 83.7408 130.079 83.7388 130.116 83.7459 130.151 C 83.5536 130.305 83.3398 130.431 83.1114 130.523 C 83.4226 127.563 79.7232 126.869 78.526 124.712 C 78.526 124.52 78.2147 124.532 78.2746 124.712 C 79.2563 126.821 82.6205 127.48 82.8719 129.876 C 83.1114 129.073 77.7598 124.748 78.1908 126.018 C 79.7472 127.108 82.4289 128.57 82.7761 130.631 C 81.0641 131.122 78.9929 130.032 77.7957 128.821 C 78.7295 126.569 76.5985 124.652 74.8146 123.538 C 74.8146 123.406 74.7068 123.37 74.5991 123.382 C 74.2758 123.298 73.9406 123.082 73.6533 123.035 L 73.6533 123.094 C 73.1829 122.994 72.6969 122.991 72.2254 123.086 C 71.7538 123.181 71.3067 123.371 70.9116 123.646 C 70.8823 123.646 70.8536 123.654 70.8283 123.669 C 70.8031 123.683 70.7821 123.705 70.7676 123.73 C 70.7531 123.756 70.7454 123.784 70.7455 123.814 C 70.7455 123.843 70.7533 123.872 70.768 123.897 L 70.6482 124.041 C 70.0177 124.113 69.3806 123.983 68.8284 123.67 C 68.8192 123.637 68.7995 123.608 68.7725 123.588 C 68.7455 123.568 68.7126 123.557 68.6788 123.557 C 68.645 123.557 68.6121 123.568 68.5851 123.588 C 68.5581 123.608 68.5384 123.637 68.5291 123.67 C 68.8404 124.293 69.8102 124.305 70.4447 124.364 C 70.2635 124.736 70.1633 125.142 70.1509 125.555 C 70.1385 125.968 70.2142 126.379 70.3729 126.761 C 70.0137 126.677 67.9784 128.246 68.7686 128.402 C 69.3433 128.115 69.6905 127.348 70.337 127.108 C 70.3493 127.121 70.3641 127.132 70.3806 127.139 C 70.3971 127.146 70.4148 127.15 70.4327 127.15 C 70.4507 127.15 70.4684 127.146 70.4849 127.139 C 70.5013 127.132 70.5162 127.121 70.5285 127.108 C 70.9165 127.799 71.4471 128.4 72.0849 128.869 C 72.0644 128.915 72.0538 128.964 72.0538 129.013 C 72.0538 129.063 72.0644 129.112 72.0849 129.157 C 71.2122 129.645 70.5196 130.401 70.1095 131.314 C 69.8784 131.295 69.6462 131.295 69.4151 131.314 C 69.7144 130.044 69.0918 128.402 67.7749 128.21 C 66.1586 127.252 61.3218 131.805 63.3571 133.003 C 64.0156 133.003 63.7163 132.116 63.86 131.697 C 64.1308 130.917 64.5982 130.221 65.217 129.675 C 65.8357 129.129 66.5848 128.753 67.3918 128.582 C 67.4468 128.617 67.5128 128.63 67.5769 128.619 C 67.641 128.607 67.6987 128.573 67.739 128.522 C 68.9362 128.798 68.8045 130.319 68.9362 131.278 C 68.3437 131.293 67.7667 131.471 67.2684 131.792 C 66.7701 132.113 66.3696 132.565 66.1108 133.099 C 65.494 132.862 64.8268 132.787 64.1729 132.881 C 63.519 132.976 62.9001 133.236 62.3754 133.638 C 62.4194 132.794 62.2262 131.956 61.8178 131.216 C 61.4094 130.477 60.802 129.868 60.0647 129.456 C 59.8732 129.205 59.6457 129.624 59.9809 129.696 C 62.0761 130.762 62.7346 133.842 60.6753 135.303 L 60.5317 135.303 C 58.7478 135.219 59.3344 132.979 58.64 131.709 C 58.7478 130.786 57.0238 129.037 56.0421 128.798 C 56.0782 128.464 56.0539 128.128 55.9702 127.803 C 56.0166 127.857 56.0806 127.893 56.1508 127.903 C 56.221 127.914 56.2927 127.9 56.3533 127.863 C 57.2496 128.532 58.3022 128.961 59.4109 129.108 C 60.5195 129.254 61.6473 129.115 62.6867 128.702 C 62.76 128.978 62.9123 129.228 63.1249 129.419 C 63.3375 129.611 63.6012 129.736 63.8839 129.78 C 63.9633 129.789 64.0432 129.767 64.1061 129.718 C 64.1689 129.668 64.2096 129.596 64.2191 129.516 C 64.2286 129.437 64.2063 129.357 64.1569 129.294 C 64.1075 129.231 64.0351 129.19 63.9557 129.181 C 63.5966 129.097 63.1536 128.917 63.1177 128.498 C 63.4724 128.308 63.8126 128.092 64.1353 127.851 L 64.2311 127.851 C 64.2311 128.043 63.8719 128.881 64.1234 128.929 C 64.3748 128.977 64.267 128.534 64.3388 128.366 C 64.7339 126.401 67.3798 125.97 67.3199 123.646 C 68.4214 124.329 67.8467 126.042 67.6432 127.108 C 67.5594 127.348 67.1763 127.695 67.4995 127.923 C 68.3376 127.923 68.5411 125.826 68.6249 125.119 C 68.7686 121.801 64.8536 122.639 63.836 124.784 C 63.3097 124.444 62.7252 124.204 62.112 124.077 C 65.2128 122.483 64.0874 118.997 60.7352 119.153 C 60.8549 118.05 57.9696 118.901 57.9337 116.481 C 57.966 116.454 57.9891 116.417 57.9998 116.377 C 58.0105 116.336 58.0084 116.293 57.9936 116.253 C 58.0154 116.257 58.0378 116.256 58.059 116.249 C 58.0802 116.243 58.0997 116.232 58.116 116.217 C 58.1322 116.202 58.1447 116.183 58.1525 116.162 C 58.1604 116.142 58.1633 116.12 58.1611 116.097 C 59.0578 115.523 60.1447 115.327 61.1852 115.552 C 62.2257 115.776 63.1355 116.403 63.7163 117.296 C 63.3092 117.128 60.1246 115.367 61.0106 116.732 C 62.3837 117.146 63.6902 117.755 64.8896 118.542 C 65.4283 118.338 64.8896 119.225 64.7339 119.368 C 64.3388 119.692 62.974 119.548 63.6085 120.267 C 64.1952 120.566 64.8057 120.171 65.3684 119.991 C 65.3684 120.914 66.0269 122.687 67.0326 122.699 C 67.0925 121.765 65.4403 121.501 65.9551 119.428 C 66.3134 119.069 66.5301 118.593 66.5657 118.086 C 69.032 117.272 71.9412 119.572 72.025 122.16 C 72.4321 122.903 72.7913 121.992 72.5877 121.513 C 73.1081 121.645 73.6499 121.669 74.1801 121.585 C 74.3783 122.041 74.6723 122.45 75.0421 122.783 C 74.8266 122.963 75.1259 123.082 75.2935 123.011 C 75.5928 123.19 75.9041 123.598 76.2632 123.502 C 76.6632 123.512 77.0635 123.492 77.4604 123.442 C 77.4378 123.506 77.4386 123.576 77.4627 123.64 C 77.4868 123.703 77.5327 123.756 77.5922 123.789 C 77.7119 124.209 77.3288 124.484 77.0175 124.676 C 76.4787 126.114 78.957 124.52 78.0112 123.382 C 78.2983 123.337 78.5823 123.273 78.8612 123.19 C 79.2922 124.856 81.1479 125.587 82.7402 125.754 C 83.9375 126.737 84.9671 128.714 83.9734 129.9 L 84.0093 129.9 Z M 84.6319 127.012 C 84.6319 127.096 84.5241 127.204 84.4882 127.312 C 84.2032 126.775 83.8217 126.296 83.3628 125.898 C 84.0823 125.976 84.8096 125.94 85.5178 125.79 C 85.5286 125.97 85.5776 126.146 85.6615 126.305 C 85.4299 126.284 85.1978 126.342 85.004 126.471 C 84.8101 126.599 84.666 126.79 84.5959 127.012 L 84.6319 127.012 Z M 86.8228 128.21 C 86.7512 129.295 86.9315 130.382 87.3496 131.385 C 86.2242 130.187 87.1819 128.151 86.1523 126.857 L 86.6551 127.288 C 86.6368 127.355 86.6368 127.425 86.6551 127.492 L 86.8348 127.599 C 86.715 127.815 86.8108 128.067 86.7869 128.282 L 86.8228 128.21 Z M 87.3855 127.192 C 87.2107 127.043 87.0223 126.91 86.8228 126.797 C 86.3439 126.461 85.7573 126.042 85.8291 125.395 C 86.3841 125.164 86.8977 124.845 87.3496 124.448 C 87.6608 124.976 88.451 124.844 88.9658 124.928 C 90.7617 125.155 93.0843 125.419 94.1857 126.988 C 94.1534 127.064 94.1368 127.146 94.1368 127.228 C 94.1368 127.31 94.1534 127.392 94.1857 127.468 C 92.1265 128.893 89.4447 128.079 87.3496 127.216 L 87.3855 127.192 Z M 100.89 129.277 C 100.186 129.159 99.4728 129.107 98.7591 129.121 C 98.7306 128.959 98.6905 128.798 98.6394 128.642 C 99.4051 128.756 100.151 128.977 100.854 129.301 L 100.89 129.277 Z" stroke-linecap="round" />
</g>
		<g transform="matrix(1 0 0 1 -8.36 64.48)" clip-path="url(#CLIPPATH_105)"  >
<clipPath id="CLIPPATH_105" >
	<rect transform="matrix(1 0 0 1 8.36 -64.48)" id="clip0_110_1504" x="-85.5" y="-70" rx="0" ry="0" width="171" height="140" />
</clipPath>
<path style="stroke: rgb(27,27,29); stroke-width: 1; stroke-dasharray: none; stroke-linecap: butt; stroke-dashoffset: 0; stroke-linejoin: miter; stroke-miterlimit: 4; fill: rgb(27,27,29); fill-rule: nonzero; opacity: 1;" vector-effect="non-scaling-stroke"  transform=" translate(-77.14, -134.48)" d="M 78.586 133.075 C 78.7775 132.069 75.0781 135.639 75.7725 136.07 C 76.4987 134.892 77.4558 133.873 78.586 133.075 Z" stroke-linecap="round" />
</g>
		<g transform="matrix(1 0 0 1 -15.71 64.52)" clip-path="url(#CLIPPATH_106)"  >
<clipPath id="CLIPPATH_106" >
	<rect transform="matrix(1 0 0 1 15.71 -64.52)" id="clip0_110_1504" x="-85.5" y="-70" rx="0" ry="0" width="171" height="140" />
</clipPath>
<path style="stroke: rgb(27,27,29); stroke-width: 1; stroke-dasharray: none; stroke-linecap: butt; stroke-dashoffset: 0; stroke-linejoin: miter; stroke-miterlimit: 4; fill: rgb(27,27,29); fill-rule: nonzero; opacity: 1;" vector-effect="non-scaling-stroke"  transform=" translate(-69.79, -134.52)" d="M 72.504 135.926 C 69.1996 136.106 71.4624 131.134 66.7812 133.099 C 66.8531 133.278 67.0925 133.099 67.2242 133.099 C 70.2891 132.344 69.7145 133.961 70.5645 135.351 C 69.8412 134.837 69.3337 134.073 69.1398 133.207 C 67.6792 132.368 69.5827 136.561 72.1448 136.394 C 72.1773 136.405 72.2122 136.409 72.2463 136.404 C 72.2805 136.399 72.3131 136.386 72.3412 136.366 C 72.3694 136.346 72.3923 136.32 72.4082 136.289 C 72.424 136.258 72.4322 136.224 72.4322 136.19 C 72.7913 136.346 73.0188 135.902 72.504 135.926 Z" stroke-linecap="round" />
</g>
</g>
</g>
</svg>