<?xml version="1.0" encoding="UTF-8" standalone="no" ?>
<!DOCTYPE svg PUBLIC "-//W3C//DTD SVG 1.1//EN" "http://www.w3.org/Graphics/SVG/1.1/DTD/svg11.dtd">
<svg xmlns="http://www.w3.org/2000/svg" xmlns:xlink="http://www.w3.org/1999/xlink" version="1.1" width="1080" height="1080" viewBox="0 0 1080 1080" xml:space="preserve">
<desc>Created with Fabric.js 5.2.4</desc>
<defs>
</defs>
<g transform="matrix(1 0 0 1 540 540)" id="8bdba176-a5b7-41b5-a543-745220543331"  >
<rect style="stroke: none; stroke-width: 1; stroke-dasharray: none; stroke-linecap: butt; stroke-dashoffset: 0; stroke-linejoin: miter; stroke-miterlimit: 4; fill: rgb(255,255,255); fill-rule: nonzero; opacity: 1; visibility: hidden;" vector-effect="non-scaling-stroke"  x="-540" y="-540" rx="0" ry="0" width="1080" height="1080" />
</g>
<g transform="matrix(1 0 0 1 540 540)" id="36c49c95-4be3-4b1c-b891-54e98aabc533"  >
</g>
<g transform="matrix(5.93 0 0 5.93 540 540)"  >
<g style=""   >
		<g transform="matrix(1 0 0 1 13.76 -28.23)"  >
<path style="stroke: rgb(27,27,29); stroke-width: 0.8; stroke-dasharray: none; stroke-linecap: butt; stroke-dashoffset: 0; stroke-linejoin: miter; stroke-miterlimit: 4; fill: rgb(27,27,29); fill-rule: nonzero; opacity: 1;" vector-effect="non-scaling-stroke"  transform=" translate(-104.76, -42.77)" d="M 107.62 40.3149 C 107.458 39.9033 107.203 39.5344 106.875 39.237 C 106.548 38.9395 106.157 38.7215 105.731 38.5996 C 105.18 38.4485 104.599 38.4463 104.047 38.5932 C 103.495 38.74 102.992 39.0307 102.589 39.4356 C 102.114 39.9612 101.786 40.6025 101.638 41.2951 C 101.45 42.024 101.413 42.7837 101.529 43.5273 C 101.646 44.271 101.913 44.9829 102.315 45.6195 C 102.565 46.0092 102.897 46.34 103.288 46.5888 C 103.679 46.8377 104.119 46.9988 104.578 47.0609 C 105.256 47.0845 105.923 46.884 106.475 46.4906 C 107.027 46.0971 107.435 45.5326 107.634 44.8843 C 108.095 43.7292 108.181 42.4584 107.879 41.2519 C 107.823 40.9318 107.736 40.618 107.62 40.3149 Z M 104.809 42.8375 C 105.133 41.5897 105.133 40.2798 104.809 39.032 C 106.337 42.0302 104.809 42.7798 104.434 45.5185 C 104.002 44.6104 104.636 43.7167 104.809 42.8375 Z M 102.964 45.4897 C 101.868 43.5438 101.666 40.2861 104.088 38.9311 C 104.6 40.2457 104.685 41.6878 104.333 43.0537 C 104.017 43.6099 103.872 44.2469 103.915 44.8852 C 103.959 45.5235 104.189 46.1348 104.578 46.6429 C 103.91 46.4846 103.33 46.0706 102.964 45.4897 Z M 107.288 44.2069 C 107.062 45.1601 106.479 45.9905 105.659 46.5276 C 105.438 46.5881 105.211 46.6267 104.982 46.6429 C 103.944 43.8609 107.403 41.8861 104.881 38.7581 C 107.85 39.1473 107.533 42.3762 107.245 44.2069 L 107.288 44.2069 Z" stroke-linecap="round" />
</g>
		<g transform="matrix(1 0 0 1 22.18 -3.72)"  >
<path style="stroke: rgb(27,27,29); stroke-width: 0.8; stroke-dasharray: none; stroke-linecap: butt; stroke-dashoffset: 0; stroke-linejoin: miter; stroke-miterlimit: 4; fill: rgb(27,27,29); fill-rule: nonzero; opacity: 1;" vector-effect="non-scaling-stroke"  transform=" translate(-113.18, -67.28)" d="M 151.613 113.714 C 151.613 103.624 151.354 93.5334 150.69 83.4433 C 150.2 71.9117 151.397 60.1206 148.644 48.8484 C 146.395 40.3727 143.397 31.9979 142.027 23.3348 C 142.589 18.7192 142.676 14.0581 142.287 9.42476 C 142.185 7.88732 141.879 6.37017 141.379 4.91301 C 140.352 4.09654 139.11 3.59579 137.804 3.47156 C 133.119 2.49138 128.262 2.75085 123.505 2.49139 C 113.544 2.26075 103.454 0.703986 93.5802 1.04993 C 91.245 0.285965 92.3837 14.1383 91.836 16.214 C 90.7549 27.7456 83.0575 37.4033 78.8629 47.9259 C 75.98 60.5386 76.6431 73.6559 75.7639 86.4992 C 75.9224 99.4723 74.135 112.69 74.8269 125.505 C 79.281 132.438 98.3946 129.959 106.279 131.271 C 111.065 131.271 126.099 135.494 128.953 132.481 C 133.869 131.04 138.38 128.258 143.526 127.508 C 152.91 126.831 151.671 121.065 151.613 113.714 Z M 145.285 44.8268 C 151.296 62.9314 148.629 82.146 149.97 100.856 C 149.393 134.99 153.732 118.298 128.737 131.588 C 128.564 131.444 128.276 131.501 128.06 131.487 C 129.876 106.478 126.82 81.137 130.193 56.1855 C 132.936 45.8947 136.678 35.8964 141.364 26.333 C 142.229 32.5744 144.089 38.5997 145.285 44.8268 Z M 76.9026 107.069 C 77.5945 87.7677 78.2287 68.3801 80.8377 49.2232 C 83.8792 39.3349 88.8089 30.124 92.7297 20.596 C 94.7189 14.7437 93.3928 8.41574 93.5802 2.34723 C 95.7568 0.90578 98.9856 2.34723 101.407 2.43372 C 109.696 3.16886 117.998 3.70219 126.316 3.87517 C 130.467 4.33643 137.112 2.9382 140.384 5.56164 C 140.6 5.83552 140.571 6.26796 140.86 6.46976 C 141.148 12.9563 140.11 19.4428 139.923 25.9294 C 136.016 35.1258 131.173 44.034 128.665 53.807 C 127.408 58.587 126.879 63.5289 127.094 68.4666 C 126.849 89.5262 128.665 110.716 126.762 131.689 C 123.058 132.28 119.036 131.487 115.303 130.954 C 108.096 130.564 100.888 129.209 93.6811 128.806 C 88.5351 127.653 79.5981 129.772 76.4846 124.871 C 76.5711 118.961 76.571 113.007 76.9026 107.069 Z" stroke-linecap="round" />
</g>
		<g transform="matrix(1 0 0 1 14.03 -27.88)"  >
<path style="stroke: rgb(27,27,29); stroke-width: 0.8; stroke-dasharray: none; stroke-linecap: butt; stroke-dashoffset: 0; stroke-linejoin: miter; stroke-miterlimit: 4; fill: rgb(27,27,29); fill-rule: nonzero; opacity: 1;" vector-effect="non-scaling-stroke"  transform=" translate(-105.03, -43.12)" d="M 110.733 39.623 C 110.426 38.5353 109.806 37.5619 108.95 36.8239 C 108.094 36.0858 107.04 35.6155 105.919 35.4716 C 104.98 35.4405 104.045 35.598 103.169 35.9347 C 102.292 36.2715 101.492 36.7806 100.816 37.432 C 98.3512 39.6374 98.3223 44.0771 99.6773 46.8591 C 100.417 48.3975 101.679 49.6235 103.238 50.3186 C 103.802 50.5956 104.419 50.7504 105.047 50.7727 C 105.676 50.7951 106.302 50.6845 106.885 50.4483 C 110.791 48.6898 112.131 43.5438 110.733 39.623 Z M 109.753 43.6159 C 109.378 50.6213 101.335 50.924 100.196 44.2789 C 98.5241 34.5059 110.503 34.059 109.753 43.6159 Z" stroke-linecap="round" />
</g>
		<g transform="matrix(1 0 0 1 10.78 7.97)"  >
<path style="stroke: rgb(27,27,29); stroke-width: 0.8; stroke-dasharray: none; stroke-linecap: butt; stroke-dashoffset: 0; stroke-linejoin: miter; stroke-miterlimit: 4; fill: rgb(27,27,29); fill-rule: nonzero; opacity: 1;" vector-effect="non-scaling-stroke"  transform=" translate(-101.78, -78.97)" d="M 120.751 66.6504 C 122.366 62.8017 101.277 62.6864 98.3365 62.2396 C 94.5311 62.5134 85.8391 60.0342 83.3743 62.8306 C 83.2013 63.1621 83.0139 63.854 83.2733 64.1855 C 83.2733 71.6523 83.0571 79.1046 82.913 86.5713 C 83.1148 88.1569 82.2067 90.3911 83.1724 91.6596 C 84.0806 93.865 90.6103 93.6056 92.9167 94.3263 C 101.436 95.0614 110.315 97.2092 118.762 96.1713 C 120.405 96.7047 119.641 89.0794 119.973 87.8109 C 120.578 80.4019 120.838 74.4198 120.751 66.6504 Z M 119.8 70.1243 C 119.396 78.4991 118.358 86.874 118.546 95.2777 C 118.185 95.8398 117.407 95.6092 116.816 95.6524 C 111.555 95.5612 106.308 95.0794 101.119 94.211 C 95.8284 93.7353 90.5527 93.0146 85.2626 92.2362 C 82.9995 92.0344 83.9797 90.665 83.8211 89.0361 C 83.9653 80.5316 83.9653 72.0222 83.8211 63.5081 C 83.8585 63.4887 83.8914 63.4617 83.9178 63.4288 C 83.9442 63.396 83.9634 63.358 83.9743 63.3173 C 83.9851 63.2766 83.9874 63.2341 83.9809 63.1925 C 83.9744 63.1509 83.9592 63.1111 83.9364 63.0756 C 87.4392 61.0864 96.1167 63.3639 100.542 63.2342 C 106.783 63.9693 113.515 63.7387 119.425 65.7135 C 119.511 66.0883 119.612 66.6216 119.958 66.8378 C 119.944 67.9477 119.886 69.0144 119.8 70.1243 Z" stroke-linecap="round" />
</g>
		<g transform="matrix(1 0 0 1 12.08 33.51)"  >
<path style="stroke: rgb(27,27,29); stroke-width: 0.8; stroke-dasharray: none; stroke-linecap: butt; stroke-dashoffset: 0; stroke-linejoin: miter; stroke-miterlimit: 4; fill: rgb(27,27,29); fill-rule: nonzero; opacity: 1;" vector-effect="non-scaling-stroke"  transform=" translate(-103.08, -104.51)" d="M 115.014 104.676 C 107.303 103.825 99.4755 103.825 91.7349 103.234 C 91.3745 103.148 90.4376 103.105 90.8845 103.696 C 98.5097 104.935 106.38 104.834 114.077 105.757 C 114.856 106.06 115.995 105.325 115.014 104.676 Z" stroke-linecap="round" />
</g>
		<g transform="matrix(1 0 0 1 8.96 36.53)"  >
<path style="stroke: rgb(27,27,29); stroke-width: 0.8; stroke-dasharray: none; stroke-linecap: butt; stroke-dashoffset: 0; stroke-linejoin: miter; stroke-miterlimit: 4; fill: rgb(27,27,29); fill-rule: nonzero; opacity: 1;" vector-effect="non-scaling-stroke"  transform=" translate(-99.96, -107.53)" d="M 104.665 108.02 C 105.184 108.193 106.106 107.89 105.573 107.256 C 101.826 106.999 98.0684 106.936 94.3151 107.069 C 94.276 107.08 94.2415 107.104 94.2169 107.136 C 94.1924 107.169 94.1792 107.208 94.1792 107.249 C 94.1792 107.29 94.1924 107.329 94.2169 107.362 C 94.2415 107.394 94.276 107.418 94.3151 107.429 C 97.7314 107.602 101.22 107.789 104.665 108.02 Z" stroke-linecap="round" />
</g>
		<g transform="matrix(1 0 0 1 7.37 39.78)"  >
<path style="stroke: rgb(27,27,29); stroke-width: 0.8; stroke-dasharray: none; stroke-linecap: butt; stroke-dashoffset: 0; stroke-linejoin: miter; stroke-miterlimit: 4; fill: rgb(27,27,29); fill-rule: nonzero; opacity: 1;" vector-effect="non-scaling-stroke"  transform=" translate(-98.37, -110.78)" d="M 107.879 110.759 C 101.609 110.11 95.2809 109.937 88.9817 109.822 C 88.9521 109.79 88.9163 109.765 88.8767 109.748 C 88.837 109.731 88.7942 109.722 88.751 109.722 C 88.7079 109.722 88.6652 109.731 88.6255 109.748 C 88.5858 109.765 88.5501 109.79 88.5204 109.822 C 88.2466 110.773 90.9421 110.225 91.5619 110.427 C 93.0466 109.98 110.935 113.555 107.879 110.759 Z" stroke-linecap="round" />
</g>
		<g transform="matrix(1 0 0 1 0.29 6.13)"  >
<path style="stroke: rgb(27,27,29); stroke-width: 0.8; stroke-dasharray: none; stroke-linecap: butt; stroke-dashoffset: 0; stroke-linejoin: miter; stroke-miterlimit: 4; fill: rgb(27,27,29); fill-rule: nonzero; opacity: 1;" vector-effect="non-scaling-stroke"  transform=" translate(-91.29, -77.13)" d="M 93.6374 75.8613 C 91.5761 75.8613 92.3546 79.1622 91.2302 80.4595 C 88.1743 86.0524 87.6554 74.2613 89.7888 72.8919 C 90.8554 73.1514 90.3653 77.0865 91.5473 75.2559 C 92.4987 73.5117 90.4518 69.9802 88.6644 72.1712 C 87.2229 74.7946 86.4735 80.8199 89.3564 82.6793 C 90.7978 83.2848 91.6338 80.9785 92.1239 79.9262 C 93.7672 86.1677 97.1978 77.0865 93.6374 75.8613 Z M 94.3581 79.3352 C 94.366 79.694 94.3025 80.0507 94.1714 80.3848 C 94.0402 80.7189 93.8441 81.0235 93.5942 81.2811 C 92.8158 80.7622 92.7581 79.6523 92.7437 78.7875 C 93.45 78.4703 92.9311 77.346 93.4933 76.8847 C 93.8063 77.2062 94.0456 77.5919 94.1949 78.015 C 94.3443 78.438 94.4 78.8885 94.3581 79.3352 Z" stroke-linecap="round" />
</g>
		<g transform="matrix(1 0 0 1 7.21 7.52)"  >
<path style="stroke: rgb(27,27,29); stroke-width: 0.8; stroke-dasharray: none; stroke-linecap: butt; stroke-dashoffset: 0; stroke-linejoin: miter; stroke-miterlimit: 4; fill: rgb(27,27,29); fill-rule: nonzero; opacity: 1;" vector-effect="non-scaling-stroke"  transform=" translate(-98.21, -78.52)" d="M 98.928 74.0883 C 98.4821 73.9892 98.0159 74.0398 97.6018 74.2325 C 96.6504 73.9586 96.982 77.1154 96.7514 77.7641 C 96.6788 77.8018 96.618 77.8587 96.5756 77.9286 C 96.5332 77.9985 96.5107 78.0787 96.5107 78.1605 C 96.5107 78.2422 96.5332 78.3224 96.5756 78.3923 C 96.618 78.4622 96.6788 78.5191 96.7514 78.5568 C 96.7514 79.292 96.0451 84.5533 97.6595 82.5641 C 97.5442 81.2379 97.4288 79.9118 97.4288 78.5568 C 97.991 78.4127 99.0721 78.9316 99.173 78.0956 C 99.2739 77.2595 98.0919 77.6199 97.4288 77.7208 C 97.419 76.8092 97.4816 75.8982 97.6162 74.9965 C 98.0919 74.5352 98.7406 75.1406 99.2595 75.2559 C 100.341 75.328 99.9658 73.9298 98.928 74.0883 Z" stroke-linecap="round" />
</g>
		<g transform="matrix(1 0 0 1 10.94 8.41)"  >
<path style="stroke: rgb(27,27,29); stroke-width: 0.8; stroke-dasharray: none; stroke-linecap: butt; stroke-dashoffset: 0; stroke-linejoin: miter; stroke-miterlimit: 4; fill: rgb(27,27,29); fill-rule: nonzero; opacity: 1;" vector-effect="non-scaling-stroke"  transform=" translate(-101.94, -79.41)" d="M 102.027 74.4341 C 101.756 74.4742 101.491 74.5418 101.234 74.636 C 100.47 73.8576 100.744 77.3459 100.499 77.8216 C 100.499 79.263 99.389 83.6595 100.369 84.4234 C 101.494 84.4234 100.701 80.7766 101.018 79.8108 C 101.393 80.0847 103.742 80.618 103.209 79.609 C 102.546 79.364 101.767 79.5225 101.047 79.3063 C 101.195 77.9708 101.272 76.6284 101.277 75.2846 C 101.94 75.2512 102.604 75.3341 103.238 75.5297 C 103.346 75.5564 103.461 75.5493 103.565 75.5092 C 103.67 75.469 103.759 75.3978 103.822 75.3052 C 103.885 75.2125 103.918 75.1029 103.916 74.991 C 103.915 74.8791 103.879 74.7703 103.814 74.6792 C 103.353 74.2756 102.603 74.4197 102.027 74.4341 Z" stroke-linecap="round" />
</g>
		<g transform="matrix(1 0 0 1 17.03 8.97)"  >
<path style="stroke: rgb(27,27,29); stroke-width: 0.8; stroke-dasharray: none; stroke-linecap: butt; stroke-dashoffset: 0; stroke-linejoin: miter; stroke-miterlimit: 4; fill: rgb(27,27,29); fill-rule: nonzero; opacity: 1;" vector-effect="non-scaling-stroke"  transform=" translate(-108.03, -79.97)" d="M 111.166 76.409 C 109.22 75.89 108.614 80.4018 108.614 81.8432 C 106.366 85.6919 104.722 82.2468 105.385 79.4504 C 107.317 79.9693 108.975 76.9567 107.735 75.4864 C 105.89 74.1747 104.506 78.0522 104.376 79.4216 C 103.656 82.4342 105.962 86.9604 108.83 83.1694 C 109.955 85.937 113.04 84.2216 111.252 83.8757 C 110.358 84.2216 109.522 83.1838 109.45 82.3621 C 110.344 80.7477 113.054 77.9225 111.166 76.409 Z M 107.173 76.0774 C 107.576 76.9855 106.712 78.6 105.645 78.5135 C 105.904 77.7063 106.236 76.5099 107.173 76.0774 Z M 109.666 80.1999 C 109.801 79.1569 110.197 78.1649 110.82 77.317 C 110.683 78.3795 110.281 79.3906 109.652 80.2576 L 109.666 80.1999 Z" stroke-linecap="round" />
</g>
		<g transform="matrix(1 0 0 1 56.9 37.55)"  >
<path style="stroke: rgb(27,27,29); stroke-width: 0.8; stroke-dasharray: none; stroke-linecap: butt; stroke-dashoffset: 0; stroke-linejoin: miter; stroke-miterlimit: 4; fill: rgb(27,27,29); fill-rule: nonzero; opacity: 1;" vector-effect="non-scaling-stroke"  transform=" translate(-147.9, -108.55)" d="M 147.534 118.37 C 147.606 111.753 147.793 105.137 147.836 98.5208 C 147.836 98.2757 148.24 98.2613 148.24 98.5208 C 148.139 103.71 148.24 108.885 148.24 114.06 C 148.33 115.565 148.282 117.075 148.096 118.571 C 148.069 118.646 148.014 118.707 147.942 118.741 C 147.871 118.774 147.788 118.778 147.714 118.752 C 147.639 118.725 147.578 118.669 147.545 118.598 C 147.511 118.526 147.507 118.444 147.534 118.37 Z" stroke-linecap="round" />
</g>
		<g transform="matrix(1 0 0 1 55.52 42.36)"  >
<path style="stroke: rgb(27,27,29); stroke-width: 0.8; stroke-dasharray: none; stroke-linecap: butt; stroke-dashoffset: 0; stroke-linejoin: miter; stroke-miterlimit: 4; fill: rgb(27,27,29); fill-rule: nonzero; opacity: 1;" vector-effect="non-scaling-stroke"  transform=" translate(-146.52, -113.36)" d="M 146.092 121.238 C 146.092 115.934 146.467 110.644 146.597 105.382 C 146.597 105.152 146.957 105.152 146.943 105.382 C 146.784 109.966 146.568 114.55 146.582 119.134 C 146.582 119.84 146.582 120.575 146.582 121.267 C 146.579 121.331 146.552 121.391 146.507 121.436 C 146.461 121.482 146.401 121.509 146.337 121.512 C 146.303 121.51 146.27 121.502 146.239 121.487 C 146.208 121.472 146.181 121.451 146.158 121.426 C 146.135 121.401 146.118 121.371 146.106 121.339 C 146.095 121.306 146.09 121.272 146.092 121.238 Z" stroke-linecap="round" />
</g>
		<g transform="matrix(1 0 0 1 54.1 42.09)"  >
<path style="stroke: rgb(27,27,29); stroke-width: 0.8; stroke-dasharray: none; stroke-linecap: butt; stroke-dashoffset: 0; stroke-linejoin: miter; stroke-miterlimit: 4; fill: rgb(27,27,29); fill-rule: nonzero; opacity: 1;" vector-effect="non-scaling-stroke"  transform=" translate(-145.1, -113.09)" d="M 144.881 119.047 C 144.982 115.054 144.766 111.076 144.881 107.083 C 144.881 107.041 144.898 107.001 144.928 106.971 C 144.957 106.941 144.998 106.925 145.04 106.925 C 145.082 106.925 145.122 106.941 145.152 106.971 C 145.182 107.001 145.198 107.041 145.198 107.083 C 145.198 111.062 145.386 115.026 145.357 119.004 C 145.363 119.067 145.343 119.13 145.302 119.178 C 145.262 119.227 145.204 119.258 145.141 119.263 C 145.078 119.269 145.015 119.25 144.966 119.209 C 144.917 119.168 144.887 119.11 144.881 119.047 Z" stroke-linecap="round" />
</g>
		<g transform="matrix(1 0 0 1 41.19 -0.45)"  >
<path style="stroke: rgb(27,27,29); stroke-width: 0.8; stroke-dasharray: none; stroke-linecap: butt; stroke-dashoffset: 0; stroke-linejoin: miter; stroke-miterlimit: 4; fill: rgb(27,27,29); fill-rule: nonzero; opacity: 1;" vector-effect="non-scaling-stroke"  transform=" translate(-132.19, -70.55)" d="M 132.153 84.9137 C 131.606 78.6205 131.475 72.2978 131.764 65.9874 C 131.795 62.7314 131.992 59.4791 132.355 56.2432 C 132.355 55.9117 132.874 55.9693 132.744 56.3297 C 132.412 58.9306 132.239 61.5492 132.225 64.1712 C 132.081 68.409 131.966 72.6469 132.081 76.8848 C 132.081 78.5425 132.254 80.2578 132.384 81.9011 C 132.384 82.8957 132.528 83.8902 132.542 84.8848 C 132.557 85.1155 132.167 85.1587 132.153 84.9137 Z" stroke-linecap="round" />
</g>
		<g transform="matrix(1 0 0 1 42.86 0.65)"  >
<path style="stroke: rgb(27,27,29); stroke-width: 0.8; stroke-dasharray: none; stroke-linecap: butt; stroke-dashoffset: 0; stroke-linejoin: miter; stroke-miterlimit: 4; fill: rgb(27,27,29); fill-rule: nonzero; opacity: 1;" vector-effect="non-scaling-stroke"  transform=" translate(-133.86, -71.65)" d="M 133.897 87.3928 C 133.796 86.4126 133.681 85.4324 133.609 84.4378 C 132.917 74.9531 133.609 65.4107 133.796 55.8971 C 133.796 55.8589 133.812 55.8222 133.839 55.7952 C 133.866 55.7681 133.902 55.7529 133.941 55.7529 C 133.979 55.7529 134.015 55.7681 134.043 55.7952 C 134.07 55.8222 134.085 55.8589 134.085 55.8971 C 133.912 64.9638 133.523 74.045 134.085 83.0973 C 134.171 84.5387 134.287 85.9081 134.416 87.3207 C 134.407 87.3787 134.379 87.4321 134.338 87.4732 C 134.296 87.5142 134.242 87.5408 134.184 87.5489 C 134.125 87.557 134.066 87.5461 134.015 87.518 C 133.963 87.49 133.922 87.446 133.897 87.3928 Z" stroke-linecap="round" />
</g>
		<g transform="matrix(1 0 0 1 44.69 -12.46)"  >
<path style="stroke: rgb(27,27,29); stroke-width: 0.8; stroke-dasharray: none; stroke-linecap: butt; stroke-dashoffset: 0; stroke-linejoin: miter; stroke-miterlimit: 4; fill: rgb(27,27,29); fill-rule: nonzero; opacity: 1;" vector-effect="non-scaling-stroke"  transform=" translate(-135.69, -58.54)" d="M 135.195 69.346 C 135.195 64.8054 135.512 60.2793 135.598 55.7387 C 135.598 53.1729 135.598 50.5783 135.815 48.0125 C 135.815 47.8395 135.815 47.5224 136.031 47.5369 C 136.074 47.544 136.113 47.5672 136.14 47.602 C 136.167 47.6368 136.179 47.6805 136.175 47.7242 C 135.959 49.6269 136.002 51.5441 135.973 53.49 C 135.973 57.1801 135.858 60.8703 135.728 64.5604 C 135.728 66.1604 135.728 67.7748 135.642 69.3748 C 135.626 69.424 135.595 69.4665 135.552 69.4955 C 135.509 69.5246 135.458 69.5386 135.407 69.5353 C 135.356 69.532 135.307 69.5116 135.268 69.4772 C 135.23 69.4429 135.204 69.3967 135.195 69.346 Z" stroke-linecap="round" />
</g>
		<g transform="matrix(1 0 0 1 26.26 -57.64)"  >
<path style="stroke: rgb(27,27,29); stroke-width: 0.8; stroke-dasharray: none; stroke-linecap: butt; stroke-dashoffset: 0; stroke-linejoin: miter; stroke-miterlimit: 4; fill: rgb(27,27,29); fill-rule: nonzero; opacity: 1;" vector-effect="non-scaling-stroke"  transform=" translate(-117.26, -13.36)" d="M 137.573 15.5364 C 131.663 14.3544 125.623 14.1814 119.656 13.5184 C 115.173 12.9706 110.675 12.5238 106.178 12.2643 C 103.036 12.0769 99.9511 11.5868 96.8232 11.5291 C 96.7511 11.7165 96.4772 11.6445 96.4339 11.5291 C 96.2754 10.9237 98.625 11.2841 98.9853 11.2697 L 103.439 11.6012 C 105.904 11.7886 108.355 11.8895 110.82 12.0192 C 115.576 12.3075 120.348 12.9129 125.104 13.1868 C 129.379 13.2545 133.637 13.7373 137.818 14.6283 C 137.922 14.674 138.007 14.7557 138.056 14.8583 C 138.105 14.961 138.115 15.0778 138.086 15.1877 C 138.056 15.2975 137.988 15.3931 137.894 15.4571 C 137.8 15.5211 137.686 15.5492 137.573 15.5364 Z" stroke-linecap="round" />
</g>
		<g transform="matrix(1 0 0 1 21.01 -60.33)"  >
<path style="stroke: rgb(27,27,29); stroke-width: 0.8; stroke-dasharray: none; stroke-linecap: butt; stroke-dashoffset: 0; stroke-linejoin: miter; stroke-miterlimit: 4; fill: rgb(27,27,29); fill-rule: nonzero; opacity: 1;" vector-effect="non-scaling-stroke"  transform=" translate(-112.01, -10.67)" d="M 127.137 12.1347 C 121.025 11.1401 114.798 11.5149 108.643 10.8662 C 104.987 10.2568 101.293 9.90513 97.5871 9.81396 C 97.3853 9.81396 97.0683 9.81397 96.9385 9.95811 C 96.9405 9.9877 96.9364 10.0174 96.9264 10.0453 C 96.9164 10.0732 96.9008 10.0988 96.8805 10.1204 C 96.8602 10.142 96.8357 10.1593 96.8085 10.171 C 96.7813 10.1828 96.7519 10.1888 96.7223 10.1888 C 96.5493 10.1888 96.4917 10.0013 96.4917 9.8572 C 96.4917 9.4536 96.9097 9.28065 97.2556 9.25182 C 99.8199 9.12935 102.39 9.27426 104.924 9.68424 C 108.334 10.1833 111.771 10.4673 115.216 10.5347 C 119.239 10.4876 123.26 10.7672 127.238 11.3707 C 127.328 11.396 127.406 11.4529 127.458 11.5311 C 127.509 11.6094 127.531 11.7036 127.519 11.7965 C 127.507 11.8894 127.461 11.9748 127.391 12.0369 C 127.321 12.099 127.231 12.1338 127.137 12.1347 Z" stroke-linecap="round" />
</g>
		<g transform="matrix(1 0 0 1 47.41 -61.63)"  >
<path style="stroke: rgb(27,27,29); stroke-width: 0.8; stroke-dasharray: none; stroke-linecap: butt; stroke-dashoffset: 0; stroke-linejoin: miter; stroke-miterlimit: 4; fill: rgb(27,27,29); fill-rule: nonzero; opacity: 1;" vector-effect="non-scaling-stroke"  transform=" translate(-138.41, -9.37)" d="M 138.337 13.2446 C 137.919 13.1725 138.063 12.6824 138.106 12.3797 C 138.193 11.7551 138.265 11.1352 138.323 10.5202 C 138.453 9.01338 138.38 7.49595 138.106 6.00849 C 137.789 6.00849 137.919 5.47513 138.193 5.48954 C 139.043 5.73459 138.928 10.6067 138.842 11.486 C 138.726 11.9184 138.971 13.3022 138.337 13.2446 Z" stroke-linecap="round" />
</g>
		<g transform="matrix(1 0 0 1 5.08 -65.28)"  >
<path style="stroke: rgb(27,27,29); stroke-width: 0.8; stroke-dasharray: none; stroke-linecap: butt; stroke-dashoffset: 0; stroke-linejoin: miter; stroke-miterlimit: 4; fill: rgb(27,27,29); fill-rule: nonzero; opacity: 1;" vector-effect="non-scaling-stroke"  transform=" translate(-96.08, -5.72)" d="M 95.9294 7.60856 C 95.9294 6.9599 95.3961 3.94728 95.9294 3.70224 C 96.1745 3.63016 96.2466 3.90402 96.2177 4.09141 C 96.2177 4.50943 96.2177 4.91306 96.2177 5.33108 C 96.2898 6.06622 96.3763 6.77252 96.4628 7.52207 C 96.4513 7.57974 96.4225 7.63252 96.3802 7.67335 C 96.3379 7.71419 96.2841 7.74114 96.2261 7.75056 C 96.1681 7.75997 96.1085 7.75139 96.0555 7.72601 C 96.0025 7.70063 95.9585 7.65965 95.9294 7.60856 Z" stroke-linecap="round" />
</g>
		<g transform="matrix(1 0 0 1 29.58 58.92)"  >
<path style="stroke: rgb(27,27,29); stroke-width: 0.8; stroke-dasharray: none; stroke-linecap: butt; stroke-dashoffset: 0; stroke-linejoin: miter; stroke-miterlimit: 4; fill: rgb(27,27,29); fill-rule: nonzero; opacity: 1;" vector-effect="non-scaling-stroke"  transform=" translate(-120.58, -129.92)" d="M 122.899 130.377 C 121.53 130.377 120.132 130.305 118.762 130.204 L 117.321 130.118 C 117.277 130.118 117.234 130.109 117.194 130.092 C 117.154 130.076 117.117 130.051 117.086 130.02 C 117.056 129.99 117.031 129.953 117.015 129.913 C 116.998 129.873 116.989 129.83 116.989 129.786 C 116.991 129.74 117.002 129.694 117.022 129.653 C 117.043 129.611 117.071 129.574 117.106 129.544 C 117.142 129.515 117.183 129.492 117.227 129.479 C 117.272 129.466 117.318 129.463 117.364 129.469 C 118.546 129.584 119.728 129.685 120.924 129.772 C 121.977 129.844 122.957 129.873 123.995 129.901 C 124.045 129.914 124.09 129.944 124.122 129.986 C 124.153 130.028 124.169 130.08 124.168 130.132 C 124.165 130.178 124.15 130.221 124.125 130.259 C 124.099 130.297 124.064 130.328 124.024 130.348 C 123.649 130.391 123.274 130.363 122.899 130.377 Z" stroke-linecap="round" />
</g>
		<g transform="matrix(1 0 0 1 69.05 50.66)"  >
<path style="stroke: rgb(27,27,29); stroke-width: 0.8; stroke-dasharray: none; stroke-linecap: butt; stroke-dashoffset: 0; stroke-linejoin: miter; stroke-miterlimit: 4; fill: rgb(27,27,29); fill-rule: nonzero; opacity: 1;" vector-effect="non-scaling-stroke"  transform=" translate(-160.05, -121.66)" d="M 170.294 124.034 C 174.042 120.719 167.598 113.743 162.597 116.957 C 160.665 115.04 156.384 113.829 154.38 115.861 C 155.643 115.346 157.03 115.216 158.367 115.488 C 159.703 115.76 160.929 116.421 161.89 117.389 C 160.103 118.687 160.679 120.272 161.89 121.714 C 159.725 121.156 157.468 121.048 155.26 121.397 C 153.818 120.834 152.002 118.744 153.501 117.418 C 153.76 115.717 150.618 119.422 154.265 121.642 C 153.432 121.862 152.706 122.373 152.218 123.083 C 151.912 123.418 151.743 123.855 151.743 124.308 C 151.743 124.762 151.912 125.199 152.218 125.534 C 151.107 125.885 149.911 125.86 148.816 125.462 L 148.687 126.326 C 149.263 126.456 152.737 126.917 152.506 126.096 L 152.665 126.096 C 154.827 128.244 162.135 129.699 164.197 127.22 C 164.697 126.976 165.089 126.555 165.297 126.038 C 165.504 125.522 165.513 124.946 165.321 124.424 C 166.921 124.833 168.614 124.67 170.106 123.962 L 170.294 124.034 Z M 157.897 121.973 C 158.809 122.001 159.716 122.112 160.607 122.305 C 158.719 122.218 156.827 122.392 154.986 122.824 C 155.897 122.368 156.884 122.08 157.897 121.973 Z M 164.081 126.211 C 163.946 126.335 163.796 126.441 163.634 126.528 C 160.377 127.119 154.178 127.97 152.478 124.236 C 152.503 124.225 152.525 124.21 152.544 124.19 C 152.563 124.17 152.577 124.147 152.587 124.121 C 152.596 124.095 152.6 124.068 152.599 124.041 C 152.597 124.014 152.59 123.987 152.578 123.962 C 152.766 123.962 152.766 123.689 152.737 123.501 C 153.341 122.786 154.188 122.319 155.115 122.189 C 155.156 122.224 155.204 122.249 155.255 122.262 C 155.307 122.276 155.361 122.278 155.413 122.268 C 155.466 122.259 155.515 122.238 155.558 122.207 C 155.602 122.175 155.637 122.135 155.663 122.089 L 156.225 122.089 C 155.231 122.377 152.016 123.977 153.53 124.971 C 153.56 124.98 153.591 124.981 153.622 124.975 C 153.652 124.969 153.681 124.956 153.706 124.937 C 153.73 124.919 153.75 124.894 153.764 124.866 C 153.778 124.839 153.785 124.808 153.785 124.777 C 153.785 124.746 153.778 124.715 153.764 124.687 C 153.75 124.659 153.73 124.635 153.706 124.616 C 153.681 124.598 153.652 124.585 153.622 124.579 C 153.591 124.573 153.56 124.574 153.53 124.582 C 153.515 124.424 153.547 124.265 153.621 124.124 C 153.695 123.983 153.809 123.867 153.948 123.789 C 156.73 122.449 159.483 122.881 162.279 122.795 C 163.678 123.198 165.451 124.899 164.081 126.211 Z M 165.177 124.078 C 164.848 123.441 164.349 122.907 163.735 122.535 C 163.78 122.51 163.819 122.475 163.851 122.435 C 163.737 122.395 163.634 122.331 163.548 122.247 L 163.303 122.247 C 160.852 119.97 161.198 117.015 164.86 117.519 C 164.413 118.081 166.676 119.681 166.863 120.589 C 167.469 121.699 168.103 122.68 169.386 122.824 C 169.573 123.141 170.654 123.328 170.135 122.824 C 169.468 122.407 168.96 121.777 168.694 121.036 C 168.496 119.982 167.946 119.026 167.135 118.324 C 166.323 117.622 165.297 117.217 164.225 117.173 C 167.555 115.732 172.197 120.143 170.106 123.357 C 168.608 124.197 166.853 124.454 165.177 124.078 Z M 165.177 117.649 C 167.656 118.096 167.786 120.849 168.997 122.507 C 167.166 121.498 166.95 118.874 165.162 117.649 L 165.177 117.649 Z" stroke-linecap="round" />
</g>
		<g transform="matrix(1 0 0 1 84.57 56.71)"  >
<path style="stroke: rgb(27,27,29); stroke-width: 0.8; stroke-dasharray: none; stroke-linecap: butt; stroke-dashoffset: 0; stroke-linejoin: miter; stroke-miterlimit: 4; fill: rgb(27,27,29); fill-rule: nonzero; opacity: 1;" vector-effect="non-scaling-stroke"  transform=" translate(-175.57, -127.71)" d="M 174.921 125.087 C 174.201 125.087 171.894 124.856 171.692 125.462 C 167.642 127.854 173.134 131.227 175.728 130.19 C 176.693 130.231 177.66 130.169 178.611 130.002 C 179.153 130.007 179.679 129.82 180.096 129.475 C 180.512 129.129 180.794 128.647 180.889 128.114 C 180.586 125.274 177.026 125.173 174.921 125.087 Z M 178.698 129.209 C 178.625 129.242 178.561 129.289 178.508 129.349 C 178.456 129.409 178.418 129.479 178.395 129.555 C 177.526 129.73 176.643 129.827 175.757 129.844 C 175.732 129.776 175.69 129.716 175.634 129.671 C 175.578 129.625 175.511 129.595 175.44 129.584 C 173.999 129.469 170.107 128.777 171.303 126.557 C 172.745 124.597 175.483 126.125 175.873 125.49 C 177.242 125.581 178.537 126.147 179.534 127.09 C 178.541 126.639 177.45 126.445 176.363 126.528 C 176.464 126.024 170.698 128.128 171.692 128.359 C 172.69 127.847 173.732 127.428 174.806 127.105 C 174.013 127.566 173.206 128.546 172.211 128.272 C 171.664 128.272 172.211 128.82 172.485 128.835 C 175.685 128.763 175.166 126.053 179.692 127.854 C 179.837 128.503 179.145 128.806 178.655 129.166 L 178.698 129.209 Z" stroke-linecap="round" />
</g>
		<g transform="matrix(1 0 0 1 -16.66 51.24)"  >
<path style="stroke: rgb(27,27,29); stroke-width: 0.8; stroke-dasharray: none; stroke-linecap: butt; stroke-dashoffset: 0; stroke-linejoin: miter; stroke-miterlimit: 4; fill: rgb(27,27,29); fill-rule: nonzero; opacity: 1;" vector-effect="non-scaling-stroke"  transform=" translate(-74.34, -122.24)" d="M 75.7925 121.253 L 75.706 120.287 C 75.1436 121.173 74.4916 121.999 73.7601 122.752 C 73.4862 123.112 72.3187 123.919 73.2268 124.193 C 74.1603 123.48 74.9898 122.641 75.6916 121.699 C 75.7204 121.526 75.7637 121.397 75.7925 121.253 Z" stroke-linecap="round" />
</g>
		<g transform="matrix(1 0 0 1 -39.72 50.53)"  >
<path style="stroke: rgb(27,27,29); stroke-width: 0.8; stroke-dasharray: none; stroke-linecap: butt; stroke-dashoffset: 0; stroke-linejoin: miter; stroke-miterlimit: 4; fill: rgb(27,27,29); fill-rule: nonzero; opacity: 1;" vector-effect="non-scaling-stroke"  transform=" translate(-51.28, -121.53)" d="M 83.9658 132.121 C 82.9568 128.806 78.7621 128.791 75.7495 128.662 C 75.9513 128.416 75.6774 128.114 75.5188 127.898 C 75.7879 127.41 76.215 127.029 76.7297 126.816 L 76.4558 126.687 C 76.361 126.641 76.2809 126.569 76.2248 126.48 C 76.1688 126.391 76.1389 126.288 76.1386 126.182 C 75.8359 126.471 75.735 126.73 75.9801 126.889 C 75.7342 127.106 75.5163 127.353 75.3314 127.624 C 75.0287 127.105 74.6828 126.6 74.3368 126.11 C 74.3572 126.094 74.3722 126.072 74.3798 126.047 C 74.3875 126.022 74.3874 125.995 74.3796 125.97 C 74.3718 125.945 74.3567 125.923 74.3362 125.907 C 74.3157 125.891 74.2908 125.881 74.2648 125.879 C 74.3858 125.549 74.5775 125.249 74.8264 125 C 75.0754 124.751 75.3756 124.559 75.7062 124.438 C 75.6294 124.311 75.5665 124.175 75.5188 124.034 C 74.912 124.469 74.4178 125.042 74.0774 125.707 C 72.3188 122.132 66.1638 123.559 67.6053 127.71 C 64.8809 126.831 60.5566 126.355 59.5043 129.8 C 59.4804 129.864 59.4739 129.934 59.4855 130.001 C 59.497 130.069 59.5262 130.132 59.5701 130.185 C 59.614 130.238 59.6711 130.278 59.7354 130.301 C 59.7998 130.325 59.8692 130.331 59.9367 130.319 C 60.0933 131.071 60.3503 131.798 60.7007 132.481 C 59.7672 132.005 58.7477 131.721 57.7025 131.645 C 57.5336 131.123 57.166 130.688 56.679 130.434 C 57.1547 130.132 56.5637 129.512 56.679 129.065 C 56.6646 129.102 56.6646 129.143 56.679 129.18 C 56.6648 129.138 56.6648 129.093 56.679 129.051 C 56.7455 128.774 56.8682 128.514 57.0394 128.287 C 57.193 127.976 57.3978 127.694 57.6449 127.451 C 58.8413 125.361 62.9782 123.04 64.607 125.663 C 64.3187 127.739 65.5296 127.624 65.1116 125.663 C 65.5728 125.216 64.708 124.553 64.4197 124.222 C 64.5158 122.801 64.0616 121.397 63.1512 120.301 C 65.5008 120.085 66.9422 122.305 68.398 123.804 C 68.4323 123.842 68.4746 123.872 68.522 123.892 C 68.5694 123.912 68.6206 123.921 68.6719 123.919 C 69.7242 123.602 68.5278 122.694 67.9801 122.117 C 67.974 122.094 67.974 122.069 67.9801 122.045 C 67.9329 122.001 67.8895 121.953 67.8503 121.901 L 67.9512 121.901 C 67.9512 121.901 67.9512 121.901 67.9512 121.829 C 68.0231 121.733 68.1108 121.65 68.2106 121.584 C 68.2106 121.584 68.2106 121.584 68.2106 121.512 C 70.2287 119.71 72.9674 119.436 75.4179 118.73 L 75.4179 118.355 C 74.7693 118.528 74.1062 118.672 73.4431 118.816 C 74.0918 118.514 74.7405 118.211 75.3747 117.879 C 75.3747 117.779 75.3747 117.678 75.3747 117.577 C 73.0251 119.018 70.1711 119.479 68.0665 121.238 C 68.0665 121.238 68.0665 121.238 67.9801 121.238 C 68.6467 120.07 69.6188 119.105 70.792 118.448 C 71.9652 117.79 73.2952 117.464 74.6396 117.505 L 75.3747 117.591 C 75.3747 117.274 75.3747 116.971 75.3747 116.654 C 74.8096 116.547 74.2324 116.518 73.6594 116.568 C 74.1352 116.056 74.499 115.451 74.7274 114.791 C 74.9557 114.13 75.0436 113.43 74.9855 112.733 C 75.0845 112.834 75.2193 112.891 75.3603 112.892 C 75.3603 112.402 75.4467 111.912 75.5188 111.451 C 75.2624 111.624 75.0461 111.85 74.8846 112.114 C 74.6562 111.226 74.1514 110.433 73.4431 109.851 C 73.8756 109.75 74.7261 109.851 74.6828 109.216 C 74.6684 109.1 74.6089 108.994 74.5173 108.922 C 74.4256 108.849 74.3091 108.815 74.1927 108.827 C 71.7134 109.159 68.1242 109.26 66.6971 106.795 C 66.3079 106.117 66.308 104.661 67.2449 104.488 C 67.298 104.475 67.3452 104.445 67.3789 104.402 C 67.4126 104.358 67.431 104.305 67.431 104.251 C 67.431 104.196 67.4126 104.143 67.3789 104.1 C 67.3452 104.056 67.298 104.026 67.2449 104.013 C 72.0449 101.432 74.4522 106.319 74.726 104.56 C 72.6215 101.836 68.8017 102.254 66.0773 104.099 C 65.9332 103.032 64.4485 101.332 63.4827 102.398 C 63.0315 102.426 62.579 102.426 62.1278 102.398 C 61.6644 102.446 61.209 102.552 60.7728 102.715 C 59.8846 103.026 59.0701 103.517 58.38 104.157 C 57.6833 104.789 57.1288 105.561 56.7536 106.424 C 56.3783 107.286 56.1907 108.218 56.2034 109.159 C 56.3332 112.344 59.8791 112.517 61.9692 110.989 C 61.7307 112.437 61.1197 113.798 60.1962 114.939 C 60.1987 114.91 60.1948 114.882 60.1847 114.855 C 60.1745 114.829 60.1583 114.805 60.1374 114.785 C 60.1166 114.766 60.0916 114.751 60.0643 114.743 C 60.037 114.735 60.0082 114.733 59.98 114.737 C 59.7494 115.242 58.5386 116.524 58.9278 116.914 C 59.4755 118.47 62.7909 111.869 62.4161 111.018 C 62.4338 110.972 62.4338 110.92 62.4161 110.874 C 62.6035 110.874 62.6467 110.615 62.4161 110.615 L 62.8773 110.254 C 62.8773 110.442 63.0359 110.542 63.1944 110.499 C 64.4197 110.759 64.2178 112.661 63.8863 113.584 C 63.8863 114.521 60.3259 118.139 62.7476 117.663 C 62.694 118.446 62.8964 119.225 63.3242 119.883 C 62.7395 119.902 62.159 119.989 61.5944 120.143 C 61.6379 119.817 61.6379 119.488 61.5944 119.162 C 61.635 119.125 61.6674 119.079 61.6895 119.028 C 61.7117 118.977 61.7231 118.922 61.7231 118.867 C 61.7231 118.811 61.7117 118.757 61.6895 118.706 C 61.6674 118.655 61.635 118.609 61.5944 118.571 C 60.0377 116.697 57.5872 117.332 55.6268 118.571 C 57.8899 117.029 56.7079 113.584 59.2016 112.359 C 59.461 112.272 59.2737 111.897 59.0575 112.042 C 58.6176 112.182 58.2165 112.423 57.8862 112.746 C 57.5559 113.069 57.3054 113.464 57.1547 113.901 C 57.0881 113.539 56.9469 113.195 56.7402 112.891 C 56.5334 112.587 56.2656 112.329 55.9538 112.134 C 55.642 111.938 55.2931 111.81 54.929 111.757 C 54.565 111.704 54.194 111.727 53.8394 111.825 C 54.5457 105.267 42.5961 109.015 41.3853 112.935 C 40.5299 113.123 39.7213 113.481 39.008 113.989 C 38.2946 114.497 37.6912 115.143 37.2339 115.89 C 32.9095 115.53 25.7744 120.82 32.0735 123.443 C 30.9602 123.694 29.9548 124.291 29.2013 125.148 C 28.4478 126.005 27.9849 127.078 27.8789 128.215 C 27.8654 128.128 27.822 128.049 27.7561 127.991 C 27.6903 127.933 27.6062 127.9 27.5185 127.898 C 22.8338 128.2 24.9815 122.348 28.1239 121.901 C 28.1646 121.901 28.2042 121.888 28.2376 121.865 C 28.2711 121.842 28.2968 121.809 28.3113 121.771 C 28.3113 121.238 27.5618 121.555 27.3023 121.67 C 25.0248 122.579 22.7329 126.067 25.0248 128.056 C 19.677 126.687 14.9347 134.298 22.6032 134.398 C 23.1221 134.499 26.7546 134.644 25.1113 133.721 C 24.3193 133.839 23.519 133.892 22.7184 133.88 C 20.4554 133.404 18.005 132.438 20.268 129.944 C 20.8999 129.35 21.661 128.911 22.4914 128.661 C 23.3218 128.411 24.1989 128.357 25.0537 128.503 C 25.0885 128.516 25.126 128.519 25.1626 128.513 C 25.1992 128.507 25.2336 128.492 25.2625 128.469 C 25.2915 128.445 25.314 128.415 25.3279 128.381 C 25.3418 128.346 25.3466 128.309 25.3419 128.272 C 25.9185 128.618 27.5762 129.065 27.8933 128.272 C 27.7347 130.175 31.0068 131.415 33.4428 130.881 C 33.7888 130.78 34.4952 130.881 34.4807 130.391 C 33.5294 129.512 30.1564 131.083 28.8879 128.705 C 27.8933 126.37 31.2807 123.991 33.2123 123.616 C 34.3171 123.759 35.4349 123.768 36.542 123.645 C 36.2535 123.922 36.037 124.265 35.9114 124.644 C 35.7857 125.023 35.7548 125.428 35.8213 125.822 C 34.769 125.692 33.342 127.263 32.5636 127.71 C 31.7852 128.157 30.8339 128.272 30.5167 128.921 C 30.3726 128.82 30.1852 128.921 30.0555 128.777 C 32.0158 127.523 35.1726 126.485 35.8213 124.15 C 34.515 125.714 32.8944 126.986 31.0645 127.883 C 30.6321 128.2 28.9455 128.69 30.1131 129.137 C 30.2284 129.137 30.5023 129.137 30.5023 129.007 C 32.3474 129.627 34.3798 126.197 35.9798 126.427 C 36.4456 127.268 37.1471 127.955 37.9979 128.402 C 33.6735 129.685 34.5816 133.072 38.7042 133.476 C 34.4951 139.516 45.5655 139.371 47.6123 134.989 C 48.1528 135.619 48.814 136.133 49.5568 136.502 C 50.2996 136.871 51.1089 137.087 51.9367 137.137 C 53.7385 142.081 65.4287 142.903 63.4683 135.898 C 65.9332 137.901 70.7909 138.435 71.7422 134.644 C 74.7404 137.541 84.3838 137.699 83.9658 132.121 Z M 72.0161 109.778 L 72.7081 109.778 C 73.507 110.525 73.9839 111.554 74.0377 112.646 C 74.0915 113.739 73.718 114.809 72.9963 115.631 C 72.9703 114.385 72.6354 113.165 72.0215 112.081 C 71.4076 110.996 70.534 110.081 69.4791 109.418 C 70.3118 109.617 71.1611 109.737 72.0161 109.778 Z M 57.1836 109.332 C 59.2449 107.4 62.0125 106.103 63.3242 103.45 C 62.3152 106.333 59.389 107.602 57.1836 109.404 L 57.1836 109.332 Z M 59.1872 111.047 C 58.754 111.123 58.308 111.028 57.9444 110.78 C 57.5809 110.532 57.3285 110.152 57.2412 109.721 C 59.5331 107.948 63.9152 106.305 63.5981 102.874 C 63.4972 102.759 63.3386 102.874 63.2953 102.975 C 62.0269 105.685 59.3458 107.069 57.1692 108.942 C 57.2402 107.269 57.9603 105.689 59.1765 104.537 C 60.3928 103.386 62.0097 102.753 63.6846 102.773 C 68.4702 104.719 62.3728 110.86 59.1872 111.047 Z M 63.353 109.851 C 64.6149 108.948 65.5385 107.649 65.9764 106.16 C 66.1632 107.062 66.6765 107.863 67.4179 108.409 C 67.1837 108.522 66.9845 108.697 66.8413 108.914 C 66.5531 108.049 64.2611 110.643 65.1981 110.744 C 65.6593 110.427 66.0341 109.793 66.553 109.461 C 66.1175 111.043 66.3085 112.731 67.0864 114.175 C 66.3716 114.002 65.6228 114.032 64.9242 114.261 C 65.4719 112.849 65.4431 109.778 63.353 109.851 Z M 63.2665 117.144 C 63.8007 116.461 64.2507 115.715 64.607 114.924 C 67.3746 113.771 68.0665 116.279 69.5656 117.649 C 71.0071 117.26 68.6575 115.227 68.1242 114.766 C 67.2737 113.151 65.8179 110.312 67.5188 108.798 C 69.6665 110.009 71.8432 111.681 72.2468 114.377 C 71.7423 113.627 71.3963 112.33 70.6179 111.955 C 70.6179 112.863 71.7711 113.829 72.0594 114.838 C 72.5207 115.371 72.2035 116.164 72.5927 116.697 C 70.4161 117.303 67.4035 118.989 67.2161 121.425 C 66.4109 120.499 65.2812 119.916 64.0593 119.797 C 63.7153 119.456 63.4623 119.035 63.3238 118.572 C 63.1852 118.108 63.1655 117.617 63.2665 117.144 Z M 47.2808 128.215 L 47.2808 128.042 C 47.5547 127.609 48.3908 127.451 48.5493 126.975 C 50.179 126.31 51.5669 125.163 52.5277 123.688 C 52.5057 123.87 52.5057 124.054 52.5277 124.236 C 51.7061 124.236 51.9367 124.813 52.6286 124.496 C 52.8853 124.956 53.2777 125.326 53.7522 125.556 C 54.2268 125.785 54.7605 125.863 55.2809 125.779 C 60.5278 129.08 47.9871 132.438 47.2808 128.215 Z M 56.1746 130.233 C 55.8375 130.117 55.4899 130.035 55.1368 129.988 C 55.4698 129.834 55.7882 129.651 56.0881 129.44 C 56.0738 129.685 56.0738 129.93 56.0881 130.175 C 56.0881 130.175 56.1601 130.218 56.1746 130.233 Z M 41.5006 118.701 C 41.8033 118.701 41.7889 118.124 41.9186 117.879 C 42.286 117.028 42.9046 116.309 43.6916 115.818 C 45.2672 116.286 46.9449 116.286 48.5205 115.818 C 48.1457 116.352 46.8772 117.879 47.5979 118.398 C 47.5758 118.493 47.5758 118.592 47.5979 118.687 C 46.501 119.225 45.5212 119.974 44.715 120.892 C 44.4555 120.128 42.2069 119.811 41.6304 119.984 L 41.4285 119.984 C 41.5752 119.562 41.6002 119.108 41.5006 118.672 L 41.5006 118.701 Z M 50.1493 118.571 C 49.6016 119.508 48.1745 120.215 48.0303 121.195 C 46.3704 122.074 44.9729 123.377 43.9799 124.971 C 43.9514 124.238 44.0741 123.507 44.3402 122.824 C 44.8971 121.69 45.7204 120.709 46.7397 119.963 C 47.7589 119.217 48.9437 118.73 50.1925 118.542 L 50.1493 118.571 Z M 50.7115 118.687 C 50.7649 118.676 50.814 118.65 50.8525 118.612 C 50.891 118.573 50.9172 118.524 50.9277 118.47 L 51.0719 118.47 C 50.5727 119.323 49.8629 120.033 49.0106 120.532 C 49.6737 119.926 50.1925 119.321 50.7547 118.658 L 50.7115 118.687 Z M 44.3259 125.577 C 45.1331 122.088 50.798 121.901 51.5331 118.672 C 55.3818 121.44 46.9781 129.094 44.225 125.879 C 44.2625 125.878 44.2987 125.865 44.3296 125.844 C 44.3605 125.822 44.3848 125.793 44.3998 125.758 C 44.4148 125.724 44.4198 125.686 44.4144 125.649 C 44.409 125.612 44.3933 125.577 44.3691 125.548 L 44.3259 125.577 Z M 63.9296 123.934 L 63.8287 123.934 C 63.8227 122.824 63.5508 121.731 63.0359 120.748 C 63.7008 121.671 64.0174 122.799 63.9296 123.934 Z M 61.6376 120.488 L 62.344 120.344 C 62.4161 121.454 63.2521 122.492 63.2233 123.674 C 62.0935 123.604 60.9653 123.834 59.9529 124.341 C 58.9405 124.847 58.0797 125.611 57.4575 126.557 C 57.3892 126.305 57.2677 126.07 57.1011 125.869 C 56.9345 125.667 56.7267 125.504 56.4917 125.389 C 57.6971 124.837 58.7951 124.076 59.735 123.141 C 59.8215 123.458 59.98 123.905 60.3115 124.006 C 60.6431 124.107 60.6575 123.775 60.4845 123.616 C 60.365 123.507 60.2708 123.373 60.2086 123.224 C 60.1463 123.074 60.1175 122.913 60.1241 122.752 C 60.7994 122.121 61.3263 121.348 61.6665 120.488 L 61.6376 120.488 Z M 61.162 118.961 C 61.6521 122.434 51.9512 128.604 53.162 122.132 C 54.3296 119.926 58.9565 116.553 61.1908 118.961 L 61.162 118.961 Z M 53.3637 120.575 C 53.3782 120.373 53.3782 120.171 53.3637 119.97 C 53.8059 119.86 54.2159 119.648 54.5601 119.35 L 53.9548 119.912 C 53.8394 120.128 53.5944 120.344 53.3926 120.575 L 53.3637 120.575 Z M 53.0611 113.123 C 53.3015 112.856 53.4919 112.549 53.6232 112.215 C 53.6653 112.229 53.7113 112.226 53.7515 112.207 C 53.7918 112.189 53.8232 112.155 53.8394 112.114 C 56.4484 111.624 57.2701 114.924 55.8431 116.625 C 55.0909 117.582 54.179 118.401 53.1476 119.047 C 52.9552 118.696 52.6917 118.388 52.3739 118.144 C 52.056 117.9 51.6908 117.725 51.3016 117.63 C 50.9123 117.535 50.5075 117.522 50.1131 117.593 C 49.7186 117.663 49.3432 117.815 49.0106 118.038 C 48.6164 118.155 48.231 118.299 47.8574 118.47 C 47.8636 118.442 47.8636 118.412 47.8574 118.384 C 47.9772 118.336 48.0791 118.252 48.1488 118.144 C 48.2186 118.035 48.2528 117.907 48.2466 117.779 C 48.3426 117.141 48.5922 116.536 48.9739 116.016 C 49.3556 115.496 49.8579 115.077 50.4376 114.795 C 51.4521 114.477 52.3662 113.901 53.0898 113.123 L 53.0611 113.123 Z M 47.5259 109.231 C 48.8475 108.936 50.2144 108.907 51.5475 109.144 C 51.8947 109.289 52.1976 109.522 52.4254 109.822 C 52.6532 110.121 52.7979 110.475 52.8447 110.848 C 52.8916 111.221 52.8389 111.6 52.6921 111.947 C 52.5453 112.293 52.3095 112.594 52.0088 112.82 C 51.9611 112.744 51.898 112.679 51.8235 112.629 C 51.7489 112.58 51.6647 112.546 51.5763 112.532 C 50.7866 111.729 49.8438 111.094 48.8038 110.663 C 47.7639 110.232 46.6479 110.015 45.5222 110.024 C 46.1565 109.692 47.0358 109.706 47.5259 109.231 Z M 44.3979 110.514 C 44.5357 110.543 44.6782 110.543 44.8159 110.514 C 47.3754 110.43 49.8723 111.315 51.807 112.993 L 51.4178 113.252 C 48.9529 112.445 47.0069 110.009 44.0952 110.672 L 44.3979 110.514 Z M 42.4087 112.114 C 45.0033 109.418 48.4772 112.546 51.0574 113.555 C 50.1926 114.103 49.1547 114.319 48.261 114.867 C 45.9259 115.4 41.0826 115.112 42.4087 112.114 Z M 41.4862 114.204 C 41.8662 114.886 42.4888 115.4 43.2304 115.645 C 42.4429 116.154 41.8137 116.873 41.4141 117.721 C 41.3031 117.677 41.1868 117.648 41.0682 117.634 C 40.6976 117.146 40.2238 116.746 39.6806 116.462 C 39.1374 116.178 38.5382 116.017 37.9258 115.991 C 38.9371 115.084 40.1622 114.449 41.4862 114.146 L 41.4862 114.204 Z M 40.0447 117.836 C 38.978 117.836 37.897 117.836 36.8303 117.836 C 37.7839 117.677 38.747 117.581 39.7132 117.548 L 40.0447 117.836 Z M 37.1618 116.611 C 37.1766 116.627 37.1945 116.639 37.2143 116.648 C 37.2342 116.656 37.2556 116.661 37.2772 116.661 C 37.2988 116.661 37.3201 116.656 37.34 116.648 C 37.3598 116.639 37.3777 116.627 37.3925 116.611 C 37.435 116.622 37.4796 116.622 37.5222 116.611 C 38.1971 116.742 38.8421 116.996 39.4249 117.361 C 37.2195 117.49 32.4338 118.024 30.4735 120.243 C 30.7762 117.952 35.2159 115.919 37.1762 116.553 L 37.1618 116.611 Z M 36.1528 122.824 C 35.3828 122.965 34.5969 122.999 33.8176 122.925 C 33.5149 122.925 31.2951 122.708 31.3816 122.334 C 31.1176 122.173 30.8795 121.974 30.6753 121.743 C 30.3293 120.906 31.2663 120.171 31.8573 119.768 C 32.6438 119.224 33.5307 118.841 34.4663 118.643 C 36.246 118.337 38.0527 118.216 39.8573 118.283 C 40.0296 118.261 40.2039 118.261 40.3762 118.283 C 41.2555 119.724 39.7997 121.166 38.6321 121.858 C 37.8731 122.309 37.0375 122.617 36.1672 122.766 L 36.1528 122.824 Z M 41.0105 120.762 C 41.5703 120.645 42.1486 120.648 42.7075 120.769 C 43.2664 120.891 43.7933 121.129 44.2537 121.469 C 43.2015 122.91 42.7114 125.216 43.6628 126.528 C 43.3168 126.773 42.0628 126.86 42.4376 127.436 C 41.1646 127.482 39.9058 127.72 38.7042 128.143 C 38.6968 128.098 38.6801 128.056 38.6553 128.019 C 38.6304 127.982 38.598 127.95 38.5601 127.926 C 32.8519 124.15 38.733 123.328 41.0105 120.762 Z M 42.0484 131.703 C 43.2549 131.233 44.5716 131.123 45.8394 131.386 C 45.0795 132.12 44.2598 132.791 43.3889 133.389 C 41.6371 134.068 40.1303 135.259 39.0645 136.806 C 37.4213 135.465 39.6267 132.438 42.0484 131.66 L 42.0484 131.703 Z M 46.1133 131.487 C 46.3112 131.576 46.5037 131.677 46.6898 131.789 C 46.0123 132.164 45.2484 132.496 44.5998 132.813 C 45.1511 132.411 45.6584 131.952 46.1133 131.444 L 46.1133 131.487 Z M 46.6177 134.932 C 45.7932 135.912 44.7117 136.643 43.4946 137.043 C 42.2774 137.443 40.973 137.496 39.7276 137.195 C 39.7481 137.166 39.7622 137.134 39.7689 137.099 C 39.7757 137.065 39.7749 137.029 39.7667 136.995 C 39.7585 136.961 39.7431 136.929 39.7214 136.901 C 39.6997 136.873 39.6724 136.851 39.6412 136.835 C 41.5439 134.413 44.7727 133.865 47.2088 132.222 C 47.3498 132.678 47.3708 133.164 47.2698 133.631 C 47.1688 134.098 46.9492 134.531 46.6322 134.889 L 46.6177 134.932 Z M 47.3673 131.069 C 45.6232 129.858 43.4177 130.478 41.6015 131.184 C 41.2988 131.371 40.1601 131.588 40.3619 132.049 C 39.99 132.283 39.6423 132.553 39.324 132.856 C 39.2963 132.774 39.2467 132.701 39.1807 132.645 C 39.1146 132.59 39.0346 132.553 38.9492 132.539 C 37.5078 132.337 35.1582 131.775 36.2537 129.872 C 36.295 129.879 36.3373 129.876 36.3774 129.864 C 36.4175 129.852 36.4546 129.832 36.4861 129.805 C 36.5177 129.777 36.5428 129.743 36.56 129.705 C 36.5771 129.667 36.5858 129.626 36.5853 129.584 C 39.1511 128.272 44.0664 127.22 45.5655 129.858 C 47.7133 130.579 45.133 127.061 42.8267 127.436 C 43.1927 127.243 43.5402 127.016 43.8646 126.759 C 44.2654 127.115 44.7441 127.372 45.2622 127.51 C 45.7804 127.647 46.3237 127.662 46.8484 127.552 C 46.6928 127.861 46.648 128.214 46.7215 128.553 C 46.7949 128.891 46.9821 129.194 47.252 129.411 C 47.6331 129.902 48.1278 130.293 48.6934 130.55 C 48.2092 130.548 47.7398 130.716 47.3673 131.025 L 47.3673 131.069 Z M 51.8935 134.586 C 51.6669 135.102 51.5919 135.672 51.6772 136.229 C 50.2447 136.191 48.8779 135.62 47.843 134.629 C 48.1515 134.15 48.3156 133.592 48.3156 133.022 C 48.3156 132.452 48.1515 131.894 47.843 131.415 C 48.2773 131.027 48.8468 130.825 49.4286 130.853 C 49.4286 130.968 49.6448 130.853 49.7025 130.853 C 51.2206 131.058 52.7659 130.905 54.2142 130.406 C 54.3151 130.406 54.4449 130.492 54.5025 130.406 C 54.9594 130.452 55.402 130.591 55.8034 130.814 C 56.2048 131.037 56.5567 131.34 56.8377 131.703 C 55.8475 131.751 54.8828 132.033 54.0232 132.527 C 53.1636 133.021 52.4337 133.711 51.8935 134.543 L 51.8935 134.586 Z M 52.9602 135.422 C 54.1854 136.33 55.4106 138.305 56.3187 139.126 C 54.6898 138.694 52.643 136.964 52.9602 135.379 L 52.9602 135.422 Z M 59.1584 139.833 C 58.3161 139.737 57.5091 139.44 56.8045 138.969 C 56.0999 138.498 55.5182 137.865 55.1079 137.123 C 56.5494 138.881 58.8701 138.896 60.8737 139.79 C 60.3097 139.923 59.7223 139.923 59.1584 139.79 L 59.1584 139.833 Z M 63.0647 138.319 C 62.8863 138.683 62.6274 139.002 62.3079 139.252 C 61.9883 139.502 61.6162 139.676 61.2196 139.761 C 59.5908 138.752 57.9043 138.953 56.4196 137.829 C 55.2232 136.964 54.4881 135.696 53.2196 134.874 C 54.2306 133.869 55.5221 133.194 56.9242 132.936 C 58.3264 132.679 59.7736 132.852 61.0755 133.433 C 61.1188 134.456 63.9296 135.278 63.0647 138.276 L 63.0647 138.319 Z M 62.3007 133.231 C 61.3245 132.231 60.6845 130.951 60.4701 129.57 C 60.618 129.282 60.8216 129.027 61.0691 128.819 C 61.3166 128.611 61.6029 128.455 61.9115 128.359 C 61.9594 128.365 62.0079 128.365 62.0557 128.359 C 66.2071 127.364 65.9477 133.447 68.3837 135.307 C 68.5392 135.461 68.708 135.6 68.8882 135.725 C 67.6667 135.869 66.4283 135.713 65.2805 135.271 C 64.1327 134.829 63.1099 134.114 62.3007 133.188 L 62.3007 133.231 Z M 65.6593 129.238 C 66.3592 129.939 66.8572 130.815 67.1008 131.775 C 66.6852 130.88 66.2034 130.018 65.6593 129.195 L 65.6593 129.238 Z M 69.6378 135.321 C 66.8558 133.245 68.1962 129.858 64.9674 128.359 C 68.0377 128.416 72.29 132.366 69.6954 135.278 L 69.6378 135.321 Z M 70.8198 130.016 C 69.9401 129.093 68.8934 128.345 67.735 127.811 C 67.7855 127.814 67.8354 127.799 67.8771 127.771 C 67.9188 127.742 67.9499 127.701 67.9656 127.652 C 68.0521 127.552 68.153 127.379 67.9656 127.263 C 67.6773 125.534 69.2485 124.38 70.8485 124.38 C 72.8954 124.842 73.9909 127.105 75.0143 128.705 C 73.522 128.707 72.0634 129.148 70.8198 129.973 L 70.8198 130.016 Z M 71.4251 130.91 C 73.818 129.469 76.9603 129.8 79.627 130.189 C 80.1426 130.31 80.6484 130.469 81.1405 130.665 C 79.0937 130.665 75.1585 131.011 73.6594 132.107 C 72.9669 132.313 72.3567 132.731 71.9152 133.303 C 71.9275 132.461 71.7605 131.625 71.4251 130.853 L 71.4251 130.91 Z M 82.8558 133.793 C 81.8395 134.567 80.6768 135.127 79.4381 135.439 C 78.1994 135.751 76.9103 135.809 75.6486 135.609 C 74.6175 135.39 73.6227 135.026 72.6936 134.528 C 72.6148 134.538 72.5346 134.528 72.461 134.498 C 72.3874 134.468 72.3228 134.419 72.2734 134.357 C 72.2241 134.294 72.1918 134.22 72.1796 134.142 C 72.1673 134.063 72.1755 133.983 72.2035 133.908 C 73.3999 131.371 77.6522 131.991 80.0883 132.121 C 80.4198 132.121 81.8613 132.207 81.7892 131.717 C 80.1212 131.505 78.4396 131.418 76.7585 131.458 C 78.373 131.213 80.636 130.117 81.9333 131.458 C 82.1495 131.631 82.3802 131.458 82.164 131.271 C 82.0243 131.22 81.9103 131.116 81.8468 130.982 C 82.3401 131.22 82.7214 131.64 82.9098 132.154 C 83.0982 132.668 83.0788 133.235 82.8558 133.735 L 82.8558 133.793 Z" stroke-linecap="round" />
</g>
		<g transform="matrix(1 0 0 1 -60.37 50.59)"  >
<path style="stroke: rgb(27,27,29); stroke-width: 0.8; stroke-dasharray: none; stroke-linecap: butt; stroke-dashoffset: 0; stroke-linejoin: miter; stroke-miterlimit: 4; fill: rgb(27,27,29); fill-rule: nonzero; opacity: 1;" vector-effect="non-scaling-stroke"  transform=" translate(-30.63, -121.59)" d="M 30.6318 121.597 L 30.6318 121.584 L 30.6318 121.597 Z" stroke-linecap="round" />
</g>
		<g transform="matrix(1 0 0 1 -19.15 63.07)"  >
<path style="stroke: rgb(27,27,29); stroke-width: 0.8; stroke-dasharray: none; stroke-linecap: butt; stroke-dashoffset: 0; stroke-linejoin: miter; stroke-miterlimit: 4; fill: rgb(27,27,29); fill-rule: nonzero; opacity: 1;" vector-effect="non-scaling-stroke"  transform=" translate(-71.85, -134.07)" d="M 71.8433 134.067 L 71.8568 134.067 L 71.8433 134.067 Z" stroke-linecap="round" />
</g>
		<g transform="matrix(1 0 0 1 -36.22 36.52)"  >
<path style="stroke: rgb(27,27,29); stroke-width: 0.8; stroke-dasharray: none; stroke-linecap: butt; stroke-dashoffset: 0; stroke-linejoin: miter; stroke-miterlimit: 4; fill: rgb(27,27,29); fill-rule: nonzero; opacity: 1;" vector-effect="non-scaling-stroke"  transform=" translate(-54.78, -107.52)" d="M 52.9167 108.943 C 53.969 109.274 53.8249 106.708 56.5636 106.535 C 57.3997 106.06 55.6555 105.988 55.3528 106.146 C 54.5312 106.218 52.1383 108.164 52.9167 108.943 Z" stroke-linecap="round" />
</g>
		<g transform="matrix(1 0 0 1 -59.37 62.12)"  >
<path style="stroke: rgb(27,27,29); stroke-width: 0.8; stroke-dasharray: none; stroke-linecap: butt; stroke-dashoffset: 0; stroke-linejoin: miter; stroke-miterlimit: 4; fill: rgb(27,27,29); fill-rule: nonzero; opacity: 1;" vector-effect="non-scaling-stroke"  transform=" translate(-31.63, -133.12)" d="M 30.0263 134.932 C 27.1434 134.586 24.7361 131.689 28.5848 130.478 C 28.1709 130.418 27.7488 130.483 27.3715 130.663 C 26.9941 130.843 26.6784 131.131 26.4642 131.49 C 26.25 131.849 26.1469 132.263 26.1677 132.681 C 26.1885 133.098 26.3324 133.5 26.5813 133.836 C 27.9873 135.134 29.8436 135.832 31.756 135.782 C 32.5488 135.696 33.3416 135.624 34.12 135.523 C 34.6245 135.379 35.1146 135.22 35.5615 135.047 C 40.6498 132.683 31.4965 135.826 30.0263 134.932 Z" stroke-linecap="round" />
</g>
		<g transform="matrix(1 0 0 1 -83.87 66.27)"  >
<path style="stroke: rgb(27,27,29); stroke-width: 0.8; stroke-dasharray: none; stroke-linecap: butt; stroke-dashoffset: 0; stroke-linejoin: miter; stroke-miterlimit: 4; fill: rgb(27,27,29); fill-rule: nonzero; opacity: 1;" vector-effect="non-scaling-stroke"  transform=" translate(-7.13, -137.27)" d="M 11.6046 134.658 C 9.5289 133.418 6.90547 133.808 4.58473 133.865 C 0.808129 133.202 -0.330636 137.209 2.85497 139.155 C 5.24302 140.589 8.0725 141.102 10.8118 140.597 C 11.4172 140.453 13.0604 140.035 12.0226 139.299 C 11.7462 138.744 11.3534 138.254 10.8708 137.863 C 10.3883 137.473 9.8274 137.191 9.22616 137.036 C 10.8694 137.253 12.2388 137.699 12.1091 139.213 C 12.1456 139.228 12.1866 139.23 12.224 139.216 C 12.2613 139.203 12.2924 139.176 12.3109 139.141 C 12.9451 135.148 4.95952 137.627 3.15771 135.062 C 3.1613 134.859 3.12198 134.657 3.04237 134.471 C 3.5139 134.35 3.99735 134.283 4.48382 134.269 C 7.98655 134.197 12.3541 134.081 12.4694 138.593 C 12.4832 138.678 12.5272 138.756 12.5934 138.811 C 12.6595 138.867 12.7434 138.897 12.8298 138.896 C 13.9685 138.521 12.5415 135.018 11.6046 134.658 Z M 5.07478 136.445 C 4.75766 136.345 3.76306 136.373 4.35405 136.806 C 6.86218 137.224 10.1199 137.008 11.6766 139.285 C 8.89465 140.727 -0.964864 138.997 2.23516 134.788 C 2.33606 134.917 2.60995 134.932 2.60995 134.672 L 2.7252 134.672 C 2.7252 135.566 4.08017 136.157 5.07478 136.445 Z" stroke-linecap="round" />
</g>
</g>
</g>
</svg>