<?xml version="1.0" encoding="UTF-8" standalone="no" ?>
<!DOCTYPE svg PUBLIC "-//W3C//DTD SVG 1.1//EN" "http://www.w3.org/Graphics/SVG/1.1/DTD/svg11.dtd">
<svg xmlns="http://www.w3.org/2000/svg" xmlns:xlink="http://www.w3.org/1999/xlink" version="1.1" width="1080" height="1080" viewBox="0 0 1080 1080" xml:space="preserve">
<desc>Created with Fabric.js 5.2.4</desc>
<defs>
</defs>
<g transform="matrix(1 0 0 1 540 540)" id="596b122b-0216-4378-8396-36ef7b8891dc"  >
<rect style="stroke: none; stroke-width: 1; stroke-dasharray: none; stroke-linecap: butt; stroke-dashoffset: 0; stroke-linejoin: miter; stroke-miterlimit: 4; fill: rgb(255,255,255); fill-rule: nonzero; opacity: 1; visibility: hidden;" vector-effect="non-scaling-stroke"  x="-540" y="-540" rx="0" ry="0" width="1080" height="1080" />
</g>
<g transform="matrix(1 0 0 1 540 540)" id="e2dc2b0c-9078-4bb5-ab19-ed5ffe647acb"  >
</g>
<g transform="matrix(34.84 0 0 34.84 540 540)"  >
<g style=""   >
		<g transform="matrix(1 0 0 1 -11.67 0)"  >
<path style="stroke: none; stroke-width: 1; stroke-dasharray: none; stroke-linecap: butt; stroke-dashoffset: 0; stroke-linejoin: miter; stroke-miterlimit: 4; fill: rgb(0,126,87); fill-rule: nonzero; opacity: 1;" vector-effect="non-scaling-stroke"  transform=" translate(-3.83, -5)" d="M 2.9903 7.13018 C 4.3143 7.11818 4.9973 5.07218 4.1623 4.15618 C 3.4053 4.70618 2.3493 4.91414 1.6483 4.16314 C 1.0933 5.47114 1.2113 7.16018 2.9903 7.13018 Z M 1.3623 8.69317 C -0.729701 7.34017 -0.117701 5.01915 1.2293 3.36815 C 1.1613 -0.0498464 6.5883 -0.226862 7.3803 2.95214 C 8.7403 6.32114 4.7753 11.0272 1.3623 8.69317 Z" stroke-linecap="round" />
</g>
		<g transform="matrix(1 0 0 1 -0.02 0)"  >
<path style="stroke: none; stroke-width: 1; stroke-dasharray: none; stroke-linecap: butt; stroke-dashoffset: 0; stroke-linejoin: miter; stroke-miterlimit: 4; fill: rgb(0,126,87); fill-rule: nonzero; opacity: 1;" vector-effect="non-scaling-stroke"  transform=" translate(-15.48, -5)" d="M 14.6448 7.13018 C 15.9688 7.11818 16.6518 5.07218 15.8168 4.15618 C 15.0598 4.70618 14.0038 4.91414 13.3028 4.16314 C 12.7478 5.47114 12.8658 7.16018 14.6448 7.13018 Z M 13.0168 8.69317 C 10.9248 7.34017 11.5368 5.01915 12.8838 3.36815 C 12.8158 -0.0498464 18.2428 -0.226862 19.0348 2.95214 C 20.3948 6.32114 16.4298 11.0272 13.0168 8.69317 Z" stroke-linecap="round" />
</g>
		<g transform="matrix(1 0 0 1 11.64 0)"  >
<path style="stroke: none; stroke-width: 1; stroke-dasharray: none; stroke-linecap: butt; stroke-dashoffset: 0; stroke-linejoin: miter; stroke-miterlimit: 4; fill: rgb(0,126,87); fill-rule: nonzero; opacity: 1;" vector-effect="non-scaling-stroke"  transform=" translate(-27.14, -5)" d="M 26.2994 7.13018 C 27.6234 7.11818 28.3064 5.07218 27.4714 4.15618 C 26.7144 4.70618 25.6584 4.91414 24.9574 4.16314 C 24.4024 5.47114 24.5204 7.16018 26.2994 7.13018 Z M 24.6714 8.69317 C 22.5794 7.34017 23.1914 5.01915 24.5384 3.36815 C 24.4704 -0.0498464 29.8974 -0.226862 30.6894 2.95214 C 32.0494 6.32114 28.0844 11.0272 24.6714 8.69317 Z" stroke-linecap="round" />
</g>
</g>
</g>
</svg>