<?xml version="1.0" encoding="UTF-8" standalone="no" ?>
<!DOCTYPE svg PUBLIC "-//W3C//DTD SVG 1.1//EN" "http://www.w3.org/Graphics/SVG/1.1/DTD/svg11.dtd">
<svg xmlns="http://www.w3.org/2000/svg" xmlns:xlink="http://www.w3.org/1999/xlink" version="1.1" width="1080" height="1080" viewBox="0 0 1080 1080" xml:space="preserve">
<desc>Created with Fabric.js 5.2.4</desc>
<defs>
</defs>
<rect x="0" y="0" width="100%" height="100%" fill="transparent"></rect>
<g transform="matrix(1 0 0 1 540 540)" id="648a1cd4-82c7-4b12-81ee-b39074f9a130"  >
<rect style="stroke: none; stroke-width: 1; stroke-dasharray: none; stroke-linecap: butt; stroke-dashoffset: 0; stroke-linejoin: miter; stroke-miterlimit: 4; fill: rgb(255,255,255); fill-rule: nonzero; opacity: 1; visibility: hidden;" vector-effect="non-scaling-stroke"  x="-540" y="-540" rx="0" ry="0" width="1080" height="1080" />
</g>
<g transform="matrix(1 0 0 1 540 540)" id="fbb05010-996c-4953-a9af-0f43042b8985"  >
</g>
<g transform="matrix(2.28 0 0 2.28 540 540)"  >
<path style="stroke: none; stroke-width: 1; stroke-dasharray: none; stroke-linecap: butt; stroke-dashoffset: 0; stroke-linejoin: miter; stroke-miterlimit: 4; fill: rgb(255,255,255); fill-rule: nonzero; opacity: 1;"  transform=" translate(-236.9, -236.9)" d="M 374.456 293.506 C 364.75600000000003 283.40599999999995 353.05600000000004 278.006 340.656 278.006 C 328.356 278.006 316.556 283.306 306.456 293.40599999999995 L 274.856 324.90599999999995 C 272.256 323.506 269.656 322.20599999999996 267.156 320.90599999999995 C 263.556 319.10599999999994 260.156 317.40599999999995 257.25600000000003 315.60599999999994 C 227.65600000000003 296.8059999999999 200.75600000000003 272.3059999999999 174.95600000000002 240.60599999999994 C 162.45600000000002 224.80599999999993 154.056 211.50599999999994 147.95600000000002 198.00599999999994 C 156.156 190.50599999999994 163.75600000000003 182.70599999999993 171.156 175.20599999999993 C 173.95600000000002 172.40599999999992 176.756 169.50599999999994 179.556 166.70599999999993 C 200.556 145.70599999999993 200.556 118.50599999999993 179.556 97.50599999999993 L 152.256 70.20599999999993 C 149.156 67.10599999999994 145.956 63.905999999999935 142.956 60.70599999999993 C 136.956 54.50599999999993 130.65599999999998 48.10599999999993 124.15599999999999 42.10599999999993 C 114.45599999999999 32.50599999999993 102.856 27.40599999999993 90.65599999999999 27.40599999999993 C 78.45599999999999 27.40599999999993 66.65599999999999 32.50599999999993 56.65599999999999 42.10599999999993 L 56.45599999999999 42.30599999999993 L 22.45599999999999 76.60599999999994 C 9.655999999999988 89.40599999999993 2.3559999999999874 105.00599999999994 0.7559999999999896 123.10599999999994 C -1.6440000000000103 152.30599999999993 6.95599999999999 179.50599999999994 13.55599999999999 197.30599999999993 C 29.75599999999999 241.00599999999991 53.95599999999999 281.5059999999999 90.05599999999998 324.90599999999995 C 133.856 377.20599999999996 186.55599999999998 418.506 246.75599999999997 447.60599999999994 C 269.756 458.5059999999999 300.45599999999996 471.40599999999995 334.756 473.60599999999994 C 336.856 473.70599999999996 339.056 473.8059999999999 341.056 473.8059999999999 C 364.156 473.8059999999999 383.556 465.5059999999999 398.756 449.0059999999999 C 398.856 448.8059999999999 399.056 448.7059999999999 399.15599999999995 448.5059999999999 C 404.35599999999994 442.2059999999999 410.35599999999994 436.5059999999999 416.65599999999995 430.4059999999999 C 420.95599999999996 426.30599999999987 425.35599999999994 422.0059999999999 429.65599999999995 417.5059999999999 C 439.5559999999999 407.2059999999999 444.756 395.2059999999999 444.756 382.9059999999999 C 444.756 370.5059999999999 439.45599999999996 358.6059999999999 429.356 348.6059999999999 L 374.456 293.50599999999986 z M 410.25600000000003 398.806 C 410.156 398.806 410.156 398.906 410.25600000000003 398.806 C 406.35600000000005 403.006 402.35600000000005 406.806 398.05600000000004 411.006 C 391.55600000000004 417.20599999999996 384.956 423.70599999999996 378.75600000000003 431.006 C 368.656 441.806 356.75600000000003 446.90599999999995 341.156 446.90599999999995 C 339.656 446.90599999999995 338.056 446.90599999999995 336.556 446.8059999999999 C 306.856 444.90599999999995 279.256 433.3059999999999 258.556 423.40599999999995 C 201.956 396.006 152.25599999999997 357.10599999999994 110.95599999999999 307.8059999999999 C 76.856 266.7059999999999 54.05599999999999 228.70599999999993 38.95599999999999 187.90599999999992 C 29.655999999999988 163.00599999999991 26.25599999999999 143.60599999999994 27.75599999999999 125.30599999999993 C 28.75599999999999 113.60599999999992 33.255999999999986 103.90599999999992 41.55599999999999 95.60599999999992 L 75.65599999999999 61.50599999999992 C 80.556 56.90599999999992 85.75599999999999 54.40599999999992 90.856 54.40599999999992 C 97.15599999999999 54.40599999999992 102.256 58.20599999999992 105.45599999999999 61.40599999999992 L 105.75599999999999 61.70599999999992 C 111.85599999999998 67.40599999999992 117.65599999999999 73.30599999999991 123.75599999999999 79.60599999999991 C 126.85599999999998 82.80599999999991 130.05599999999998 86.00599999999991 133.25599999999997 89.30599999999991 L 160.55599999999998 116.60599999999991 C 171.15599999999998 127.2059999999999 171.15599999999998 137.00599999999991 160.55599999999998 147.6059999999999 C 157.65599999999998 150.50599999999991 154.856 153.40599999999992 151.956 156.2059999999999 C 143.55599999999998 164.8059999999999 135.55599999999998 172.8059999999999 126.856 180.6059999999999 C 126.65599999999999 180.8059999999999 126.45599999999999 180.90599999999992 126.356 181.1059999999999 C 117.756 189.7059999999999 119.356 198.1059999999999 121.15599999999999 203.8059999999999 L 121.45599999999999 204.7059999999999 C 128.55599999999998 221.9059999999999 138.55599999999998 238.1059999999999 153.75599999999997 257.4059999999999 L 153.85599999999997 257.5059999999999 C 181.45599999999996 291.5059999999999 210.55599999999998 318.0059999999999 242.65599999999995 338.3059999999999 C 246.75599999999994 340.90599999999995 250.95599999999996 343.0059999999999 254.95599999999996 345.0059999999999 C 258.556 346.8059999999999 261.95599999999996 348.5059999999999 264.85599999999994 350.3059999999999 C 265.2559999999999 350.5059999999999 265.65599999999995 350.8059999999999 266.0559999999999 351.0059999999999 C 269.4559999999999 352.7059999999999 272.65599999999995 353.5059999999999 275.9559999999999 353.5059999999999 C 284.2559999999999 353.5059999999999 289.4559999999999 348.3059999999999 291.1559999999999 346.60599999999994 L 325.3559999999999 312.40599999999995 C 328.75599999999986 309.006 334.1559999999999 304.90599999999995 340.4559999999999 304.90599999999995 C 346.6559999999999 304.90599999999995 351.7559999999999 308.8059999999999 354.8559999999999 312.20599999999996 L 355.05599999999987 312.40599999999995 L 410.1559999999999 367.506 C 420.4559999999999 377.70599999999996 420.4559999999999 388.20599999999996 410.2559999999999 398.806 z M 256.056 112.706 C 282.256 117.10600000000001 306.056 129.506 325.056 148.506 C 344.056 167.506 356.356 191.30599999999998 360.856 217.506 C 361.956 224.106 367.656 228.706 374.156 228.706 C 374.956 228.706 375.656 228.606 376.456 228.506 C 383.856 227.306 388.75600000000003 220.306 387.55600000000004 212.906 C 382.15600000000006 181.20600000000002 367.15600000000006 152.306 344.25600000000003 129.406 C 321.356 106.506 292.456 91.506 260.75600000000003 86.10600000000001 C 253.35600000000002 84.906 246.45600000000002 89.80600000000001 245.15600000000003 97.10600000000001 C 243.85600000000005 104.406 248.65600000000003 111.50600000000001 256.05600000000004 112.706 z M 473.256 209.006 C 464.356 156.80599999999998 439.756 109.306 401.95599999999996 71.506 C 364.15599999999995 33.706 316.65599999999995 9.106000000000002 264.45599999999996 0.20600000000000307 C 257.15599999999995 -1.093999999999997 250.25599999999997 3.9060000000000032 248.95599999999996 11.206000000000003 C 247.75599999999997 18.606 252.65599999999995 25.506000000000004 260.056 26.806000000000004 C 306.656 34.706 349.15599999999995 56.806000000000004 382.956 90.506 C 416.75600000000003 124.306 438.75600000000003 166.80599999999998 446.656 213.406 C 447.75600000000003 220.006 453.456 224.606 459.956 224.606 C 460.75600000000003 224.606 461.456 224.506 462.25600000000003 224.406 C 469.55600000000004 223.306 474.55600000000004 216.306 473.25600000000003 209.006 z" stroke-linecap="round" />
</g>
</svg>