<svg xmlns="http://www.w3.org/2000/svg" width="20" height="20" viewBox="0 0 20 20" fill="none"><path d="M16.7504 7.175C18.4504 7.45833 18.8504 8.69166 17.6254 9.90833L15.5587 11.975C15.2087 12.325 15.0171 13 15.1254 13.4833L15.7171 16.0417C16.1837 18.0667 15.1087 18.85 13.3171 17.7917L10.8254 16.3167C10.3754 16.05 9.63375 16.05 9.17541 16.3167L6.68375 17.7917C4.90041 18.85 3.81708 18.0583 4.28375 16.0417L4.87541 13.4833C4.98375 13 4.79208 12.325 4.44208 11.975L2.37541 9.90833C1.15875 8.69166 1.55041 7.45833 3.25041 7.175L5.90875 6.73333C6.35041 6.65833 6.88375 6.26666 7.08375 5.85833L8.55041 2.925C9.34208 1.33333 10.6421 1.33333 11.4421 2.925L12.9087 5.85833C12.9921 6.03333 13.1421 6.20833 13.3171 6.35" stroke="" stroke-width="1.5" stroke-linecap="round" stroke-linejoin="round"></path></svg>