<?xml version="1.0" encoding="UTF-8" standalone="no" ?>
<!DOCTYPE svg PUBLIC "-//W3C//DTD SVG 1.1//EN" "http://www.w3.org/Graphics/SVG/1.1/DTD/svg11.dtd">
<svg xmlns="http://www.w3.org/2000/svg" xmlns:xlink="http://www.w3.org/1999/xlink" version="1.1" width="1080" height="1080" viewBox="0 0 1080 1080" xml:space="preserve">
<desc>Created with Fabric.js 5.2.4</desc>
<defs>
</defs>
<rect x="0" y="0" width="100%" height="100%" fill="transparent"></rect>
<g transform="matrix(1 0 0 1 540 540)" id="4ba13e8b-6254-45fa-89ec-899284cd5140"  >
<rect style="stroke: none; stroke-width: 1; stroke-dasharray: none; stroke-linecap: butt; stroke-dashoffset: 0; stroke-linejoin: miter; stroke-miterlimit: 4; fill: rgb(255,255,255); fill-rule: nonzero; opacity: 1; visibility: hidden;" vector-effect="non-scaling-stroke"  x="-540" y="-540" rx="0" ry="0" width="1080" height="1080" />
</g>
<g transform="matrix(1 0 0 1 540 540)" id="08d40b2c-ba83-416b-90aa-0b6d36277c2d"  >
</g>
<g transform="matrix(13.85 0 0 13.85 540 540)"  >
<g style=""   >
		<g transform="matrix(1 0 0 1 0 0)"  >
<path style="stroke: none; stroke-width: 1; stroke-dasharray: none; stroke-linecap: butt; stroke-dashoffset: 0; stroke-linejoin: miter; stroke-miterlimit: 4; fill: rgb(255,255,255); fill-rule: evenodd; opacity: 1;" vector-effect="non-scaling-stroke"  transform=" translate(-39, -36)" d="M 57.2812 36.3769 L 57.2812 60.75 L 58.5 60.75 C 59.7931 60.75 61.0326 61.2236 61.9466 62.0685 C 62.3996 62.4861 62.7589 62.982 63.004 63.528 C 63.2491 64.0739 63.3752 64.6591 63.375 65.25 L 63.375 66.375 C 63.375 66.6734 63.2466 66.9595 63.018 67.1705 C 62.7895 67.3815 62.4795 67.5 62.1562 67.5 L 10.9688 67.5 C 10.6455 67.5 10.3355 67.3815 10.107 67.1705 C 9.8784 66.9595 9.75 66.6734 9.75 66.375 L 9.75 65.25 C 9.75 64.0564 10.2631 62.9123 11.1784 62.0685 C 11.6308 61.6504 12.168 61.3187 12.7594 61.0924 C 13.3509 60.8662 13.9848 60.7498 14.625 60.75 L 15.8438 60.75 L 15.8438 28.5907 L 9.96328 34.02 C 10.6234 34.2787 11.1863 34.7112 11.5819 35.2634 C 11.9774 35.8155 12.1881 36.463 12.1875 37.125 L 12.1875 50.625 C 12.1875 50.9234 12.0591 51.2095 11.8305 51.4205 C 11.602 51.6315 11.292 51.75 10.9688 51.75 L 6.09375 51.75 C 5.77052 51.75 5.46052 51.6315 5.23196 51.4205 C 5.0034 51.2095 4.875 50.9234 4.875 50.625 L 4.875 37.125 C 4.87486 36.427 5.10919 35.746 5.54573 35.1761 C 5.98227 34.6061 6.59954 34.1751 7.3125 33.9424 L 7.3125 33.75 C 7.3125 33.4519 7.44047 33.165 7.66959 32.9546 L 15.9193 25.3395 C 14.3985 24.4182 13.1497 23.1622 12.2855 21.6846 C 11.4213 20.207 10.9688 18.5542 10.9688 16.875 L 10.9688 10.125 C 10.9688 8.63325 11.611 7.20225 12.753 6.147 C 13.8963 5.09259 15.4463 4.50022 17.0625 4.5 L 56.0625 4.5 C 57.6786 4.5 59.2288 5.09288 60.372 6.147 C 61.5143 7.20239 62.156 8.63315 62.1562 10.125 L 62.1562 16.875 C 62.1562 18.54 61.7113 20.1794 60.8609 21.6478 C 60.0106 23.1162 58.7811 24.3684 57.2812 25.2934 L 57.2812 28.8731 C 62.8717 28.4614 67.6333 28.125 68.25 28.125 C 70.941 28.125 73.125 30.141 73.125 32.625 C 73.125 35.109 70.941 37.125 68.25 37.125 C 67.6333 37.125 62.8717 36.7886 57.2812 36.3769 Z M 60.9375 65.25 C 60.9375 64.6533 60.6807 64.081 60.2236 63.659 C 59.7665 63.2371 59.1465 63 58.5 63 L 14.625 63 C 13.9785 63 13.3585 63.2371 12.9014 63.659 C 12.4443 64.081 12.1875 64.6533 12.1875 65.25 L 60.9375 65.25 Z M 45.0938 51.75 C 45.0938 51.4516 44.9653 51.1655 44.7368 50.9545 C 44.5082 50.7435 44.1982 50.625 43.875 50.625 L 29.25 50.625 C 28.9268 50.625 28.6168 50.7435 28.3882 50.9545 C 28.1597 51.1655 28.0312 51.4516 28.0312 51.75 L 28.0312 55.125 C 28.0312 56.6167 28.6735 58.0477 29.8155 59.103 C 30.9588 60.1574 32.5088 60.7498 34.125 60.75 L 39 60.75 C 40.6162 60.7498 42.1662 60.1574 43.3095 59.103 C 44.4518 58.0476 45.0935 56.6169 45.0938 55.125 L 45.0938 51.75 Z M 34.125 40.5 L 34.125 44.9573 C 34.1253 45.2672 34.2588 45.5643 34.4962 45.7834 C 34.7336 46.0026 35.0555 46.1258 35.3913 46.1261 L 37.7349 46.125 C 38.4333 46.125 39 45.6019 39 44.9573 L 39 40.4989 L 34.125 40.5 Z M 49.9688 29.4176 L 49.9688 27 L 23.1562 27 L 23.1562 37.125 C 23.1558 37.2729 23.187 37.4194 23.248 37.556 C 23.3091 37.6927 23.3989 37.8169 23.5121 37.9215 C 23.6254 38.026 23.76 38.1089 23.908 38.1653 C 24.0561 38.2216 24.2148 38.2504 24.375 38.25 L 48.75 38.25 C 49.0732 38.25 49.3832 38.1315 49.6118 37.9205 C 49.8403 37.7095 49.9688 37.4234 49.9688 37.125 L 49.9688 35.8324 C 45.4338 35.4915 41.2657 35.1742 39.1462 35.0122 C 38.721 35.4052 38.1973 35.6952 37.6215 35.8566 C 37.0458 36.018 36.4358 36.0457 35.8456 35.9374 C 35.2555 35.8292 34.7034 35.5881 34.2383 35.2357 C 33.7732 34.8833 33.4095 34.4305 33.1793 33.9173 C 32.9492 33.4041 32.8598 32.8464 32.9191 32.2937 C 32.9783 31.741 33.1844 31.2103 33.519 30.7486 C 33.8536 30.287 34.3064 29.9087 34.8373 29.6473 C 35.3682 29.3859 35.9608 29.2494 36.5625 29.25 C 37.5704 29.25 38.4845 29.628 39.1462 30.2378 C 41.2657 30.0758 45.4326 29.7585 49.9688 29.4176 Z M 9.75 38.25 L 9.75 37.125 C 9.75048 36.9771 9.71929 36.8306 9.65821 36.694 C 9.59713 36.5573 9.50738 36.4331 9.39411 36.3285 C 9.28085 36.224 9.1463 36.1411 8.99822 36.0847 C 8.85013 36.0283 8.69143 35.9996 8.53125 36 C 8.20802 36 7.89802 36.1185 7.66946 36.3295 C 7.4409 36.5405 7.3125 36.8266 7.3125 37.125 L 7.3125 38.25 L 9.75 38.25 Z M 40.2114 32.8365 C 47.0974 33.363 66.9508 34.875 68.25 34.875 C 68.8965 34.875 69.5165 34.6379 69.9736 34.216 C 70.4307 33.794 70.6875 33.2217 70.6875 32.625 C 70.6875 32.0283 70.4307 31.456 69.9736 31.034 C 69.5165 30.6121 68.8965 30.375 68.25 30.375 C 66.9508 30.375 47.0974 31.887 40.2114 32.4135 C 40.2213 32.5544 40.2213 32.6956 40.2114 32.8365 Z M 59.7188 10.125 L 59.7188 16.875 C 59.7189 17.9092 59.4983 18.9333 59.0697 19.8888 C 58.641 20.8443 58.0126 21.7125 57.2204 22.4438 C 56.4281 23.1751 55.4876 23.7551 54.4525 24.1509 C 53.4173 24.5466 52.3079 24.7501 51.1875 24.75 L 21.9375 24.75 C 20.8171 24.7501 19.7077 24.5466 18.6725 24.1509 C 17.6374 23.7551 16.6969 23.1751 15.9046 22.4438 C 15.1124 21.7125 14.484 20.8443 14.0553 19.8888 C 13.6266 18.9333 13.4061 17.9092 13.4062 16.875 L 13.4062 10.125 C 13.4062 9.2295 13.7914 8.37113 14.4775 7.73888 C 14.8168 7.42526 15.2198 7.17648 15.6633 7.0068 C 16.1069 6.83711 16.5824 6.74985 17.0625 6.75 L 56.0625 6.75 C 57.0326 6.75 57.9625 7.1055 58.6475 7.73888 C 59.3336 8.37113 59.7188 9.2295 59.7188 10.125 Z" stroke-linecap="round" />
</g>
		<g transform="matrix(1 0 0 1 -2.44 -20.25)"  >
<path style="stroke: none; stroke-width: 1; stroke-dasharray: none; stroke-linecap: butt; stroke-dashoffset: 0; stroke-linejoin: miter; stroke-miterlimit: 4; fill: rgb(255,255,255); fill-rule: evenodd; opacity: 1;" vector-effect="non-scaling-stroke"  transform=" translate(-36.56, -15.75)" d="M 21.9375 19.1362 C 21.9375 19.4346 21.8091 19.7208 21.5805 19.9317 C 21.352 20.1427 21.042 20.2612 20.7188 20.2612 C 20.3955 20.2612 20.0855 20.1427 19.857 19.9317 C 19.6284 19.7208 19.5 19.4346 19.5 19.1362 C 19.5 18.8379 19.6284 18.5517 19.857 18.3407 C 20.0855 18.1298 20.3955 18.0112 20.7188 18.0112 C 21.042 18.0112 21.352 18.1298 21.5805 18.3407 C 21.8091 18.5517 21.9375 18.8379 21.9375 19.1362 Z M 53.6226 19.1239 C 53.6226 19.4222 53.4942 19.7084 53.2656 19.9194 C 53.037 20.1303 52.727 20.2489 52.4038 20.2489 C 52.0806 20.2489 51.7706 20.1303 51.542 19.9194 C 51.3135 19.7084 51.1851 19.4222 51.1851 19.1239 C 51.1851 18.8255 51.3135 18.5394 51.542 18.3284 C 51.7706 18.1174 52.0806 17.9989 52.4038 17.9989 C 52.727 17.9989 53.037 18.1174 53.2656 18.3284 C 53.4942 18.5394 53.6226 18.8255 53.6226 19.1239 Z M 23.1562 13.5 C 23.1562 14.0967 22.8994 14.669 22.4423 15.091 C 21.9852 15.5129 21.3652 15.75 20.7188 15.75 C 20.0723 15.75 19.4523 15.5129 18.9952 15.091 C 18.5381 14.669 18.2812 14.0967 18.2812 13.5 C 18.2812 12.9033 18.5381 12.331 18.9952 11.909 C 19.4523 11.487 20.0723 11.25 20.7188 11.25 C 21.3652 11.25 21.9852 11.487 22.4423 11.909 C 22.8994 12.331 23.1562 12.9033 23.1562 13.5 Z M 54.8462 13.5 C 54.846 13.7956 54.7828 14.0883 54.6601 14.3614 C 54.5374 14.6344 54.3576 14.8825 54.131 15.0915 C 53.9045 15.3004 53.6355 15.4661 53.3396 15.5791 C 53.0437 15.6921 52.7265 15.7501 52.4062 15.75 C 51.7599 15.7497 51.1401 15.5125 50.683 15.0907 C 50.226 14.6688 49.9691 14.0966 49.9688 13.5 C 49.9686 13.2044 50.0315 12.9116 50.1539 12.6384 C 50.2763 12.3653 50.4558 12.117 50.6822 11.9079 C 50.9085 11.6987 51.1773 11.5328 51.4731 11.4195 C 51.7689 11.3063 52.086 11.2479 52.4062 11.2477 C 52.7267 11.2476 53.0441 11.3058 53.3402 11.4189 C 53.6363 11.532 53.9053 11.6979 54.1319 11.9071 C 54.3585 12.1163 54.5382 12.3646 54.6608 12.6379 C 54.7833 12.9112 54.8463 13.2042 54.8462 13.5 Z M 41.6325 12.663 C 42.236 13.5086 42.5804 14.4893 42.629 15.5009 C 42.6777 16.5126 42.429 17.5175 41.9091 18.4092 C 41.3892 19.3009 40.6176 20.0462 39.6761 20.5659 C 38.7346 21.0857 37.6583 21.3606 36.5613 21.3615 C 33.2073 21.3615 30.4846 18.8482 30.4846 15.7522 C 30.4854 14.7394 30.7832 13.7457 31.3463 12.8764 C 31.9095 12.0072 32.7169 11.2948 33.6832 10.8149 C 34.6494 10.335 35.7383 10.1054 36.8345 10.1505 C 37.9306 10.1956 38.9931 10.5137 39.9092 11.0711 L 35.7008 14.9546 C 35.4788 15.1668 35.356 15.451 35.3588 15.7459 C 35.3615 16.0409 35.4897 16.3231 35.7157 16.5317 C 35.9417 16.7403 36.2473 16.8586 36.5669 16.8611 C 36.8864 16.8637 37.1943 16.7503 37.4242 16.5454 L 41.6325 12.663 Z" stroke-linecap="round" />
</g>
</g>
</g>
</svg>