<?xml version="1.0" encoding="UTF-8" standalone="no" ?>
<!DOCTYPE svg PUBLIC "-//W3C//DTD SVG 1.1//EN" "http://www.w3.org/Graphics/SVG/1.1/DTD/svg11.dtd">
<svg xmlns="http://www.w3.org/2000/svg" xmlns:xlink="http://www.w3.org/1999/xlink" version="1.1" width="1080" height="1080" viewBox="0 0 1080 1080" xml:space="preserve">
<desc>Created with Fabric.js 5.2.4</desc>
<defs>
</defs>
<g transform="matrix(1 0 0 1 540 540)" id="4ba13e8b-6254-45fa-89ec-899284cd5140"  >
<rect style="stroke: none; stroke-width: 1; stroke-dasharray: none; stroke-linecap: butt; stroke-dashoffset: 0; stroke-linejoin: miter; stroke-miterlimit: 4; fill: rgb(255,255,255); fill-rule: nonzero; opacity: 1; visibility: hidden;" vector-effect="non-scaling-stroke"  x="-540" y="-540" rx="0" ry="0" width="1080" height="1080" />
</g>
<g transform="matrix(1 0 0 1 540 540)" id="08d40b2c-ba83-416b-90aa-0b6d36277c2d"  >
</g>
<g transform="matrix(15 0 0 15 540 540)"  >
<g style=""   >
		<g transform="matrix(1 0 0 1 -4.5 -13.5)"  >
<path style="stroke: none; stroke-width: 1; stroke-dasharray: none; stroke-linecap: butt; stroke-dashoffset: 0; stroke-linejoin: miter; stroke-miterlimit: 4; fill: rgb(255,255,255); fill-rule: evenodd; opacity: 1;" vector-effect="non-scaling-stroke"  transform=" translate(-31.5, -22.5)" d="M 34.875 22.5 C 34.875 23.3951 34.5194 24.2536 33.8865 24.8865 C 33.2536 25.5194 32.3951 25.875 31.5 25.875 C 30.6049 25.875 29.7464 25.5194 29.1135 24.8865 C 28.4806 24.2536 28.125 23.3951 28.125 22.5 C 28.125 21.6049 28.4806 20.7464 29.1135 20.1135 C 29.7464 19.4806 30.6049 19.125 31.5 19.125 C 32.3951 19.125 33.2536 19.4806 33.8865 20.1135 C 34.5194 20.7464 34.875 21.6049 34.875 22.5 Z" stroke-linecap="round" />
</g>
		<g transform="matrix(1 0 0 1 0 0)"  >
<path style="stroke: none; stroke-width: 1; stroke-dasharray: none; stroke-linecap: butt; stroke-dashoffset: 0; stroke-linejoin: miter; stroke-miterlimit: 4; fill: rgb(255,255,255); fill-rule: evenodd; opacity: 1;" vector-effect="non-scaling-stroke"  transform=" translate(-36, -36)" d="M 20.25 14.625 L 20.25 9 C 20.25 8.10489 20.6056 7.24645 21.2385 6.61351 C 21.8714 5.98058 22.7299 5.625 23.625 5.625 L 48.375 5.625 C 49.2701 5.625 50.1285 5.98058 50.7615 6.61351 C 51.3944 7.24645 51.75 8.10489 51.75 9 L 51.75 14.625 C 51.9467 14.6249 52.1399 14.6764 52.3104 14.7743 C 52.481 14.8722 52.6229 15.0132 52.722 15.183 L 59.9839 27.6322 C 60.4854 28.4921 60.7498 29.4696 60.75 30.465 L 60.75 60.75 C 60.75 62.2418 60.1574 63.6726 59.1025 64.7275 C 58.0476 65.7824 56.6168 66.375 55.125 66.375 L 16.875 66.375 C 15.3832 66.375 13.9524 65.7824 12.8975 64.7275 C 11.8426 63.6726 11.25 62.2418 11.25 60.75 L 11.25 30.465 C 11.2502 29.4696 11.5146 28.4921 12.0161 27.6322 L 19.278 15.183 C 19.3771 15.0132 19.519 14.8722 19.6896 14.7743 C 19.8601 14.6764 20.0533 14.6249 20.25 14.625 Z M 51.75 17.9831 L 45.4601 28.7663 C 45.1586 29.2826 45 29.8687 45 30.465 L 45 60.75 C 45 61.6451 45.3556 62.5035 45.9885 63.1365 C 46.6215 63.7694 47.4799 64.125 48.375 64.125 L 55.125 64.125 C 56.0201 64.125 56.8785 63.7694 57.5115 63.1365 C 58.1444 62.5035 58.5 61.6451 58.5 60.75 L 58.5 30.465 C 58.5 29.8687 58.3414 29.2826 58.0399 28.7663 L 51.75 17.9831 Z M 28.125 40.5 C 31.8499 40.5 34.875 43.5251 34.875 47.25 C 34.875 50.9749 31.8499 54 28.125 54 C 24.4001 54 21.375 50.9738 21.375 47.25 C 21.375 43.5262 24.4001 40.5 28.125 40.5 Z M 36.4702 50.625 L 42.75 50.625 L 42.75 43.875 L 36.4702 43.875 C 36.8921 44.9179 37.125 46.0564 37.125 47.25 C 37.125 48.4436 36.8921 49.5821 36.4702 50.625 Z M 19.7798 43.875 L 13.5 43.875 L 13.5 50.625 L 19.7798 50.625 C 19.3579 49.5821 19.125 48.4425 19.125 47.25 C 19.125 46.0575 19.3579 44.9179 19.7798 43.875 Z M 20.8957 16.875 L 14.3336 28.125 L 43.2607 28.125 C 43.3372 27.9562 43.4227 27.7931 43.5161 27.6322 L 49.7914 16.875 L 20.8957 16.875 Z M 43.875 7.875 C 44.1734 7.875 44.4595 7.99353 44.6705 8.2045 C 44.8815 8.41548 45 8.70163 45 9 C 45 9.29837 44.8815 9.58452 44.6705 9.7955 C 44.4595 10.0065 44.1734 10.125 43.875 10.125 C 43.5766 10.125 43.2905 10.0065 43.0795 9.7955 C 42.8685 9.58452 42.75 9.29837 42.75 9 C 42.75 8.70163 42.8685 8.41548 43.0795 8.2045 C 43.2905 7.99353 43.5766 7.875 43.875 7.875 Z M 48.375 7.875 C 48.6734 7.875 48.9595 7.99353 49.1705 8.2045 C 49.3815 8.41548 49.5 8.70163 49.5 9 C 49.5 9.29837 49.3815 9.58452 49.1705 9.7955 C 48.9595 10.0065 48.6734 10.125 48.375 10.125 C 48.0766 10.125 47.7905 10.0065 47.5795 9.7955 C 47.3685 9.58452 47.25 9.29837 47.25 9 C 47.25 8.70163 47.3685 8.41548 47.5795 8.2045 C 47.7905 7.99353 48.0766 7.875 48.375 7.875 Z" stroke-linecap="round" />
</g>
</g>
</g>
</svg>