<?xml version="1.0" encoding="UTF-8" standalone="no" ?>
<!DOCTYPE svg PUBLIC "-//W3C//DTD SVG 1.1//EN" "http://www.w3.org/Graphics/SVG/1.1/DTD/svg11.dtd">
<svg xmlns="http://www.w3.org/2000/svg" xmlns:xlink="http://www.w3.org/1999/xlink" version="1.1" width="1080" height="1080" viewBox="0 0 1080 1080" xml:space="preserve">
<desc>Created with Fabric.js 5.2.4</desc>
<defs>
</defs>
<rect x="0" y="0" width="100%" height="100%" fill="transparent"></rect>
<g transform="matrix(1 0 0 1 540 540)" id="4ba13e8b-6254-45fa-89ec-899284cd5140"  >
<rect style="stroke: none; stroke-width: 1; stroke-dasharray: none; stroke-linecap: butt; stroke-dashoffset: 0; stroke-linejoin: miter; stroke-miterlimit: 4; fill: rgb(255,255,255); fill-rule: nonzero; opacity: 1; visibility: hidden;" vector-effect="non-scaling-stroke"  x="-540" y="-540" rx="0" ry="0" width="1080" height="1080" />
</g>
<g transform="matrix(1 0 0 1 540 540)" id="08d40b2c-ba83-416b-90aa-0b6d36277c2d"  >
</g>
<g transform="matrix(13.85 0 0 13.85 540 540)"  >
<g style=""   >
		<g transform="matrix(1 0 0 1 0 0)"  >
<path style="stroke: none; stroke-width: 1; stroke-dasharray: none; stroke-linecap: butt; stroke-dashoffset: 0; stroke-linejoin: miter; stroke-miterlimit: 4; fill: rgb(255,255,255); fill-rule: evenodd; opacity: 1;" vector-effect="non-scaling-stroke"  transform=" translate(-39, -36)" d="M 39 11.25 C 36.5016 11.25 34.1555 12.5044 32.2823 14.724 C 29.7278 17.7491 28.0312 22.6215 28.0312 28.125 C 28.0312 33.6285 29.7278 38.5009 32.2823 41.526 C 34.1555 43.7456 36.5016 45 39 45 C 41.4984 45 43.8445 43.7456 45.7178 41.526 C 48.2723 38.4997 49.9688 33.6285 49.9688 28.125 C 49.9688 22.6215 48.2723 17.7491 45.7178 14.724 C 43.8445 12.5044 41.4984 11.25 39 11.25 Z M 39.7081 41.4045 L 38.5771 36.1868 C 38.0992 33.9788 38.432 31.6869 39.5228 29.673 L 40.6575 27.5783 C 41.9905 25.1167 42.3971 22.3153 41.8129 19.6166 L 40.6831 14.4023 C 40.6104 14.1182 40.421 13.8714 40.1549 13.7137 C 39.8889 13.556 39.5669 13.4999 39.2568 13.557 C 38.9468 13.6142 38.6729 13.7803 38.4929 14.0202 C 38.3129 14.2602 38.2408 14.5552 38.2919 14.8433 L 39.4229 20.0576 C 39.9007 22.266 39.5679 24.5576 38.4772 26.5714 L 37.3425 28.6672 C 36.0095 31.1284 35.6029 33.9295 36.1871 36.6277 L 37.3181 41.8455 C 37.3854 42.1345 37.5731 42.3875 37.8408 42.5497 C 38.1085 42.7119 38.4346 42.7704 38.7486 42.7124 C 39.0626 42.6545 39.3393 42.4848 39.5188 42.24 C 39.6984 41.9953 39.7664 41.6952 39.7081 41.4045 Z M 43.875 57.375 C 43.8753 52.8996 45.8015 48.6075 49.2298 45.4429 C 52.6581 42.2783 57.3079 40.5003 62.1562 40.5 L 69.4688 40.5 C 70.4389 40.5 71.3688 40.8555 72.0537 41.4889 C 72.7399 42.1211 73.125 42.9795 73.125 43.8739 C 73.1247 48.3493 71.1985 52.6414 67.7702 55.806 C 64.3419 58.9706 59.6921 60.7486 54.8438 60.7489 L 47.5312 60.7489 C 47.0512 60.7492 46.5758 60.6621 46.1322 60.4926 C 45.6887 60.3231 45.2857 60.0745 44.9463 59.7611 C 44.6065 59.4479 44.337 59.076 44.1532 58.6665 C 43.9694 58.2571 43.8748 57.8182 43.875 57.375 Z M 48.3929 58.1704 L 52.1003 54.7493 C 53.5058 53.4512 55.2671 52.5303 57.1959 52.0853 L 60.3952 51.3472 C 62.7524 50.803 64.9054 49.6781 66.6242 48.0926 L 70.3304 44.6704 C 70.5524 44.4582 70.6753 44.174 70.6725 43.879 C 70.6697 43.5841 70.5415 43.3019 70.3156 43.0933 C 70.0896 42.8847 69.7839 42.7664 69.4644 42.7639 C 69.1448 42.7613 68.837 42.8747 68.6071 43.0796 L 64.8997 46.4996 C 63.4944 47.7981 61.733 48.7194 59.8041 49.1647 C 58.773 49.401 57.6347 49.6654 56.6048 49.9028 C 54.2476 50.447 52.0946 51.5719 50.3758 53.1574 L 46.6696 56.5796 C 46.4476 56.7918 46.3247 57.076 46.3275 57.371 C 46.3303 57.6659 46.4585 57.9481 46.6844 58.1567 C 46.9104 58.3653 47.2161 58.4836 47.5356 58.4861 C 47.8552 58.4887 48.163 58.3753 48.3929 58.1704 Z M 4.875 43.875 C 4.87532 48.3504 6.80148 52.6425 10.2298 55.8071 C 13.6581 58.9717 18.3079 60.7497 23.1562 60.75 L 30.4688 60.75 C 31.4389 60.75 32.3688 60.3945 33.0537 59.76 C 33.3933 59.447 33.6627 59.0752 33.8466 58.6659 C 34.0304 58.2567 34.125 57.818 34.125 57.375 C 34.1247 52.8996 32.1985 48.6075 28.7702 45.4429 C 25.3419 42.2783 20.6921 40.5003 15.8438 40.5 L 8.53125 40.5 C 7.56113 40.5 6.63122 40.8555 5.94628 41.4889 C 5.60667 41.8019 5.33725 42.1737 5.15343 42.5829 C 4.96961 42.9922 4.875 43.432 4.875 43.875 Z M 31.3304 56.5796 L 27.6242 53.1574 C 25.9054 51.5719 23.7524 50.447 21.3952 49.9028 L 18.1959 49.1647 C 16.2671 48.7197 14.5058 47.7988 13.1003 46.5007 L 9.39291 43.0796 C 9.16305 42.8747 8.85519 42.7613 8.53564 42.7639 C 8.21608 42.7664 7.91041 42.8847 7.68444 43.0933 C 7.45847 43.3019 7.3303 43.5841 7.32752 43.879 C 7.32475 44.174 7.44759 44.4582 7.66959 44.6704 L 11.3758 48.0926 C 13.0946 49.6781 15.2476 50.803 17.6048 51.3472 C 18.6347 51.5835 19.773 51.8479 20.8041 52.0853 C 22.7329 52.5303 24.4942 53.4512 25.8997 54.7493 L 29.6071 58.1693 C 29.8378 58.3693 30.1438 58.4786 30.4603 58.474 C 30.7768 58.4695 31.079 58.3515 31.3029 58.1449 C 31.5268 57.9384 31.6548 57.6596 31.66 57.3674 C 31.6651 57.0753 31.5469 56.7928 31.3304 56.5796 Z" stroke-linecap="round" />
</g>
		<g transform="matrix(1 0 0 1 0 14.63)"  >
<path style="stroke: none; stroke-width: 1; stroke-dasharray: none; stroke-linecap: butt; stroke-dashoffset: 0; stroke-linejoin: miter; stroke-miterlimit: 4; fill: rgb(255,255,255); fill-rule: evenodd; opacity: 1;" vector-effect="non-scaling-stroke"  transform=" translate(-39, -50.63)" d="M 37.7812 48.375 C 37.7812 48.6734 37.6528 48.9595 37.4243 49.1705 C 37.1957 49.3815 36.8857 49.5 36.5625 49.5 C 36.2393 49.5 35.9293 49.3815 35.7007 49.1705 C 35.4722 48.9595 35.3438 48.6734 35.3438 48.375 C 35.3438 48.0766 35.4722 47.7905 35.7007 47.5795 C 35.9293 47.3685 36.2393 47.25 36.5625 47.25 C 36.8857 47.25 37.1957 47.3685 37.4243 47.5795 C 37.6528 47.7905 37.7812 48.0766 37.7812 48.375 Z M 42.6562 48.375 C 42.6562 48.6734 42.5278 48.9595 42.2993 49.1705 C 42.0707 49.3815 41.7607 49.5 41.4375 49.5 C 41.1143 49.5 40.8043 49.3815 40.5757 49.1705 C 40.3472 48.9595 40.2188 48.6734 40.2188 48.375 C 40.2188 48.0766 40.3472 47.7905 40.5757 47.5795 C 40.8043 47.3685 41.1143 47.25 41.4375 47.25 C 41.7607 47.25 42.0707 47.3685 42.2993 47.5795 C 42.5278 47.7905 42.6562 48.0766 42.6562 48.375 Z M 40.2188 52.875 C 40.2188 53.1734 40.0903 53.4595 39.8618 53.6705 C 39.6332 53.8815 39.3232 54 39 54 C 38.6768 54 38.3668 53.8815 38.1382 53.6705 C 37.9097 53.4595 37.7812 53.1734 37.7812 52.875 C 37.7812 52.5766 37.9097 52.2905 38.1382 52.0795 C 38.3668 51.8685 38.6768 51.75 39 51.75 C 39.3232 51.75 39.6332 51.8685 39.8618 52.0795 C 40.0903 52.2905 40.2188 52.5766 40.2188 52.875 Z" stroke-linecap="round" />
</g>
</g>
</g>
</svg>