<?xml version="1.0" encoding="UTF-8" standalone="no" ?>
<!DOCTYPE svg PUBLIC "-//W3C//DTD SVG 1.1//EN" "http://www.w3.org/Graphics/SVG/1.1/DTD/svg11.dtd">
<svg xmlns="http://www.w3.org/2000/svg" xmlns:xlink="http://www.w3.org/1999/xlink" version="1.1" width="1080" height="1080" viewBox="0 0 1080 1080" xml:space="preserve">
<desc>Created with Fabric.js 5.2.4</desc>
<defs>
</defs>
<rect x="0" y="0" width="100%" height="100%" fill="transparent"></rect>
<g transform="matrix(1 0 0 1 540 540)" id="4ba13e8b-6254-45fa-89ec-899284cd5140"  >
<rect style="stroke: none; stroke-width: 1; stroke-dasharray: none; stroke-linecap: butt; stroke-dashoffset: 0; stroke-linejoin: miter; stroke-miterlimit: 4; fill: rgb(255,255,255); fill-rule: nonzero; opacity: 1; visibility: hidden;" vector-effect="non-scaling-stroke"  x="-540" y="-540" rx="0" ry="0" width="1080" height="1080" />
</g>
<g transform="matrix(1 0 0 1 540 540)" id="08d40b2c-ba83-416b-90aa-0b6d36277c2d"  >
</g>
<g transform="matrix(13.85 0 0 13.85 540 540)"  >
<g style=""   >
		<g transform="matrix(1 0 0 1 7.82 -9.56)"  >
<path style="stroke: none; stroke-width: 1; stroke-dasharray: none; stroke-linecap: butt; stroke-dashoffset: 0; stroke-linejoin: miter; stroke-miterlimit: 4; fill: rgb(255,255,255); fill-rule: evenodd; opacity: 1;" vector-effect="non-scaling-stroke"  transform=" translate(-46.82, -26.44)" d="M 54.6406 29.25 C 54.9597 29.25 55.2657 29.1315 55.4914 28.9205 C 55.717 28.7095 55.8438 28.4234 55.8438 28.125 L 55.8438 27 C 55.8438 26.1049 55.4635 25.2464 54.7866 24.6135 C 54.1097 23.9806 53.1916 23.625 52.2344 23.625 L 43.8125 23.625 C 43.4934 23.625 43.1874 23.7435 42.9618 23.9545 C 42.7361 24.1655 42.6094 24.4516 42.6094 24.75 C 42.6094 25.0484 42.7361 25.3345 42.9618 25.5455 C 43.1874 25.7565 43.4934 25.875 43.8125 25.875 L 52.2344 25.875 C 52.3924 25.8749 52.5489 25.9039 52.695 25.9603 C 52.841 26.0168 52.9737 26.0997 53.0855 26.2042 C 53.1972 26.3087 53.2858 26.4327 53.3462 26.5693 C 53.4066 26.7059 53.4377 26.8522 53.4375 27 L 53.4375 28.125 C 53.4372 28.2728 53.4681 28.4192 53.5284 28.5559 C 53.5888 28.6925 53.6774 28.8166 53.7892 28.9212 C 53.901 29.0257 54.0337 29.1085 54.1798 29.165 C 54.3259 29.2214 54.4825 29.2503 54.6406 29.25 Z M 40.2031 24.75 C 40.2031 24.4516 40.0764 24.1655 39.8507 23.9545 C 39.6251 23.7435 39.3191 23.625 39 23.625 C 38.6809 23.625 38.3749 23.7435 38.1493 23.9545 C 37.9236 24.1655 37.7969 24.4516 37.7969 24.75 C 37.7969 25.0484 37.9236 25.3345 38.1493 25.5455 C 38.3749 25.7565 38.6809 25.875 39 25.875 C 39.3191 25.875 39.6251 25.7565 39.8507 25.5455 C 40.0764 25.3345 40.2031 25.0484 40.2031 24.75 Z" stroke-linecap="round" />
</g>
		<g transform="matrix(1 0 0 1 0 0)"  >
<path style="stroke: none; stroke-width: 1; stroke-dasharray: none; stroke-linecap: butt; stroke-dashoffset: 0; stroke-linejoin: miter; stroke-miterlimit: 4; fill: rgb(255,255,255); fill-rule: evenodd; opacity: 1;" vector-effect="non-scaling-stroke"  transform=" translate(-39, -36)" d="M 20.9531 19.125 L 20.9531 16.776 C 20.9531 15.012 21.7027 13.32 23.0369 12.0735 C 23.6972 11.4557 24.4812 10.9657 25.3441 10.6313 C 26.207 10.297 27.1319 10.1249 28.066 10.125 L 31.9148 10.125 C 33.2225 10.1251 34.5122 9.84042 35.6818 9.29363 L 43.2747 5.74426 C 43.4581 5.65857 43.6618 5.61812 43.8666 5.62675 C 44.0714 5.63537 44.2705 5.69279 44.4449 5.79354 C 44.6193 5.89429 44.7632 6.03505 44.8631 6.20244 C 44.963 6.36984 45.0155 6.55832 45.0156 6.75001 L 45.0156 9.00001 C 45.0151 9.14787 45.0459 9.29436 45.1062 9.43106 C 45.1665 9.56775 45.2551 9.69194 45.367 9.7965 C 45.4788 9.90105 45.6116 9.9839 45.7578 10.0403 C 45.904 10.0967 46.0606 10.1255 46.2188 10.125 L 49.934 10.125 C 51.8205 10.125 53.63 10.8259 54.9631 12.0735 C 55.6237 12.6909 56.1478 13.424 56.5054 14.2309 C 56.8629 15.0378 57.0469 15.9026 57.0469 16.776 L 57.0469 19.125 C 58.0046 19.125 58.9225 19.4805 59.5987 20.115 C 60.2761 20.7461 60.6562 21.6045 60.6562 22.5 L 60.6562 26.3295 L 60.655 26.5354 L 61.5069 25.7389 C 62.1836 25.1059 63.1015 24.7502 64.0587 24.75 L 64.2728 24.75 C 65.5473 24.75 66.7695 25.2234 67.6707 26.0661 C 68.5719 26.9087 69.0781 28.0516 69.0781 29.2433 L 69.0781 34.1516 C 69.078 35.9367 68.5733 37.6901 67.6151 39.234 C 66.657 40.778 65.2794 42.0577 63.622 42.9435 L 60.1221 44.8133 C 60.098 44.8256 60.0739 44.8403 60.0511 44.8538 L 53.8815 48.7013 C 53.5865 49.9214 53.4376 51.1685 53.4375 52.4194 L 53.4375 56.25 C 53.4378 56.7249 53.3308 57.1945 53.1234 57.628 C 52.9161 58.0615 52.6131 58.4491 52.2344 58.7655 L 52.2344 61.875 L 67.8762 61.875 C 68.195 61.875 68.5006 61.9931 68.7256 62.2046 C 68.8376 62.3089 68.9264 62.4328 68.9869 62.5694 C 69.0474 62.7059 69.0784 62.8522 69.0781 63 C 69.0781 63.8951 68.6978 64.7536 68.021 65.3865 C 67.3441 66.0194 66.426 66.375 65.4688 66.375 L 12.5012 66.375 C 11.5519 66.375 10.6415 66.0224 9.97023 65.3947 C 9.29898 64.7671 8.92188 63.9158 8.92188 63.0281 L 8.92188 63 C 8.92188 62.7016 9.04863 62.4155 9.27426 62.2045 C 9.49989 61.9935 9.80591 61.875 10.125 61.875 L 25.7656 61.875 L 25.7656 58.7655 C 25.3869 58.4491 25.0839 58.0615 24.8766 57.628 C 24.6692 57.1945 24.5622 56.7249 24.5625 56.25 L 24.5625 52.4205 C 24.5625 50.607 24.2497 48.8059 23.6361 47.0846 L 18.3929 32.3775 C 17.6982 30.4273 17.3439 28.3851 17.3438 26.3295 L 17.3438 22.5 C 17.3438 21.6045 17.7239 20.7461 18.4013 20.115 C 18.7361 19.8012 19.1339 19.5522 19.5717 19.3823 C 20.0096 19.2124 20.479 19.125 20.9531 19.125 Z M 28.1719 59.625 L 28.1719 61.875 L 49.8281 61.875 L 49.8281 59.625 L 28.1719 59.625 Z M 55.0004 45.2993 L 58.7168 42.9818 C 58.7854 42.939 58.8564 42.8985 58.9286 42.8603 L 62.4285 40.9894 C 63.7176 40.3006 64.7891 39.3053 65.5343 38.1045 C 66.2795 36.9037 66.6719 35.54 66.6719 34.1516 L 66.6719 29.2433 C 66.6719 28.6483 66.4191 28.0777 65.9692 27.657 C 65.5193 27.2364 64.9091 27 64.2728 27 L 64.0587 27 C 63.7396 27.0001 63.4337 27.1186 63.2081 27.3296 L 60.3037 30.0454 L 60.258 30.087 C 60.0916 30.8619 59.8742 31.6265 59.6071 32.3764 L 55.0004 45.2993 Z M 34.1875 45 C 34.5066 45 34.8126 44.8815 35.0382 44.6705 C 35.2639 44.4595 35.3906 44.1734 35.3906 43.875 C 35.3906 43.5766 35.2639 43.2905 35.0382 43.0795 C 34.8126 42.8685 34.5066 42.75 34.1875 42.75 C 33.8684 42.75 33.5624 42.8685 33.3368 43.0795 C 33.1111 43.2905 32.9844 43.5766 32.9844 43.875 C 32.9844 44.1734 33.1111 44.4595 33.3368 44.6705 C 33.5624 44.8815 33.8684 45 34.1875 45 Z M 43.8125 45 C 44.1316 45 44.4376 44.8815 44.6632 44.6705 C 44.8889 44.4595 45.0156 44.1734 45.0156 43.875 C 45.0156 43.5766 44.8889 43.2905 44.6632 43.0795 C 44.4376 42.8685 44.1316 42.75 43.8125 42.75 C 43.4934 42.75 43.1874 42.8685 42.9618 43.0795 C 42.7361 43.2905 42.6094 43.5766 42.6094 43.875 C 42.6094 44.1734 42.7361 44.4595 42.9618 44.6705 C 43.1874 44.8815 43.4934 45 43.8125 45 Z M 39 41.625 C 39.3191 41.625 39.6251 41.5065 39.8507 41.2955 C 40.0764 41.0845 40.2031 40.7984 40.2031 40.5 C 40.2031 40.2016 40.0764 39.9155 39.8507 39.7045 C 39.6251 39.4935 39.3191 39.375 39 39.375 C 38.6809 39.375 38.3749 39.4935 38.1493 39.7045 C 37.9236 39.9155 37.7969 40.2016 37.7969 40.5 C 37.7969 40.7984 37.9236 41.0845 38.1493 41.2955 C 38.3749 41.5065 38.6809 41.625 39 41.625 Z M 48.625 41.625 C 48.9441 41.625 49.2501 41.5065 49.4757 41.2955 C 49.7014 41.0845 49.8281 40.7984 49.8281 40.5 C 49.8281 40.2016 49.7014 39.9155 49.4757 39.7045 C 49.2501 39.4935 48.9441 39.375 48.625 39.375 C 48.3059 39.375 47.9999 39.4935 47.7743 39.7045 C 47.5486 39.9155 47.4219 40.2016 47.4219 40.5 C 47.4219 40.7984 47.5486 41.0845 47.7743 41.2955 C 47.9999 41.5065 48.3059 41.625 48.625 41.625 Z M 29.375 41.625 C 29.6941 41.625 30.0001 41.5065 30.2257 41.2955 C 30.4514 41.0845 30.5781 40.7984 30.5781 40.5 C 30.5781 40.2016 30.4514 39.9155 30.2257 39.7045 C 30.0001 39.4935 29.6941 39.375 29.375 39.375 C 29.0559 39.375 28.7499 39.4935 28.5243 39.7045 C 28.2986 39.9155 28.1719 40.2016 28.1719 40.5 C 28.1719 40.7984 28.2986 41.0845 28.5243 41.2955 C 28.7499 41.5065 29.0559 41.625 29.375 41.625 Z M 56.0218 35.3183 L 57.3236 31.6654 C 57.9372 29.9441 58.25 28.1441 58.25 26.3295 L 58.25 22.5 C 58.2505 22.3521 58.2197 22.2057 58.1594 22.069 C 58.0991 21.9323 58.0105 21.8081 57.8987 21.7035 C 57.7869 21.599 57.654 21.5161 57.5079 21.4597 C 57.3617 21.4034 57.205 21.3746 57.0469 21.375 L 20.9531 21.375 C 20.795 21.3746 20.6383 21.4034 20.4921 21.4597 C 20.346 21.5161 20.2131 21.599 20.1013 21.7035 C 19.9895 21.8081 19.9009 21.9323 19.8406 22.069 C 19.7803 22.2057 19.7495 22.3521 19.75 22.5 L 19.75 26.3295 C 19.75 28.143 20.0628 29.9441 20.6764 31.6654 L 21.9782 35.3183 C 22.8458 34.8323 23.8305 34.5587 24.8411 34.5227 C 25.8517 34.4867 26.8558 34.6895 27.7604 35.1124 C 28.2618 35.3466 28.8145 35.4685 29.375 35.4685 C 29.9355 35.4685 30.4882 35.3466 30.9896 35.1124 L 31.4973 34.8761 C 32.3326 34.4855 33.2536 34.2822 34.1875 34.2822 C 35.1214 34.2822 36.0424 34.4855 36.8777 34.8761 L 37.3854 35.1124 C 37.8868 35.3466 38.4395 35.4685 39 35.4685 C 39.5605 35.4685 40.1132 35.3466 40.6146 35.1124 L 41.1223 34.8761 C 41.9576 34.4855 42.8786 34.2822 43.8125 34.2822 C 44.7464 34.2822 45.6674 34.4855 46.5027 34.8761 L 47.0104 35.1124 C 47.5118 35.3466 48.0645 35.4685 48.625 35.4685 C 49.1855 35.4685 49.7382 35.3466 50.2396 35.1124 C 51.1442 34.6895 52.1483 34.4867 53.1589 34.5227 C 54.1696 34.5587 55.1542 34.8323 56.0218 35.3183 Z M 54.6406 19.125 L 54.6406 16.776 C 54.6406 15.6088 54.1447 14.4894 53.2621 13.664 C 52.3794 12.8387 51.1823 12.375 49.934 12.375 L 46.2188 12.375 C 45.7448 12.3752 45.2754 12.2879 44.8375 12.1182 C 44.3996 11.9485 44.0019 11.6998 43.6669 11.3861 C 43.3317 11.0731 43.0657 10.7013 42.8842 10.2921 C 42.7028 9.88284 42.6094 9.44416 42.6094 9.00114 L 42.6094 8.57026 L 36.7574 11.3063 C 35.2539 12.0094 33.5959 12.3754 31.9148 12.375 L 28.066 12.375 C 26.8177 12.375 25.6206 12.8387 24.7379 13.664 C 23.8552 14.4894 23.3594 15.6088 23.3594 16.776 L 23.3594 19.125 L 54.6406 19.125 Z" stroke-linecap="round" />
</g>
</g>
</g>
</svg>