<?xml version="1.0" encoding="UTF-8" standalone="no" ?>
<!DOCTYPE svg PUBLIC "-//W3C//DTD SVG 1.1//EN" "http://www.w3.org/Graphics/SVG/1.1/DTD/svg11.dtd">
<svg xmlns="http://www.w3.org/2000/svg" xmlns:xlink="http://www.w3.org/1999/xlink" version="1.1" width="1080" height="1080" viewBox="0 0 1080 1080" xml:space="preserve">
<desc>Created with Fabric.js 5.2.4</desc>
<defs>
</defs>
<rect x="0" y="0" width="100%" height="100%" fill="transparent"></rect>
<g transform="matrix(1 0 0 1 540 540)" id="4ba13e8b-6254-45fa-89ec-899284cd5140"  >
<rect style="stroke: none; stroke-width: 1; stroke-dasharray: none; stroke-linecap: butt; stroke-dashoffset: 0; stroke-linejoin: miter; stroke-miterlimit: 4; fill: rgb(255,255,255); fill-rule: nonzero; opacity: 1; visibility: hidden;" vector-effect="non-scaling-stroke"  x="-540" y="-540" rx="0" ry="0" width="1080" height="1080" />
</g>
<g transform="matrix(1 0 0 1 540 540)" id="08d40b2c-ba83-416b-90aa-0b6d36277c2d"  >
</g>
<g transform="matrix(13.85 0 0 13.85 540 540)"  >
<g style=""   >
		<g transform="matrix(1 0 0 1 0 12.38)"  >
<path style="stroke: none; stroke-width: 1; stroke-dasharray: none; stroke-linecap: butt; stroke-dashoffset: 0; stroke-linejoin: miter; stroke-miterlimit: 4; fill: rgb(255,255,255); fill-rule: evenodd; opacity: 1;" vector-effect="non-scaling-stroke"  transform=" translate(-39, -48.38)" d="M 25.7656 29.25 L 25.7656 37.6481 L 23.2282 39.2299 C 22.8986 39.4353 22.6284 39.7136 22.4416 40.0402 C 22.2548 40.3668 22.1572 40.7315 22.1575 41.1019 L 22.1575 47.25 C 22.1575 47.8467 22.411 48.419 22.8622 48.841 C 23.3135 49.2629 23.9255 49.5 24.5637 49.5 L 29.3762 49.5 C 30.0144 49.5 30.6264 49.2629 31.0777 48.841 C 31.5289 48.419 31.7825 47.8467 31.7825 47.25 L 31.7825 41.1019 C 31.7825 40.3492 31.3794 39.6472 30.7093 39.2299 L 28.1719 37.6481 L 28.1719 29.25 L 48.625 29.25 C 49.5827 29.25 50.5019 29.6055 51.1768 30.2389 C 51.8542 30.8711 52.2356 31.7295 52.2356 32.625 L 52.2356 36 L 55.8449 36 C 56.6349 36 57.4172 36.1455 58.147 36.4282 C 58.8769 36.7109 59.54 37.1252 60.0986 37.6475 C 60.6572 38.1699 61.1003 38.7899 61.4027 39.4724 C 61.705 40.1549 61.8606 40.8863 61.8606 41.625 L 61.8606 50.625 C 61.8606 51.3637 61.705 52.0951 61.4027 52.7776 C 61.1003 53.4601 60.6572 54.0801 60.0986 54.6025 C 59.54 55.1248 58.8769 55.5391 58.147 55.8218 C 57.4172 56.1045 56.6349 56.25 55.8449 56.25 L 52.2356 56.25 L 52.2356 61.875 C 52.235 63.367 51.6011 64.7978 50.473 65.853 C 49.3443 66.9074 47.8142 67.4998 46.2187 67.5 L 22.1562 67.5 C 20.5608 67.4998 19.0307 66.9074 17.902 65.853 C 16.7744 64.7976 16.1409 63.3669 16.1406 61.875 L 16.1406 32.625 C 16.1406 31.7295 16.5208 30.8711 17.1994 30.2389 C 17.5342 29.9254 17.9318 29.6767 18.3694 29.507 C 18.8071 29.3373 19.2762 29.25 19.75 29.25 L 25.7656 29.25 Z M 41.4062 63 L 43.8125 63 C 44.7698 63 45.6878 62.6444 46.3647 62.0115 C 47.0416 61.3785 47.4219 60.5201 47.4219 59.625 L 47.4219 52.875 C 47.4219 52.5766 47.2951 52.2905 47.0695 52.0795 C 46.8439 51.8685 46.5378 51.75 46.2187 51.75 C 45.8997 51.75 45.5936 51.8685 45.368 52.0795 C 45.1424 52.2905 45.0156 52.5766 45.0156 52.875 L 45.0156 59.625 C 45.0156 59.9234 44.8889 60.2095 44.6632 60.4205 C 44.4376 60.6315 44.1316 60.75 43.8125 60.75 L 41.4062 60.75 C 41.0872 60.75 40.7811 60.8685 40.5555 61.0795 C 40.3299 61.2905 40.2031 61.5766 40.2031 61.875 C 40.2031 62.1734 40.3299 62.4595 40.5555 62.6705 C 40.7811 62.8815 41.0872 63 41.4062 63 Z M 52.2344 38.25 L 52.2344 54 L 55.8437 54 C 56.801 54 57.7191 53.6444 58.396 53.0115 C 59.0728 52.3785 59.4531 51.5201 59.4531 50.625 L 59.4531 41.625 C 59.4531 40.7299 59.0728 39.8715 58.396 39.2385 C 57.7191 38.6056 56.801 38.25 55.8437 38.25 L 52.2344 38.25 Z M 46.2187 47.25 C 46.5378 47.25 46.8439 47.3685 47.0695 47.5795 C 47.2951 47.7905 47.4219 48.0766 47.4219 48.375 C 47.4219 48.6734 47.2951 48.9595 47.0695 49.1705 C 46.8439 49.3815 46.5378 49.5 46.2187 49.5 C 45.8997 49.5 45.5936 49.3815 45.368 49.1705 C 45.1424 48.9595 45.0156 48.6734 45.0156 48.375 C 45.0156 48.0766 45.1424 47.7905 45.368 47.5795 C 45.5936 47.3685 45.8997 47.25 46.2187 47.25 Z" stroke-linecap="round" />
</g>
		<g transform="matrix(1 0 0 1 -4.81 -21.37)"  >
<path style="stroke: none; stroke-width: 1; stroke-dasharray: none; stroke-linecap: butt; stroke-dashoffset: 0; stroke-linejoin: miter; stroke-miterlimit: 4; fill: rgb(255,255,255); fill-rule: evenodd; opacity: 1;" vector-effect="non-scaling-stroke"  transform=" translate(-34.19, -14.63)" d="M 45 5.8095 C 45.0287 5.64841 45.0195 5.48341 44.973 5.32598 C 44.9266 5.16855 44.8441 5.02246 44.7312 4.89785 C 44.6183 4.77324 44.4778 4.67311 44.3194 4.60441 C 44.1609 4.5357 43.9884 4.50008 43.8138 4.5 L 42.3219 4.5 C 40.7519 4.50024 39.2218 4.96234 37.9482 5.82085 C 36.6747 6.67936 35.7222 7.89076 35.2258 9.2835 L 35.2258 9.28463 C 34.8634 10.3009 34.7698 11.3841 34.9531 12.4416 C 35.1365 13.499 35.5913 14.4992 36.2786 15.3562 L 36.4434 15.5621 C 37.2651 16.5859 37.602 17.8796 37.377 19.1407 L 36.6106 23.4394 C 36.5818 23.6006 36.5909 23.7659 36.6373 23.9235 C 36.6837 24.0812 36.7663 24.2275 36.8793 24.3522 C 36.9923 24.477 37.1331 24.5772 37.2918 24.6459 C 37.4505 24.7146 37.6233 24.7501 37.7981 24.75 L 39.2888 24.75 C 40.859 24.7498 42.3893 24.2878 43.663 23.4293 C 44.9368 22.5708 45.8894 21.3593 46.386 19.9665 C 46.7483 18.9502 46.8417 17.8657 46.6582 16.8083 C 46.4746 15.7508 46.0196 14.7507 45.3321 13.8938 L 45.1673 13.6879 C 44.761 13.1814 44.4689 12.6031 44.3084 11.988 C 44.1479 11.3729 44.1225 10.7338 44.2336 10.1093 L 45 5.8095 Z M 42.3929 6.75 L 42.3231 6.75 C 41.2579 6.74988 40.2197 7.06317 39.3555 7.64548 C 38.4914 8.2278 37.845 9.04961 37.5082 9.9945 L 37.5082 9.99563 C 37.2687 10.6669 37.2068 11.3825 37.3279 12.081 C 37.4491 12.7795 37.7495 13.4401 38.2036 14.0062 L 38.3684 14.2121 C 38.9701 14.962 39.4029 15.8182 39.6405 16.729 C 39.8781 17.6398 39.9157 18.5862 39.7508 19.5109 L 39.2166 22.5 L 39.2876 22.5 C 40.3526 22.4999 41.3905 22.1865 42.2544 21.6042 C 43.1184 21.0219 43.7645 20.2002 44.1013 19.2555 L 44.1013 19.2533 C 44.3406 18.5821 44.4023 17.8668 44.2812 17.1685 C 44.1601 16.4702 43.8597 15.8097 43.4059 15.2438 L 43.2411 15.0379 C 42.6395 14.2879 42.2069 13.4317 41.9693 12.5209 C 41.7316 11.6102 41.694 10.6639 41.8587 9.73912 L 42.3929 6.75 Z M 31.7645 5.8095 C 31.7931 5.64841 31.7839 5.48341 31.7375 5.32598 C 31.691 5.16855 31.6085 5.02246 31.4956 4.89785 C 31.3828 4.77324 31.2422 4.67311 31.0838 4.60441 C 30.9254 4.5357 30.7528 4.50008 30.5782 4.5 L 29.0863 4.5 C 27.5163 4.50007 25.986 4.9621 24.7125 5.82063 C 23.4389 6.67917 22.4865 7.89067 21.9903 9.2835 L 21.9903 9.28463 C 21.6278 10.3009 21.5342 11.3841 21.7176 12.4416 C 21.9009 13.499 22.3557 14.4992 23.043 15.3562 L 23.209 15.5621 C 24.0296 16.5859 24.3664 17.8796 24.1427 19.1407 L 23.3751 23.4394 C 23.3462 23.6006 23.3553 23.7659 23.4017 23.9235 C 23.4481 24.0812 23.5307 24.2275 23.6437 24.3522 C 23.7568 24.477 23.8975 24.5772 24.0562 24.6459 C 24.2149 24.7146 24.3877 24.7501 24.5625 24.75 L 26.0532 24.75 C 27.6234 24.7498 29.1537 24.2878 30.4274 23.4293 C 31.7012 22.5708 32.6538 21.3593 33.1505 19.9665 C 33.5129 18.9503 33.6065 17.8659 33.4232 16.8084 C 33.2398 15.751 32.785 14.7508 32.0977 13.8938 L 31.9317 13.6879 C 31.5255 13.1814 31.2333 12.6031 31.0728 11.988 C 30.9123 11.3729 30.8869 10.7338 30.9981 10.1093 L 31.7645 5.8095 Z M 29.1585 6.75 L 29.0887 6.75 C 28.0235 6.74988 26.9853 7.06317 26.1211 7.64548 C 25.257 8.2278 24.6107 9.04961 24.2738 9.9945 L 24.2738 9.99563 C 24.0343 10.6669 23.9725 11.3825 24.0936 12.081 C 24.2147 12.7795 24.5151 13.4401 24.9692 14.0062 L 25.1352 14.2121 C 25.7367 14.9621 26.1692 15.8184 26.4066 16.7291 C 26.644 17.6399 26.6814 18.5862 26.5164 19.5109 L 25.9822 22.5 L 26.0532 22.5 C 27.1184 22.5001 28.1566 22.1868 29.0208 21.6045 C 29.8849 21.0222 30.5312 20.2004 30.8681 19.2555 L 30.8681 19.2533 C 31.1074 18.5821 31.1692 17.8668 31.048 17.1685 C 30.9269 16.4702 30.6266 15.8097 30.1727 15.2438 L 30.0067 15.0379 C 29.4053 14.2878 28.9729 13.4316 28.7355 12.5208 C 28.4981 11.6101 28.4607 10.6638 28.6255 9.73912 L 29.1585 6.75 Z" stroke-linecap="round" />
</g>
</g>
</g>
</svg>